<svg width="98" height="18" viewBox="0 0 98 18" fill="none" xmlns="http://www.w3.org/2000/svg">
<path d="M15.8725 1.69885H26.782V4.17125H18.7078V7.77735H24.0831V10.2498H18.7078V14.2875H27.0322V16.7599H15.8725V1.69885Z" fill="white" fill-opacity="0.4"/>
<path d="M26.2463 6.0531H29.1492L31.6893 13.5154L34.0479 6.0531H36.8606L32.9593 16.7586H30.3505L26.2463 6.0531Z" fill="white" fill-opacity="0.4"/>
<path d="M36.4162 11.4282C36.4162 8.16238 38.6847 5.84888 41.9279 5.84888C45.1486 5.84888 47.417 8.16238 47.417 11.4282C47.417 14.6489 45.1035 16.9624 41.8603 16.9624C38.6385 16.9624 36.4162 14.6939 36.4162 11.4282ZM44.5581 11.4958V11.4056C44.5581 9.36478 43.5597 8.13988 41.9268 8.13988C40.2714 8.13988 39.273 9.36478 39.273 11.4056V11.4958C39.273 13.4916 40.2478 14.6714 41.8817 14.6714C43.5372 14.6714 44.5581 13.4926 44.5581 11.4958Z" fill="white" fill-opacity="0.4"/>
<path d="M48.6943 1.49475H51.5296V16.7587H48.6943V1.49475Z" fill="white" fill-opacity="0.4"/>
<path d="M53.1474 12.4719V6.0531H55.9602V12.313C55.9602 13.7419 56.6408 14.5815 57.9108 14.5815C59.3848 14.5815 59.9978 13.334 59.9978 11.4971V6.0542H62.8105V16.7597H59.9978V15.2406C59.431 16.3518 58.4551 16.9648 57.0724 16.9648C54.644 16.9626 53.1474 15.2385 53.1474 12.4719Z" fill="white" fill-opacity="0.4"/>
<path d="M65.3807 13.9234V8.32159H63.8606V6.05319H65.3807V4.03489L68.1247 2.49219V6.05319H70.2343V8.32159H68.1022V13.6518C68.1022 14.1735 68.3513 14.4001 68.873 14.4226H70.1205V16.7587H67.9433C65.8789 16.6449 65.4258 15.6926 65.3807 13.9234Z" fill="white" fill-opacity="0.4"/>
<path d="M71.5117 1.7439H74.4371V4.488H71.5117V1.7439ZM71.5579 6.0532H74.3931V16.7587H71.5579V6.0532Z" fill="white" fill-opacity="0.4"/>
<path d="M75.6709 11.4282C75.6709 8.16238 77.9389 5.84888 81.1829 5.84888C84.4029 5.84888 86.6719 8.16238 86.6719 11.4282C86.6719 14.6489 84.3579 16.9624 81.1149 16.9624C77.8939 16.9624 75.6709 14.6939 75.6709 11.4282ZM83.8139 11.4958V11.4056C83.8139 9.36478 82.8159 8.13988 81.1829 8.13988C79.5269 8.13988 78.5289 9.36478 78.5289 11.4056V11.4958C78.5289 13.4916 79.5039 14.6714 81.1359 14.6714C82.7929 14.6714 83.8139 13.4926 83.8139 11.4958Z" fill="white" fill-opacity="0.4"/>
<path d="M87.9269 6.05316H90.7389V7.79986C91.3059 6.55236 92.3499 5.82666 93.8699 5.82666C96.2059 5.82666 97.5899 7.39186 97.5899 10.3399V16.7587H94.7769V10.4988C94.7769 9.00226 94.2099 8.23036 92.8949 8.23036C91.5559 8.23036 90.7399 9.31896 90.7399 11.3147V16.7577H87.9279L87.9269 6.05316Z" fill="white" fill-opacity="0.4"/>
<path d="M11.0888 3.3529C8.5273 -0.0266998 3.8637 -0.98 0 1.0834C1.5105 4.4823 2.642 8.4716 10.0828 8.7046C10.9567 8.7325 11.9154 8.7089 12.9739 8.6251C12.8215 6.4941 12.128 4.7238 11.0888 3.3529Z" fill="white" fill-opacity="0.4"/>
<path d="M9.7168 9.30918C5.2389 9.53038 3.1358 11.1632 1.8229 13.1772C1.0499 14.3625 0.5507 15.6786 0 16.9164C5.4322 19.8172 12.4468 16.7586 12.9739 9.37358C11.7651 9.27808 10.6862 9.26088 9.7168 9.30918Z" fill="white" fill-opacity="0.4"/>
</svg>
