<svg width="106" height="25" viewBox="0 0 106 25" fill="none" xmlns="http://www.w3.org/2000/svg">
<path d="M20.9531 3.2775C20.2766 2.2308 18.9235 1.4967 16.8 1.0415C15.1692 0.6851 13.1246 0.5 10.8748 0.5C8.63118 0.5 6.57898 0.6851 4.95578 1.0415C2.83978 1.5042 1.47918 2.2308 0.810081 3.2775C-0.301619 4.9946 -0.0377194 7.4945 0.254881 10.3933C0.312381 10.9273 0.36868 11.4763 0.41118 12.0103C0.50378 13.0783 0.71758 15.1868 1.10898 17.2177C1.67928 20.1741 2.29078 21.2133 2.70478 21.741C4.46428 23.9633 9.40778 24.1346 10.8823 24.1346C12.3567 24.1346 17.3002 23.9633 19.0598 21.741C19.4725 21.2145 20.0928 20.1816 20.6555 17.2177C21.0469 15.1805 21.2608 13.0795 21.3533 12.0103C21.3959 11.4763 21.4534 10.9273 21.5097 10.3933C21.801 7.4945 22.0574 4.9871 20.9531 3.2775ZM20.6893 10.3083C20.6318 10.8423 20.5755 11.3975 20.533 11.939C20.4404 12.9933 20.2341 15.0655 19.8489 17.0676C19.3149 19.8527 18.7734 20.7781 18.4095 21.2345C16.8425 23.2217 11.8565 23.3218 10.8735 23.3218C9.89058 23.3218 4.90448 23.2217 3.33758 21.2345C2.97488 20.7781 2.43338 19.8452 1.89808 17.0676C1.51298 15.0667 1.30658 13.0008 1.21408 11.939C1.16408 11.3975 1.11398 10.8423 1.05778 10.3083C0.772581 7.5583 0.531281 5.1872 1.48548 3.7127C2.04068 2.8586 3.22998 2.2383 5.12588 1.8319C6.70038 1.4905 8.68748 1.3116 10.8735 1.3116C13.0595 1.3116 15.0479 1.4892 16.6212 1.8319C18.5158 2.2446 19.7051 2.8574 20.2616 3.7127C21.217 5.1934 20.9744 7.5658 20.6893 10.3083ZM10.881 2.4797C15.1055 2.4797 18.5308 3.1775 19.2936 4.353C20.184 5.7349 19.6425 8.8188 19.3787 11.8465C19.1148 14.8741 18.4808 19.2761 17.5053 20.5217C16.6512 21.6047 13.5948 22.16 10.881 22.16C8.17478 22.16 5.11088 21.5972 4.25668 20.5217C3.27378 19.2824 2.63968 14.8729 2.38338 11.8465C2.12698 8.8201 1.57798 5.7349 2.46838 4.353C3.23128 3.1787 6.65778 2.4797 10.881 2.4797ZM4.64938 6.6829C4.53558 6.7466 4.48558 6.953 4.48558 6.953L4.36428 7.487C4.36428 7.487 4.32178 7.622 4.39928 7.7859C4.48428 7.9497 5.01958 8.0497 5.01958 8.0497C5.01958 8.0497 5.95248 8.1923 6.33018 8.655C6.70788 9.1177 6.55778 9.7518 6.55778 9.7518L5.53978 14.7453C5.53978 14.7453 5.43978 15.2293 5.18338 15.4644C4.93448 15.692 4.52058 15.707 4.52058 15.707C4.52058 15.707 4.27798 15.7145 4.12168 15.7783C3.98658 15.8358 3.94408 16.0559 3.94408 16.0559L3.88028 16.3836C3.88028 16.3836 3.84528 16.5186 3.92278 16.6399C4.00158 16.7612 4.22168 16.79 4.22168 16.79L9.37158 16.825C9.37158 16.825 9.52788 16.8175 9.61418 16.7325C9.69918 16.6474 9.72048 16.4686 9.72048 16.4686L9.80548 15.9984C9.80548 15.9984 9.84048 15.8558 9.77048 15.7708C9.68548 15.6707 9.61418 15.6782 9.37908 15.6207C9.13648 15.5632 8.99388 15.4919 8.75878 15.3006C8.46618 15.058 8.56618 14.5952 8.56618 14.5952L9.01518 12.0953C9.01518 12.0953 9.07268 11.9103 9.19268 11.9178C9.37028 11.9253 9.42788 12.0891 9.42788 12.0891L11.8852 16.4836C11.8852 16.4836 11.9703 16.6337 12.0991 16.7325C12.2279 16.8325 12.5193 16.8388 12.5193 16.8388L16.6649 16.8038C16.6649 16.8038 16.8713 16.8113 16.9851 16.7187C17.1201 16.6049 17.1564 16.4261 17.1564 16.4261L17.2352 16.0634C17.2352 16.0634 17.2927 15.8921 17.2139 15.7283C17.1214 15.5357 16.765 15.4932 16.3598 15.3719C16.0609 15.2793 15.6695 15.0655 15.5332 14.8666C15.4406 14.7241 15.5332 14.4327 15.5332 14.4327L16.915 8.7488C16.915 8.7488 16.9576 8.5137 17.1927 8.2711C17.4065 8.0497 17.9905 7.9297 17.9905 7.9297C17.9905 7.9297 18.1406 7.9009 18.2332 7.8159C18.2969 7.7521 18.3257 7.617 18.3257 7.617L18.482 7.0043C18.482 7.0043 18.5245 6.8479 18.432 6.7404C18.3532 6.6478 18.1331 6.6478 18.1331 6.6478H13.3959C13.3959 6.6478 13.2396 6.6403 13.0895 6.7616C12.9545 6.8754 12.9332 6.9892 12.9332 6.9892L12.8194 7.502C12.8194 7.502 12.7844 7.6308 12.8269 7.7296C12.8844 7.8584 13.012 7.8647 13.012 7.8647L13.2108 7.8997C13.2108 7.8997 13.581 7.9709 13.7736 8.1635C13.9662 8.3561 13.8736 8.8539 13.8736 8.8539L13.1833 12.1666L10.6747 7.3882C10.6747 7.3882 10.6034 7.1668 10.3258 6.8967C10.0556 6.6266 9.63548 6.6478 9.63548 6.6478H4.95578C4.96208 6.6116 4.76318 6.6191 4.64938 6.6829Z" fill="white" fill-opacity="0.4"/>
<mask id="mask0_18_534" style="mask-type:luminance" maskUnits="userSpaceOnUse" x="29" y="6" width="77" height="11">
<path d="M106 6.67383H29.2646V16.9035H106V6.67383Z" fill="white"/>
</mask>
<g mask="url(#mask0_18_534)">
<path d="M44.6217 9.57519C44.2966 9.57519 43.9714 9.63769 43.6713 9.75019C43.3586 9.86279 43.0835 10.0254 42.8334 10.238C42.5958 10.4506 42.3957 10.7132 42.2456 11.0133C42.0956 11.3135 42.0205 11.6636 42.0205 12.0638C42.0205 12.4515 42.0956 12.8141 42.2456 13.1143C42.3957 13.4144 42.5833 13.677 42.8334 13.8896C43.071 14.1022 43.3586 14.2648 43.6713 14.3774C43.9839 14.4899 44.2966 14.5524 44.6217 14.5524C44.9469 14.5524 45.272 14.4899 45.5722 14.3774C45.8848 14.2648 46.1599 14.1022 46.41 13.8896C46.6477 13.677 46.8477 13.4144 46.9978 13.1143C47.1479 12.8141 47.2229 12.464 47.2229 12.0638C47.2229 11.6761 47.1479 11.326 46.9978 11.0133C46.8477 10.7132 46.6477 10.4506 46.41 10.238C46.1724 10.0254 45.8848 9.86279 45.5722 9.75019C45.272 9.63769 44.9469 9.57519 44.6217 9.57519ZM44.6217 15.9781C44.034 15.9781 43.4712 15.9031 42.946 15.7655C42.4207 15.6154 41.958 15.3778 41.5578 15.0527C41.1701 14.7275 40.8575 14.3023 40.6199 13.8146C40.3948 13.3144 40.2822 12.7391 40.2822 12.0763C40.2822 11.4135 40.3948 10.8257 40.6199 10.3255C40.845 9.82529 41.1576 9.41259 41.5578 9.08739C41.9455 8.76229 42.4082 8.51219 42.9334 8.34959C43.4587 8.18699 44.0214 8.09949 44.6092 8.09949C45.197 8.09949 45.7597 8.18699 46.285 8.34959C46.8102 8.51219 47.2729 8.76229 47.6606 9.08739C48.0483 9.41259 48.3734 9.83779 48.5985 10.3255C48.8237 10.8257 48.9362 11.4135 48.9362 12.0763C48.9362 12.7391 48.8237 13.3269 48.5985 13.8146C48.3734 14.3148 48.0608 14.7275 47.6606 15.0527C47.2729 15.3778 46.8102 15.6154 46.2725 15.7655C45.7722 15.9031 45.2095 15.9781 44.6217 15.9781Z" fill="white" fill-opacity="0.4"/>
<path d="M61.392 9.57519C61.0669 9.57519 60.7417 9.63769 60.4416 9.75019C60.129 9.86279 59.8538 10.0254 59.6037 10.238C59.3661 10.4506 59.166 10.7132 59.0159 11.0133C58.8659 11.3135 58.7908 11.6636 58.7908 12.0638C58.7908 12.464 58.8659 12.8141 59.0159 13.1143C59.166 13.4144 59.3536 13.677 59.6037 13.8896C59.8413 14.1022 60.129 14.2648 60.4416 14.3774C60.7542 14.4899 61.0794 14.5524 61.392 14.5524C61.7172 14.5524 62.0423 14.4899 62.3425 14.3774C62.6551 14.2648 62.9302 14.1022 63.1804 13.8896C63.418 13.677 63.6181 13.4144 63.7681 13.1143C63.9182 12.8141 63.9932 12.464 63.9932 12.0638C63.9932 11.6636 63.9182 11.326 63.7681 11.0133C63.6181 10.7132 63.418 10.4506 63.1804 10.238C62.9428 10.0254 62.6551 9.86279 62.3425 9.75019C62.0423 9.63769 61.7172 9.57519 61.392 9.57519ZM61.392 15.9781C60.8043 15.9781 60.2415 15.9031 59.7163 15.7655C59.191 15.6154 58.7283 15.3778 58.3281 15.0527C57.9405 14.7275 57.6278 14.3023 57.3902 13.8146C57.1651 13.3144 57.04 12.7391 57.04 12.0763C57.04 11.4135 57.1526 10.8257 57.3902 10.3255C57.6153 9.82529 57.9279 9.41259 58.3281 9.08739C58.7158 8.76229 59.1785 8.51219 59.7038 8.34959C60.229 8.18699 60.7918 8.09949 61.3795 8.09949C61.9673 8.09949 62.5301 8.18699 63.0553 8.34959C63.5805 8.51219 64.0433 8.76229 64.4309 9.08739C64.8186 9.41259 65.1438 9.83779 65.3689 10.3255C65.594 10.8257 65.7065 11.4135 65.7065 12.0763C65.7065 12.7391 65.594 13.3269 65.3689 13.8146C65.1438 14.3148 64.8311 14.7275 64.4309 15.0527C64.0433 15.3778 63.5805 15.6154 63.0428 15.7655C62.5551 15.9031 61.9923 15.9781 61.392 15.9781Z" fill="white" fill-opacity="0.4"/>
<path d="M37.3309 16.841L31.1405 9.68773V16.841H29.2646V6.79883H31.2281L37.1808 13.677V6.79883H39.0566V16.841H37.3309Z" fill="white" fill-opacity="0.4"/>
<path d="M53.8135 15.9156H52.1753L48.8237 8.18701H50.6871L53.0007 13.5645L55.3017 8.18701H57.1651L53.8135 15.9156Z" fill="white" fill-opacity="0.4"/>
<path d="M86.691 15.9156V9.66271H83.99V8.18701H91.131V9.66271H88.429V15.9156H86.691Z" fill="white" fill-opacity="0.4"/>
<path d="M94.182 8.18701H92.419V15.9156H94.182V8.18701Z" fill="white" fill-opacity="0.4"/>
<path d="M81.664 12.564L80.6007 10.0754L79.5377 12.564H81.664ZM83.102 15.9156L82.301 14.0397H78.9249L78.1245 15.9156H76.3862L79.8003 8.18701H81.426L84.84 15.9156H83.102Z" fill="white" fill-opacity="0.4"/>
<path d="M101.185 16.9035C100.447 16.9035 99.722 16.8035 99.034 16.6034C98.346 16.4033 97.734 16.0782 97.208 15.653C96.683 15.2278 96.258 14.69 95.958 14.0522C95.645 13.4269 95.495 12.6641 95.495 11.8137C95.495 10.9758 95.645 10.2255 95.958 9.58773C96.258 8.94993 96.683 8.39963 97.208 7.97443C97.734 7.54923 98.346 7.21163 99.034 6.99903C99.722 6.78643 100.435 6.67383 101.185 6.67383C102.698 6.67383 104.099 7.17413 105.012 7.56183C105.112 7.61183 105.725 7.87443 105.725 7.87443L104.774 9.46263L104.637 9.37513C103.699 8.81233 102.636 8.44973 101.66 8.33713C101.485 8.31213 101.335 8.31213 101.185 8.31213H101.11H101.06C100.61 8.32463 100.16 8.39963 99.747 8.53723C99.297 8.68733 98.897 8.91243 98.559 9.21253C98.221 9.50013 97.946 9.87533 97.746 10.288C97.546 10.7132 97.446 11.2009 97.446 11.7512C97.446 12.3014 97.546 12.7892 97.746 13.2144C97.946 13.6395 98.221 14.0022 98.559 14.2898C98.897 14.5775 99.297 14.8026 99.747 14.9652C100.197 15.1152 100.685 15.1903 101.185 15.1903C102.798 15.1903 104.149 14.4524 104.999 13.8271L105.15 13.7271L106 15.1903L105.875 15.2778C104.812 15.9531 103.186 16.791 101.498 16.891C101.385 16.891 101.285 16.9035 101.185 16.9035Z" fill="white" fill-opacity="0.4"/>
<path d="M73.7098 8.18701L71.1962 12.7766L68.67 8.18701H66.9692V15.9156H68.5074V11.1134L71.1962 15.9406L73.8849 11.1134V15.9156H75.4231V8.18701H73.7098Z" fill="white" fill-opacity="0.4"/>
</g>
<path fill-rule="evenodd" clip-rule="evenodd" d="M106 21.3447H29.2646V19.6528L106 19.6529V21.3447Z" fill="white" fill-opacity="0.4"/>
</svg>
