<svg width="93" height="30" viewBox="0 0 93 30" fill="none" xmlns="http://www.w3.org/2000/svg">
<mask id="mask0_18_258" style="mask-type:luminance" maskUnits="userSpaceOnUse" x="0" y="0" width="93" height="30">
<path d="M93 0.5H0V29.95H93V0.5Z" fill="white"/>
</mask>
<g mask="url(#mask0_18_258)">
<path d="M6.0008 5.66017C6.0175 5.65918 6.0281 5.65351 6.0254 5.63552C6.3252 5.64883 6.6394 5.61777 6.9372 5.63552C7.058 5.64267 7.2631 5.67003 7.3927 5.68507C8.8317 5.85243 10.1778 6.45708 11.398 7.20419L11.2493 11.8653C10.7342 11.4224 10.2298 10.9664 9.6804 10.5649C8.8714 9.9738 7.5717 9.15345 6.5337 9.2582C6.0917 9.3028 5.3979 9.6321 5.2179 10.061C4.7422 11.1937 6.5771 11.5013 7.2885 11.7732C8.4053 12.1996 10.2274 13.187 10.8507 14.2218C11.9792 16.0944 11.5528 19.672 10.0304 21.2475C9.2885 22.0154 7.8564 22.6262 6.8016 22.7489C5.1474 22.9412 3.0328 22.1361 1.6662 21.233C1.5484 21.1551 1.2373 20.953 1.2193 20.8177C1.2171 19.1285 1.2792 17.4439 1.2701 15.7565C1.3115 15.7468 1.3199 15.77 1.3433 15.7939C1.4767 15.9295 1.6115 16.1474 1.75 16.2985C2.6877 17.3222 5.0079 18.863 6.445 18.4038C7.0279 18.2174 7.3636 17.8674 7.4068 17.2472C7.4452 16.6926 7.3479 16.5393 6.9207 16.229C4.8161 14.6993 1.8016 15.3544 1.4671 12.0014C1.3211 10.538 1.4594 9.14482 2.1935 7.85197C2.9177 6.57441 4.4782 5.71612 5.9268 5.63552H5.9515C5.9502 5.66337 5.9798 5.6614 6.0008 5.66017Z" fill="white" fill-opacity="0.4"/>
<path d="M71.8946 16.4204L71.9944 19.362C72.0582 20.0549 71.9323 20.9304 72.02 21.6016C72.0287 21.6672 72.0681 21.7591 72.0962 21.821L72.5598 22.5516L67.2618 22.4776L68.0316 21.6591L68.0311 6.70122C67.8368 6.39434 67.5097 6.21292 67.2618 5.95583L74.9143 5.95435C78.3302 6.12024 79.4749 9.3076 78.9844 12.2889C78.7714 13.584 78.3324 14.4051 77.3026 15.2131C77.2143 15.2823 76.972 15.4164 76.9218 15.4731C76.9018 15.4955 76.8887 15.5079 76.9006 15.5404L82.9716 29.2488L76.3304 24.5832L72.1632 16.4601C72.1051 16.3846 71.9806 16.4327 71.8946 16.4204ZM72.2397 12.1608H74.0755C74.2022 12.1608 74.5498 12.0523 74.6713 11.9926C75.8808 11.4001 75.6799 8.93492 74.1495 8.93492H72.2397V12.1608Z" fill="white" fill-opacity="0.4"/>
<path d="M38.2826 22.552L34.303 15.0909L34.3284 21.5906C34.4879 21.8879 34.8022 22.178 34.9565 22.4652C34.9725 22.495 34.99 22.512 34.9804 22.552L30.052 22.6259C30.0079 22.5862 30.6315 21.7169 30.7045 21.6407L30.7185 21.5808C30.6877 16.6929 30.6724 11.804 30.6567 6.91505L29.9781 6.0299L34.5872 5.96729C35.6015 8.09106 36.5569 10.2434 37.5715 12.3669C37.8739 12.9999 38.2617 13.6011 38.4554 14.2787C38.4897 14.3157 38.5003 14.2763 38.5045 14.2422C38.534 14.0101 38.5096 13.6268 38.5054 13.379C38.4695 11.2733 38.4781 9.16009 38.4808 7.05062L37.8143 6.03014C37.9905 6.03458 38.1685 6.02373 38.3452 6.02891C39.5663 6.06441 40.7941 6.06564 42.015 6.10483C42.2381 6.11198 42.4845 6.06909 42.6936 6.14057L41.9543 7.05185V22.5155L41.9174 22.5525L38.2826 22.552Z" fill="white" fill-opacity="0.4"/>
<path d="M59.7709 6.02929C59.586 6.30216 59.325 6.54446 59.2532 6.8787L59.2522 16.2861C59.2394 17.7818 60.151 18.5392 61.6242 18.186C62.7685 17.9117 62.833 17.0236 62.8749 16.0376C63.0026 13.0304 62.8323 9.96749 62.9011 6.95191C62.891 6.858 62.8025 6.76655 62.7406 6.69359C62.538 6.45474 62.2402 6.27159 62.0378 6.02905H66.72C66.5331 6.25261 65.9413 6.60978 65.9063 6.90261L65.9078 17.8616C65.7917 19.7458 65.3009 21.5119 63.5577 22.4816C61.4724 23.6418 57.7876 23.313 56.3254 21.2785C55.6259 20.3051 55.4321 19.0593 55.3587 17.886V6.90483C55.3298 6.72809 54.736 6.22501 54.578 6.08574C54.5613 6.07095 54.5312 6.08746 54.5465 6.02954L59.7709 6.02929Z" fill="white" fill-opacity="0.4"/>
<path d="M12.0137 22.5519C12.168 22.3113 12.6706 21.9059 12.7044 21.6291C12.7948 20.8893 12.6149 19.9931 12.7295 19.2411C12.7552 15.1523 12.8888 11.0731 12.8491 6.98008C12.8027 6.58027 12.346 6.32195 12.0699 6.08581C12.0522 6.07053 12.0233 6.08655 12.0389 6.02936C13.0367 6.01063 14.0357 6.0195 15.0337 6.0057C16.7074 5.98253 18.7412 5.79865 20.3725 6.0863C23.3023 6.60295 23.9592 9.6013 23.7191 12.1727C23.5042 14.4756 21.9776 16.7737 19.4447 16.7167L16.7698 16.7155C16.752 17.4666 16.7577 18.2184 16.7463 18.9697C16.736 19.6473 16.7318 20.3325 16.7217 21.0133C16.718 21.2682 16.6192 21.5815 16.7843 21.8105L17.312 22.5512L12.0137 22.5519ZM18.8026 8.935H16.7202L16.6956 12.9733C17.0037 12.9585 17.3125 12.9617 17.6209 12.9496C18.5206 12.9141 19.1967 12.9701 19.7469 12.1436C20.4795 11.043 20.4664 9.07575 18.8026 8.935Z" fill="white" fill-opacity="0.4"/>
<path d="M54.1278 6.02954V11.0281L54.0403 11.0047C53.289 10.3821 52.5572 9.72 51.7253 9.20608H47.5975V12.3087L52.9452 12.2966C52.7773 12.6828 52.6274 13.0479 52.5338 13.4613C52.287 14.5488 52.2052 15.6752 52.0309 16.7753C52.0201 16.8441 51.97 16.8939 52.0085 16.9622C51.9513 16.9777 51.9671 16.9489 51.952 16.9311C51.7844 16.7354 51.2025 15.906 51.0053 15.8594C50.8579 15.8246 50.5569 15.8106 50.3955 15.8039C49.4635 15.7642 48.5266 15.8305 47.5973 15.8544V21.4809C47.7893 21.855 48.0609 22.1787 48.3247 22.5028L48.2995 22.5519H43.1863L43.7237 21.7715L43.8765 21.4069L43.8777 7.09932L43.8482 6.98125L43.1866 6.02954H54.1278Z" fill="white" fill-opacity="0.4"/>
<path d="M83.5014 22.5521L84.1408 21.5782L84.1367 15.7001C82.7531 12.9833 81.4741 10.1997 79.9818 7.54C79.8314 7.27182 79.6818 6.96544 79.4841 6.73225C79.2864 6.49907 79.0274 6.31642 78.8075 6.1032C78.7834 6.07979 78.7609 6.07091 78.7703 6.02999L84.1914 5.95605L83.7033 6.61418L85.7566 11.4964L87.8335 6.99846C87.6531 6.62453 87.3189 6.35758 87.0748 6.02999H93.0628C92.7768 6.29793 92.4198 6.49438 92.1708 6.80077C90.8068 9.80059 89.3339 12.7491 87.8688 15.7004L87.8643 21.6033C87.8969 21.7798 88.4788 22.3009 88.6149 22.4784C88.6339 22.5033 88.6625 22.5094 88.6516 22.5523L83.5014 22.5521Z" fill="white" fill-opacity="0.4"/>
<path d="M24.1379 22.552C24.1194 22.5362 24.2429 22.391 24.2616 22.3678C24.4093 22.1864 24.9284 21.6496 24.9516 21.4568C24.9503 16.5763 24.9627 11.6933 24.9136 6.81794L24.2116 6.04198C24.2109 6.01413 24.7147 6.02695 24.7674 6.02818C26.0958 6.06417 27.4298 6.06466 28.7574 6.10435C28.8649 6.10755 29.4523 6.08364 29.4853 6.12826C29.2561 6.38683 28.9866 6.61064 28.7894 6.89756L28.7702 21.5798C28.8 21.8248 29.2289 22.2397 29.3726 22.4554C29.3926 22.4854 29.418 22.5118 29.4116 22.552H24.1379Z" fill="white" fill-opacity="0.4"/>
</g>
</svg>
