<svg width="88" height="23" viewBox="0 0 88 23" fill="none" xmlns="http://www.w3.org/2000/svg">
<path d="M12.8894 0.5L12.8909 3.2651L8.18286 7.9219L5.74077 7.9349C5.71577 7.9349 5.69166 7.9392 5.66816 7.9478C5.64636 7.956 5.62116 7.9601 5.59266 7.9601C5.58296 7.9611 5.57506 7.9583 5.56896 7.9517C5.55726 7.9379 5.55776 7.9247 5.57046 7.912C5.69336 7.7906 5.80406 7.6478 5.91786 7.5356C6.42676 7.0328 6.93366 6.5282 7.43856 6.0218C7.56986 5.8905 7.68746 5.711 7.81727 5.5866C8.35927 5.0665 8.89646 4.5412 9.42876 4.0109C9.49826 3.9415 9.56236 3.8376 9.63716 3.7621C10.2088 3.1885 10.7823 2.6167 11.358 2.0467C11.4488 1.9558 11.5442 1.8245 11.6465 1.7237C12.0588 1.3181 12.473 0.9102 12.8894 0.5Z" fill="white" fill-opacity="0.4"/>
<path d="M12.8896 0.5L20.2168 7.9326L17.5388 7.931L12.8911 3.2651L12.8896 0.5Z" fill="white" fill-opacity="0.4"/>
<path d="M30.9976 12.1429H29.9593C29.9528 12.1429 29.9466 12.1403 29.942 12.1357C29.9375 12.1312 29.9349 12.1249 29.9349 12.1185L29.9341 3.00719C29.9342 3.00229 29.9356 2.99759 29.9384 2.99359C29.9411 2.98959 29.945 2.98649 29.9495 2.98469C29.954 2.98289 29.9588 2.98239 29.9636 2.98349C29.9683 2.98449 29.9727 2.98689 29.9761 2.99039L36.4514 9.77939C36.4547 9.78289 36.459 9.78529 36.4637 9.78629C36.4685 9.78729 36.4735 9.78689 36.478 9.78509C36.4825 9.78329 36.4863 9.78019 36.489 9.77619C36.4917 9.77219 36.4933 9.76739 36.4934 9.76259L36.4941 3.37739C36.4941 3.37089 36.4967 3.36469 36.5013 3.36009C36.5059 3.35549 36.5121 3.35299 36.5186 3.35299L37.5927 3.34609C37.5992 3.34609 37.6054 3.34869 37.6099 3.35329C37.6145 3.35779 37.6171 3.36409 37.6171 3.37049L37.6179 12.4521C37.6178 12.4569 37.6163 12.4617 37.6136 12.4657C37.6109 12.4697 37.607 12.4728 37.6025 12.4746C37.598 12.4764 37.5931 12.4768 37.5883 12.4758C37.5836 12.4748 37.5792 12.4724 37.5759 12.4689L31.0655 5.63399C31.0621 5.63059 31.0578 5.62819 31.0531 5.62709C31.0483 5.62609 31.0434 5.62659 31.0389 5.62839C31.0344 5.63019 31.0305 5.63329 31.0278 5.63729C31.025 5.64129 31.0236 5.64599 31.0235 5.65079L31.0219 12.1185C31.0219 12.1249 31.0194 12.1312 31.0148 12.1357C31.0103 12.1403 31.004 12.1429 30.9976 12.1429Z" fill="white" fill-opacity="0.4"/>
<path d="M67.8287 9.94651H63.8521C63.823 9.94651 63.8024 9.96001 63.7902 9.98691L62.8528 12.1054C62.8421 12.1293 62.8235 12.1413 62.797 12.1413L61.6947 12.1428C61.6677 12.1433 61.6598 12.1314 61.671 12.1069L65.8308 3.00781C65.8334 3.00251 65.8376 2.99821 65.8429 2.99551C65.8481 2.99281 65.8541 2.99181 65.8599 2.99281C65.8657 2.99371 65.8711 2.99651 65.8752 3.00071C65.8793 3.00491 65.8819 3.01041 65.8827 3.01621L65.8881 3.06511C65.8901 3.08281 65.8947 3.10001 65.9018 3.11621L68.7974 9.42891C68.8086 9.45331 68.8168 9.47901 68.8219 9.50601C68.8275 9.53651 68.8389 9.57091 68.8562 9.60901C69.2456 10.4508 69.6382 11.2898 70.0342 12.126C70.0351 12.1279 70.0355 12.13 70.0354 12.1321C70.0352 12.1342 70.0346 12.1363 70.0334 12.138C70.0323 12.1398 70.0307 12.1412 70.0288 12.1422C70.0269 12.1432 70.0248 12.1437 70.0227 12.1436H68.8654C68.842 12.1436 68.8272 12.1321 68.8211 12.1092C68.8028 12.0364 68.7791 11.9675 68.7501 11.9023C68.4615 11.2595 68.1704 10.618 67.8768 9.97781C67.8671 9.95691 67.8511 9.94651 67.8287 9.94651ZM64.3193 8.90291C64.3177 8.90651 64.3171 8.91051 64.3175 8.91441C64.3179 8.91831 64.3193 8.92201 64.3215 8.92531C64.3237 8.92851 64.3266 8.93121 64.3301 8.93301C64.3336 8.93481 64.3375 8.93581 64.3414 8.93571H67.3584C67.3623 8.93561 67.3661 8.93461 67.3694 8.93271C67.3728 8.93091 67.3757 8.92821 67.3778 8.92501C67.3799 8.92171 67.3812 8.91801 67.3815 8.91421C67.3819 8.91031 67.3813 8.90641 67.3798 8.90291L65.8614 5.39201C65.8595 5.38771 65.8565 5.38411 65.8526 5.38151C65.8488 5.37901 65.8442 5.37761 65.8396 5.37761C65.835 5.37761 65.8304 5.37901 65.8266 5.38151C65.8227 5.38411 65.8197 5.38771 65.8178 5.39201L64.3193 8.90291Z" fill="white" fill-opacity="0.4"/>
<path d="M73.3654 6.47513C73.3694 6.55963 73.3534 6.65893 73.3184 6.77293C73.2244 7.07903 73.2094 7.42183 73.1494 7.71033C73.0364 8.25013 72.9644 8.77003 72.8574 9.29143C72.7594 9.77333 72.6874 10.2596 72.6434 10.7502C72.6394 10.7938 72.6014 10.8495 72.5934 10.9052C72.5374 11.3047 72.4714 11.7025 72.3964 12.0984C72.3924 12.1213 72.3784 12.1328 72.3544 12.1328L71.266 12.1358C71.241 12.1358 71.2311 12.1234 71.2362 12.0984C71.5019 10.8067 71.6851 9.89323 71.7859 9.35783C71.824 9.15623 71.8851 8.96543 71.9111 8.78903C71.9609 8.44603 72.0274 8.10653 72.1104 7.77063C72.1584 7.57673 72.1784 7.36683 72.2254 7.16303C72.2854 6.90603 72.3384 6.64743 72.3844 6.38733C72.4874 5.80793 72.6454 5.17733 72.6964 4.54753C72.7094 4.39033 72.8014 4.18263 72.8264 4.00243C72.8594 3.76733 72.9044 3.53453 72.9634 3.30393C72.9844 3.21923 72.9754 3.12603 72.9924 3.04743C73.0074 2.97973 73.0284 2.97743 73.0564 3.04053L76.0254 9.85323C76.0414 9.88893 76.0574 9.88893 76.0724 9.85323L79.0354 3.03753C79.0374 3.03263 79.0404 3.02853 79.0454 3.02583C79.0494 3.02313 79.0554 3.02203 79.0604 3.02253C79.0654 3.02303 79.0704 3.02523 79.0744 3.02873C79.0784 3.03223 79.0804 3.03693 79.0814 3.04213L80.8384 12.0916C80.8434 12.1195 80.8314 12.1335 80.8034 12.1335L79.7754 12.1358C79.7534 12.1358 79.7404 12.1251 79.7354 12.1038C79.6794 11.8676 79.6354 11.6294 79.6044 11.3892C79.6034 11.377 79.5984 11.363 79.5904 11.3472C79.5114 11.1907 79.5004 10.8411 79.4744 10.6602C79.4514 10.5021 79.3784 10.3014 79.3754 10.1052C79.3754 10.0754 79.3674 10.0601 79.3524 10.0365C79.3464 10.0268 79.3424 10.0176 79.3414 10.009C79.2984 9.77033 79.2614 9.53063 79.2294 9.28983C79.2124 9.15173 79.1544 9.00893 79.1334 8.86003C79.0754 8.45753 79.0064 8.05903 78.9254 7.66453C78.8504 7.30113 78.8134 7.09533 78.8134 7.04693C78.8154 6.97423 78.7744 6.76503 78.6924 6.41943C78.6804 6.37113 78.6654 6.36953 78.6454 6.41483L76.0704 12.2771C76.0554 12.3107 76.0404 12.3107 76.0254 12.2771L73.4744 6.46063C73.3934 6.27593 73.3574 6.28073 73.3654 6.47513Z" fill="white" fill-opacity="0.4"/>
<path d="M59.3011 8.7098H57.1428C57.1323 8.7098 57.1223 8.7056 57.1148 8.6982C57.1074 8.6908 57.1032 8.6807 57.1032 8.6701L57.1046 7.7372C57.1046 7.7271 57.1087 7.7174 57.1157 7.7102C57.1227 7.7031 57.1321 7.6991 57.142 7.6991L60.5416 7.6998C60.5676 7.6998 60.5811 7.7128 60.5821 7.7388C60.5981 8.1854 60.5775 8.6419 60.4607 9.074C60.4156 9.2389 60.3935 9.4106 60.3385 9.5626C59.9179 10.7145 59.0957 11.6505 57.9285 12.0688C57.1961 12.3309 56.4478 12.3979 55.6839 12.2696C55.4969 12.2383 55.2938 12.1658 55.0953 12.1093C53.5555 11.6696 52.2594 10.0534 52.0204 8.4846C51.6944 6.3402 52.9548 4.15 55.0168 3.4324C56.3367 2.9728 57.7735 3.1468 58.9705 3.8614C59.34 4.082 59.8209 4.4874 60.0568 4.8485C60.0716 4.8704 60.0693 4.8907 60.05 4.9096L59.356 5.5798C59.3336 5.6012 59.314 5.5989 59.2972 5.573C59.253 5.5066 59.2362 5.4424 59.1827 5.3836C58.1643 4.2775 56.613 3.8469 55.2007 4.4591C54.5258 4.7523 53.7999 5.3203 53.5083 6.0234C53.4487 6.1669 53.3902 6.3102 53.3327 6.4532C52.9724 7.3502 52.9846 8.3678 53.4465 9.2602C53.5106 9.3847 53.5404 9.5244 53.6106 9.6358C54.229 10.6168 55.3412 11.3573 56.52 11.3276C57.8628 11.2924 59.3133 10.1588 59.3446 8.7541C59.3451 8.7246 59.3306 8.7098 59.3011 8.7098Z" fill="white" fill-opacity="0.4"/>
<path d="M40.5958 4.38651V6.78212C40.5958 6.78902 40.5985 6.79561 40.6034 6.80042C40.6082 6.80532 40.6148 6.80812 40.6217 6.80812L44.1014 6.80962C44.1082 6.80962 44.1148 6.81231 44.1197 6.81721C44.1246 6.82202 44.1273 6.82862 44.1273 6.83552L44.1265 7.79592C44.1265 7.80282 44.1238 7.80942 44.1189 7.81432C44.1141 7.81912 44.1075 7.82191 44.1006 7.82191L40.6217 7.82261C40.6148 7.82261 40.6082 7.82542 40.6034 7.83022C40.5985 7.83512 40.5958 7.84172 40.5958 7.84862V11.0893C40.5958 11.0961 40.5985 11.1027 40.6034 11.1076C40.6082 11.1125 40.6148 11.1152 40.6217 11.1152L44.1983 11.1229C44.2052 11.1229 44.2118 11.1256 44.2167 11.1305C44.2215 11.1353 44.2243 11.1419 44.2243 11.1488V12.1161C44.2243 12.1195 44.2236 12.1228 44.2223 12.126C44.221 12.1291 44.2191 12.132 44.2167 12.1344C44.2142 12.1368 44.2114 12.1387 44.2082 12.14C44.2051 12.1413 44.2017 12.142 44.1983 12.142L39.5568 12.1428C39.5534 12.1428 39.55 12.1421 39.5468 12.1408C39.5437 12.1395 39.5408 12.1376 39.5384 12.1352C39.536 12.1328 39.5341 12.1299 39.5328 12.1267C39.5315 12.1236 39.5308 12.1202 39.5308 12.1168V3.37121C39.5308 3.36431 39.5335 3.35772 39.5384 3.35282C39.5433 3.34792 39.5499 3.34521 39.5568 3.34521L44.1983 3.35361C44.2052 3.35361 44.2118 3.35632 44.2167 3.36122C44.2215 3.36612 44.2243 3.37271 44.2243 3.37961V4.33462C44.2243 4.34152 44.2215 4.34811 44.2167 4.35291C44.2118 4.35781 44.2052 4.36061 44.1983 4.36061H40.6217C40.6148 4.36061 40.6082 4.36332 40.6034 4.36822C40.5985 4.37302 40.5958 4.37961 40.5958 4.38651Z" fill="white" fill-opacity="0.4"/>
<path d="M84.2284 11.1138L87.6764 11.11L87.6944 12.1062C87.6954 12.1317 87.6824 12.1444 87.6564 12.1444L83.0034 12.1307C82.9864 12.1302 82.9774 12.1213 82.9774 12.104L82.9834 3.37739C82.9834 3.36969 82.9864 3.36229 82.9914 3.35689C82.9964 3.35139 83.0034 3.34839 83.0114 3.34839L87.6734 3.34989C87.6914 3.34989 87.7004 3.35859 87.7004 3.37589V4.31329C87.7004 4.34539 87.6844 4.36139 87.6524 4.36139L84.1474 4.36069C84.1224 4.36069 84.1094 4.37309 84.1094 4.39809V6.77459C84.1094 6.79749 84.1214 6.80889 84.1444 6.80889H87.5614C87.5904 6.80889 87.6054 6.82339 87.6054 6.85239L87.6084 7.79299C87.6084 7.80089 87.6054 7.80839 87.6004 7.81399C87.5944 7.81959 87.5874 7.82269 87.5794 7.82269L84.1434 7.82199C84.1204 7.82199 84.1094 7.83339 84.1094 7.85629V11.0947C84.1094 11.1212 84.1224 11.1352 84.1484 11.1367C84.1744 11.1382 84.2014 11.1306 84.2284 11.1138Z" fill="white" fill-opacity="0.4"/>
<path d="M47.75 4.35985L45.7452 4.36055C45.7384 4.36055 45.7318 4.35785 45.7269 4.35295C45.722 4.34815 45.7193 4.34155 45.7193 4.33465L45.7208 3.37195C45.7208 3.36505 45.7235 3.35845 45.7284 3.35365C45.7333 3.34875 45.7399 3.34595 45.7468 3.34595L50.9349 3.35435C50.9418 3.35435 50.9484 3.35715 50.9533 3.36195C50.9581 3.36685 50.9609 3.37345 50.9609 3.38035V4.33535C50.9609 4.34225 50.9581 4.34885 50.9533 4.35375C50.9484 4.35865 50.9418 4.36135 50.9349 4.36135L48.9256 4.36055C48.9187 4.36055 48.9121 4.36335 48.9073 4.36815C48.9024 4.37305 48.8997 4.37965 48.8997 4.38655V12.1168C48.8997 12.1202 48.899 12.1236 48.8977 12.1267C48.8964 12.1299 48.8945 12.1327 48.892 12.1351C48.8896 12.1375 48.8868 12.1395 48.8836 12.1408C48.8805 12.1421 48.8771 12.1427 48.8737 12.1427L47.8019 12.1435C47.795 12.1435 47.7884 12.1408 47.7835 12.1359C47.7786 12.131 47.7759 12.1244 47.7759 12.1175V4.38575C47.7759 4.37885 47.7732 4.37225 47.7683 4.36745C47.7634 4.36255 47.7568 4.35985 47.75 4.35985Z" fill="white" fill-opacity="0.4"/>
<path d="M12.8883 4.62549V6.12409C12.5004 7.00959 11.834 7.55699 11.1003 7.93489L9.59175 7.91729L12.8883 4.62549Z" fill="white" fill-opacity="0.4"/>
<path d="M12.8882 4.62549L16.1694 7.92649L14.68 7.93029C13.8066 7.54629 13.2844 6.98209 12.8882 6.12409V4.62549Z" fill="white" fill-opacity="0.4"/>
<path d="M12.8881 6.12402C13.2843 6.98212 13.8064 7.54632 14.6798 7.93032C13.7912 8.27232 13.3086 8.90892 12.8857 9.73112C12.5261 8.95482 11.8941 8.25702 11.1001 7.93482C11.8338 7.55692 12.5002 7.00962 12.8881 6.12402Z" fill="white" fill-opacity="0.4"/>
<path d="M8.18306 7.92188L12.8903 12.6161C12.8903 13.4772 12.8923 14.3439 12.8964 15.2163C12.8964 15.2723 12.9106 15.3061 12.9391 15.3178C12.9295 15.3555 12.9144 15.3761 12.8941 15.3796C12.8798 15.3817 12.8625 15.3718 12.8422 15.3499C11.9994 14.446 11.1054 13.5826 10.2336 12.7077C9.57396 12.0458 8.68306 11.0946 7.86926 10.3213C7.73106 10.19 7.59976 10.0113 7.48146 9.89448C6.95116 9.37488 6.42516 8.85088 5.90346 8.32268C5.79256 8.21068 5.68896 8.08977 5.59276 7.95997C5.62126 7.95997 5.64646 7.95597 5.66836 7.94777C5.69176 7.93917 5.71596 7.93488 5.74086 7.93488L8.18306 7.92188Z" fill="white" fill-opacity="0.4"/>
<path d="M9.59175 7.91724L11.1003 7.93484C11.8943 8.25704 12.5264 8.95474 12.886 9.73114C12.9145 10.2309 12.9101 10.6788 12.873 11.0747C12.8684 11.1241 12.8468 11.1462 12.8081 11.1411C11.7111 10.0899 10.7538 9.07234 9.69795 8.06764C9.67655 8.04734 9.65765 8.02364 9.64145 7.99664C9.62305 7.96514 9.60655 7.93864 9.59175 7.91724Z" fill="white" fill-opacity="0.4"/>
<path d="M16.1689 7.92651L12.9289 11.1878C12.9076 11.2092 12.8857 11.2099 12.8633 11.1901L12.8076 11.1412C12.8462 11.1463 12.8679 11.1242 12.8725 11.0748C12.9096 10.6789 12.9139 10.231 12.8854 9.73121C13.3084 8.90901 13.7908 8.27231 14.6794 7.93031L16.1689 7.92651Z" fill="white" fill-opacity="0.4"/>
<path d="M17.5386 7.93115L20.2166 7.93265L12.939 15.3179C12.9105 15.3062 12.8963 15.2724 12.8963 15.2164C12.8922 14.3441 12.8902 13.4773 12.8902 12.6162L17.5386 7.93115Z" fill="white" fill-opacity="0.4"/>
<path d="M20.1221 11.0212L20.1313 12.9634L16.3875 16.7026L14.5103 16.6957L20.1221 11.0212Z" fill="white" fill-opacity="0.4"/>
<path d="M5.63696 11.0396L5.63776 12.9717L1.86726 16.7001C1.31196 16.7083 0.725457 16.7051 0.107557 16.6903C0.0658573 16.6893 0.044457 16.6773 0.043457 16.6544C0.598457 16.0949 1.14506 15.4857 1.74206 14.9726C1.84816 14.881 1.91686 14.7581 2.00546 14.6711C2.59126 14.0899 3.17316 13.5046 3.75136 12.9153C3.80936 12.8557 3.84906 12.7869 3.90246 12.7327C4.47656 12.1586 5.05476 11.5943 5.63696 11.0396Z" fill="white" fill-opacity="0.4"/>
<path d="M5.63725 11.0396L11.2215 16.6697C11.2337 16.6819 11.2336 16.6939 11.2208 16.7056L11.2071 16.7192L9.38095 16.7108L5.63795 12.9717L5.63725 11.0396Z" fill="white" fill-opacity="0.4"/>
<path d="M20.1221 11.0212L25.7385 16.7094L23.8659 16.7079L20.1313 12.9634L20.1221 11.0212Z" fill="white" fill-opacity="0.4"/>
<path d="M7.98376 16.6965L7.00886 16.7049C6.34116 16.4173 5.88486 15.9613 5.64006 15.3368L5.62936 14.3582L7.98376 16.6965Z" fill="white" fill-opacity="0.4"/>
<path d="M20.1573 14.385L20.1306 15.3256C19.8441 15.947 19.3921 16.4055 18.7748 16.7012L17.774 16.6951C18.5608 15.917 19.3329 15.1436 20.0902 14.3751C20.0998 14.3655 20.1105 14.3591 20.1222 14.356C20.1573 14.3484 20.169 14.3581 20.1573 14.385Z" fill="white" fill-opacity="0.4"/>
<path d="M5.62915 14.3582L5.63985 15.3368C5.35585 15.9639 4.88975 16.4199 4.24135 16.7049H3.27635L5.62915 14.3582Z" fill="white" fill-opacity="0.4"/>
<path d="M20.1571 14.385C20.6114 14.782 21.1244 15.3614 21.4084 15.6446C21.759 15.9933 22.1133 16.3388 22.471 16.6814C22.4873 16.6966 22.4769 16.7266 22.4397 16.7714L22.3222 16.7165C22.3003 16.7063 22.2771 16.7012 22.2527 16.7012L21.4603 16.7058C21.3544 16.6411 21.2435 16.5699 21.1274 16.492C20.6852 16.1943 20.3528 15.8055 20.1304 15.3255L20.1571 14.385Z" fill="white" fill-opacity="0.4"/>
<path d="M37.4696 18.5799L37.4688 15.2133C37.4688 15.2001 37.4757 15.1935 37.4894 15.1935L38.055 15.1919C38.0608 15.1919 38.0661 15.1942 38.0701 15.1982C38.0742 15.2022 38.0765 15.2076 38.0765 15.2133L38.0773 19.9869C38.0773 20.0454 38.0569 20.0536 38.0162 20.0113L34.5618 16.3974C34.5582 16.3938 34.5536 16.3913 34.5487 16.3903C34.5437 16.3893 34.5386 16.3897 34.5339 16.3916C34.5292 16.3935 34.5251 16.3967 34.5222 16.4008C34.5193 16.4049 34.5176 16.4099 34.5175 16.4149L34.5228 19.8587C34.5228 19.8704 34.5167 19.8762 34.5045 19.8762L33.9747 19.8739C33.962 19.8739 33.9556 19.8673 33.9556 19.8541L33.9671 15.1003C33.9671 15.0209 33.9944 15.01 34.0494 15.0675L37.4169 18.6013C37.452 18.638 37.4696 18.6308 37.4696 18.5799Z" fill="white" fill-opacity="0.4"/>
<path d="M83.2754 18.589L83.2744 15.2185C83.2744 15.2121 83.2774 15.2058 83.2814 15.2013C83.2864 15.1967 83.2924 15.1941 83.2994 15.1941L83.8584 15.1918C83.8644 15.1918 83.8704 15.1944 83.8754 15.199C83.8794 15.2036 83.8824 15.2098 83.8824 15.2163L83.8834 20.0067C83.8834 20.0115 83.8814 20.0162 83.8794 20.0202C83.8764 20.0243 83.8724 20.0274 83.8674 20.0292C83.8634 20.031 83.8584 20.0314 83.8534 20.0304C83.8484 20.0293 83.8444 20.0269 83.8414 20.0235L80.3764 16.4018C80.3724 16.3983 80.3684 16.3959 80.3634 16.3949C80.3584 16.3939 80.3544 16.3943 80.3494 16.3961C80.3454 16.3979 80.3414 16.401 80.3384 16.405C80.3354 16.409 80.3344 16.4138 80.3344 16.4186L80.3354 19.8532C80.3354 19.8597 80.3334 19.8659 80.3284 19.8705C80.3234 19.8751 80.3174 19.8776 80.3114 19.8776L79.7934 19.8723C79.7874 19.8723 79.7804 19.8697 79.7764 19.8651C79.7714 19.8606 79.7694 19.8543 79.7694 19.8479L79.7674 15.0269C79.7674 15.0221 79.7694 15.0173 79.7714 15.0133C79.7744 15.0093 79.7784 15.0062 79.7834 15.0044C79.7874 15.0026 79.7924 15.0022 79.7974 15.0032C79.8024 15.0042 79.8064 15.0066 79.8094 15.0101L83.2334 18.6058C83.2364 18.6093 83.2414 18.6117 83.2464 18.6127C83.2504 18.6137 83.2554 18.6133 83.2604 18.6115C83.2644 18.6097 83.2684 18.6066 83.2714 18.6026C83.2744 18.5986 83.2754 18.5939 83.2754 18.589Z" fill="white" fill-opacity="0.4"/>
<path d="M58.8023 18.699H56.6572C56.6524 18.699 56.6476 18.7003 56.6436 18.7029C56.6395 18.7055 56.6363 18.7091 56.6343 18.7135L56.1037 19.8624C56.1016 19.8668 56.0984 19.8705 56.0944 19.873C56.0903 19.8756 56.0856 19.877 56.0808 19.8769L55.5182 19.8731C55.514 19.8731 55.5099 19.872 55.5063 19.87C55.5027 19.868 55.4996 19.8652 55.4973 19.8617C55.495 19.8582 55.4937 19.8542 55.4933 19.8501C55.4929 19.846 55.4936 19.8418 55.4953 19.838L57.7 15.0491C57.702 15.0447 57.7052 15.041 57.7093 15.0384C57.7133 15.0358 57.7181 15.0344 57.7229 15.0344C57.7277 15.0344 57.7324 15.0358 57.7365 15.0384C57.7406 15.041 57.7438 15.0447 57.7458 15.0491L59.9337 19.8388C59.9355 19.8426 59.9363 19.8469 59.9361 19.8511C59.9358 19.8553 59.9344 19.8594 59.9321 19.863C59.9299 19.8666 59.9267 19.8695 59.923 19.8716C59.9192 19.8736 59.9151 19.8747 59.9108 19.8746L59.3612 19.8754C59.3563 19.8754 59.3515 19.8739 59.3474 19.8712C59.3434 19.8685 59.3402 19.8646 59.3383 19.8601L58.8253 18.7143C58.8233 18.7098 58.8201 18.7059 58.8161 18.7032C58.812 18.7005 58.8072 18.699 58.8023 18.699ZM56.919 18.1402C56.9172 18.1444 56.9165 18.149 56.917 18.1536C56.9174 18.1581 56.919 18.1625 56.9216 18.1663C56.9242 18.1701 56.9277 18.1732 56.9318 18.1753C56.9358 18.1774 56.9404 18.1785 56.945 18.1783L58.5229 18.1593C58.5275 18.1592 58.532 18.1579 58.5359 18.1557C58.5399 18.1535 58.5432 18.1503 58.5457 18.1464C58.5481 18.1425 58.5495 18.1381 58.5498 18.1336C58.5501 18.129 58.5493 18.1245 58.5474 18.1203L57.7359 16.2973C57.7337 16.2924 57.7301 16.2883 57.7255 16.2854C57.721 16.2826 57.7158 16.2811 57.7104 16.2812C57.7051 16.2813 57.6999 16.2829 57.6954 16.2859C57.691 16.2889 57.6875 16.2931 57.6855 16.2981L56.919 18.1402Z" fill="white" fill-opacity="0.4"/>
<path d="M66.8415 18.5929L66.8392 15.2056C66.8392 15.1975 66.8433 15.1934 66.8515 15.1934L67.3691 15.1904C67.3714 15.1903 67.3738 15.1906 67.376 15.1915C67.3782 15.1923 67.3803 15.1936 67.382 15.1952C67.3837 15.1969 67.385 15.1988 67.386 15.201C67.3869 15.2032 67.3874 15.2055 67.3874 15.2079L67.3881 20.0075C67.3881 20.0334 67.3792 20.037 67.3614 20.0182L63.9543 16.4416C63.8988 16.3831 63.8711 16.3943 63.8711 16.4752L63.8696 19.8518C63.8696 19.858 63.8671 19.864 63.8626 19.8685C63.8582 19.8729 63.8522 19.8754 63.8459 19.8754H63.31C63.3043 19.8754 63.2989 19.8732 63.2949 19.8692C63.2909 19.8651 63.2886 19.8597 63.2886 19.854V15.0239C63.2888 15.0191 63.2903 15.0144 63.293 15.0104C63.2958 15.0064 63.2996 15.0033 63.304 15.0015C63.3085 14.9997 63.3133 14.9993 63.3179 15.0003C63.3225 15.0013 63.3266 15.0037 63.3298 15.0071L66.782 18.6166C66.8217 18.6583 66.8415 18.6504 66.8415 18.5929Z" fill="white" fill-opacity="0.4"/>
<path d="M69.9705 16.8142C69.9676 16.8127 69.9645 16.8119 69.9612 16.8119C69.958 16.8118 69.9548 16.8126 69.9519 16.814C69.949 16.8154 69.9465 16.8174 69.9446 16.82C69.9426 16.8226 69.9413 16.8256 69.9407 16.8287L69.4033 19.8427C69.3997 19.864 69.3872 19.8747 69.3659 19.8747H68.804L68.7987 19.8736L68.7944 19.8704L68.7919 19.8656L68.7918 19.8602L69.7346 15.1355C69.7554 15.0291 69.7873 15.0258 69.83 15.1255L71.3347 18.635C71.3576 18.6889 71.3807 18.6889 71.4042 18.635L72.9544 15.0622C72.9664 15.0342 72.9754 15.035 72.9814 15.0645L73.9404 19.8511C73.9404 19.8545 73.9404 19.8581 73.9404 19.8615C73.9394 19.865 73.9374 19.8681 73.9354 19.8708C73.9324 19.8736 73.9304 19.8757 73.9264 19.8772C73.9234 19.8787 73.9204 19.8794 73.9164 19.8793L73.3444 19.8724C73.3394 19.8724 73.3354 19.8696 73.3344 19.864L72.7984 16.8822C72.7834 16.7992 72.7564 16.7951 72.7174 16.8699C72.6774 16.9463 72.6634 17.0623 72.6244 17.1509C72.2404 18.0115 71.8296 18.9289 71.3904 19.903C71.3696 19.9488 71.3497 19.9485 71.3309 19.9022C71.1423 19.4503 70.9057 18.9968 70.743 18.5189C70.5568 17.9731 70.2697 17.4211 70.0354 16.8906C70.0191 16.8549 69.9974 16.8295 69.9705 16.8142Z" fill="white" fill-opacity="0.4"/>
<path d="M30.4983 15.7416L30.4975 17.0042C30.4975 17.0113 30.5004 17.0181 30.5054 17.0231C30.5104 17.0281 30.5172 17.031 30.5243 17.031L32.345 17.0325C32.3521 17.0325 32.3589 17.0353 32.3639 17.0403C32.3689 17.0453 32.3717 17.0521 32.3717 17.0592L32.371 17.5409C32.371 17.5444 32.3703 17.5479 32.3689 17.5511C32.3676 17.5544 32.3656 17.5573 32.3631 17.5598C32.3606 17.5623 32.3577 17.5643 32.3545 17.5656C32.3512 17.5669 32.3477 17.5676 32.3442 17.5676H30.525C30.5179 17.5676 30.5111 17.5704 30.5061 17.5755C30.5011 17.5805 30.4983 17.5873 30.4983 17.5944V19.312C30.4983 19.3191 30.5011 19.3259 30.5061 19.3309C30.5111 19.3359 30.5179 19.3387 30.525 19.3387H32.3992C32.4063 19.3387 32.4131 19.3416 32.4181 19.3466C32.4231 19.3516 32.4258 19.3584 32.4258 19.3655L32.4305 19.8479C32.4305 19.855 32.4277 19.8618 32.4227 19.8668C32.4177 19.8718 32.4109 19.8747 32.4038 19.8747L29.9372 19.8754C29.9301 19.8754 29.9233 19.8726 29.9183 19.8676C29.9133 19.8626 29.9104 19.8558 29.9104 19.8487L29.9097 15.2186C29.9097 15.2115 29.9124 15.2047 29.9174 15.1997C29.9224 15.1947 29.9293 15.1919 29.9364 15.1919L32.403 15.1927C32.4101 15.1927 32.4169 15.1955 32.4219 15.2005C32.4269 15.2055 32.4297 15.2123 32.4297 15.2194L32.4274 15.6957C32.4274 15.7028 32.4246 15.7096 32.4196 15.7146C32.4146 15.7197 32.4078 15.7225 32.4007 15.7225L30.525 15.7148C30.5179 15.7148 30.5111 15.7176 30.5061 15.7227C30.5011 15.7277 30.4983 15.7345 30.4983 15.7416Z" fill="white" fill-opacity="0.4"/>
<path d="M41.0365 15.7362L41.0358 19.8502C41.0358 19.8534 41.0352 19.8566 41.034 19.8596C41.0327 19.8625 41.0308 19.8652 41.0286 19.8675C41.0263 19.8698 41.0236 19.8716 41.0207 19.8728C41.0177 19.874 41.0145 19.8747 41.0113 19.8747L40.4494 19.8754C40.443 19.8754 40.4368 19.8729 40.4323 19.8683C40.4277 19.8637 40.425 19.8575 40.425 19.851V15.7416C40.425 15.7383 40.4244 15.7352 40.4231 15.7322C40.4219 15.7292 40.4201 15.7265 40.4178 15.7243C40.4156 15.722 40.413 15.7202 40.41 15.719C40.4071 15.7178 40.4039 15.7171 40.4007 15.7171L39.3548 15.7217C39.3483 15.7217 39.342 15.7191 39.3374 15.7145C39.3328 15.71 39.3303 15.7038 39.3303 15.6973L39.3242 15.2163C39.3242 15.2098 39.3267 15.2036 39.3313 15.199C39.3359 15.1945 39.3421 15.1919 39.3486 15.1919H42.0839C42.0904 15.1919 42.0966 15.1945 42.1012 15.199C42.1058 15.2036 42.1083 15.2098 42.1083 15.2163L42.1068 15.6996C42.1068 15.706 42.1042 15.7123 42.0996 15.7168C42.0951 15.7214 42.0889 15.724 42.0825 15.724L41.061 15.7118C41.0578 15.7118 41.0546 15.7124 41.0517 15.7136C41.0487 15.7149 41.0459 15.7167 41.0437 15.7189C41.0414 15.7212 41.0396 15.7239 41.0384 15.7269C41.0371 15.7298 41.0365 15.733 41.0365 15.7362Z" fill="white" fill-opacity="0.4"/>
<path d="M44.0327 15.743V17.005C44.0327 17.0121 44.0355 17.0188 44.0405 17.0239C44.0455 17.0289 44.0523 17.0317 44.0594 17.0317H45.8977C45.9012 17.0317 45.9047 17.0324 45.9079 17.0337C45.9112 17.0351 45.9141 17.037 45.9166 17.0395C45.9191 17.042 45.921 17.0449 45.9224 17.0482C45.9237 17.0514 45.9244 17.0549 45.9244 17.0584L45.9229 17.5455C45.9229 17.5525 45.9201 17.5593 45.9151 17.5644C45.9101 17.5694 45.9033 17.5722 45.8962 17.5722L44.0594 17.5676C44.0523 17.5676 44.0455 17.5704 44.0405 17.5754C44.0355 17.5804 44.0327 17.5872 44.0327 17.5943V19.3128C44.0327 19.3198 44.0355 19.3266 44.0405 19.3317C44.0455 19.3367 44.0523 19.3395 44.0594 19.3395L45.9435 19.3387C45.947 19.3387 45.9505 19.3394 45.9537 19.3407C45.957 19.3421 45.9599 19.3441 45.9624 19.3465C45.9649 19.349 45.9669 19.352 45.9682 19.3552C45.9695 19.3585 45.9702 19.3619 45.9702 19.3654V19.8479C45.9702 19.8514 45.9695 19.8549 45.9682 19.8581C45.9669 19.8614 45.9649 19.8643 45.9624 19.8668C45.9599 19.8693 45.957 19.8713 45.9537 19.8726C45.9505 19.8739 45.947 19.8746 45.9435 19.8746L43.5258 19.8754C43.5223 19.8754 43.5188 19.8747 43.5156 19.8734C43.5123 19.872 43.5094 19.87 43.5069 19.8676C43.5044 19.8651 43.5024 19.8621 43.5011 19.8589C43.4998 19.8557 43.4991 19.8522 43.4991 19.8487V15.2193C43.4991 15.2158 43.4998 15.2124 43.5011 15.2091C43.5024 15.2059 43.5044 15.2029 43.5069 15.2005C43.5094 15.198 43.5123 15.196 43.5156 15.1947C43.5188 15.1933 43.5223 15.1926 43.5258 15.1926H45.9473C45.9544 15.1926 45.9612 15.1954 45.9662 15.2005C45.9712 15.2055 45.974 15.2123 45.974 15.2193L45.9687 15.695C45.9687 15.702 45.9659 15.7088 45.9609 15.7138C45.9559 15.7189 45.9491 15.7217 45.942 15.7217L44.0594 15.7163C44.0523 15.7163 44.0455 15.7191 44.0405 15.7242C44.0355 15.7292 44.0327 15.736 44.0327 15.743Z" fill="white" fill-opacity="0.4"/>
<path d="M48.4094 17.9242L48.414 19.8442C48.414 19.8521 48.4109 19.8597 48.4053 19.8652C48.3997 19.8708 48.3921 19.874 48.3842 19.874L47.8644 19.877C47.856 19.877 47.8481 19.8737 47.8422 19.8678C47.8363 19.862 47.8331 19.854 47.8331 19.8457V15.2347C47.8331 15.2052 47.8478 15.1904 47.8773 15.1904C48.2667 15.1904 48.6517 15.195 49.0324 15.2042C49.9813 15.2271 50.6203 16.0523 50.3027 16.9677C50.166 17.3616 49.7912 17.7937 49.3438 17.8196C49.3359 17.8202 49.3282 17.8228 49.3216 17.8274C49.315 17.8319 49.3097 17.8381 49.3063 17.8453C49.3028 17.8525 49.3014 17.8605 49.3021 17.8685C49.3028 17.8765 49.3056 17.8841 49.3103 17.8906L50.7249 19.8602L50.7265 19.8647L50.7257 19.8695L50.7226 19.8732L50.718 19.8747L50.0439 19.8763C50.0312 19.8763 50.0212 19.8707 50.0141 19.8595C49.5963 19.1933 49.1517 18.5454 48.6804 17.9158C48.6746 17.9078 48.6669 17.9012 48.658 17.8967C48.6491 17.8922 48.6393 17.8899 48.6293 17.8899H48.4438C48.4204 17.8899 48.4089 17.9013 48.4094 17.9242ZM48.4148 15.7355L48.4087 17.3707C48.4087 17.377 48.4112 17.383 48.4156 17.3875C48.42 17.3919 48.4261 17.3944 48.4323 17.3944L48.9331 17.3959C49.0512 17.3964 49.1681 17.3771 49.2773 17.3392C49.3865 17.3013 49.4858 17.2456 49.5696 17.1751C49.6533 17.1046 49.7198 17.0208 49.7653 16.9285C49.8108 16.8362 49.8344 16.7372 49.8347 16.6371V16.4783C49.8354 16.2763 49.7414 16.0823 49.5735 15.9388C49.4056 15.7954 49.1775 15.7143 48.9392 15.7134L48.4384 15.7118C48.4322 15.7118 48.4261 15.7143 48.4217 15.7188C48.4173 15.7232 48.4148 15.7292 48.4148 15.7355Z" fill="white" fill-opacity="0.4"/>
<path d="M52.7321 15.7149L51.6442 15.7164C51.6367 15.7164 51.6295 15.7134 51.6242 15.7081C51.6189 15.7028 51.616 15.6956 51.616 15.6881L51.6114 15.2209C51.6114 15.2134 51.6143 15.2063 51.6196 15.201C51.6249 15.1957 51.6321 15.1927 51.6396 15.1927L54.4238 15.1912C54.4313 15.1912 54.4385 15.1941 54.4438 15.1994C54.4491 15.2047 54.452 15.2119 54.452 15.2194L54.449 15.6965C54.449 15.704 54.446 15.7112 54.4407 15.7165C54.4354 15.7218 54.4282 15.7248 54.4207 15.7248L53.3894 15.7118C53.3819 15.7118 53.3747 15.7148 53.3694 15.7201C53.3641 15.7254 53.3611 15.7326 53.3611 15.7401L53.3619 19.8457C53.3619 19.8532 53.3589 19.8604 53.3536 19.8657C53.3483 19.871 53.3411 19.8739 53.3336 19.8739L52.7886 19.8755C52.7848 19.8755 52.7812 19.8747 52.7777 19.8733C52.7743 19.8719 52.7712 19.8698 52.7686 19.8672C52.766 19.8646 52.7639 19.8614 52.7625 19.858C52.761 19.8546 52.7603 19.8509 52.7603 19.8472V15.7431C52.7603 15.7356 52.7573 15.7284 52.752 15.7231C52.7467 15.7178 52.7396 15.7149 52.7321 15.7149Z" fill="white" fill-opacity="0.4"/>
<path d="M86.8433 15.7385V19.8495C86.8433 19.8562 86.8403 19.8626 86.8363 19.8673C86.8313 19.872 86.8253 19.8747 86.8183 19.8747L86.2743 19.8754C86.2683 19.8754 86.2613 19.8728 86.2563 19.868C86.2523 19.8633 86.2494 19.8569 86.2494 19.8502V15.7393C86.2494 15.7326 86.2463 15.7262 86.2423 15.7214C86.2373 15.7167 86.2313 15.7141 86.2243 15.7141L85.1633 15.7186C85.1563 15.7186 85.1503 15.716 85.1453 15.7113C85.1403 15.7065 85.1384 15.7001 85.1384 15.6935L85.1313 15.2171C85.1313 15.2138 85.1323 15.2105 85.1333 15.2074C85.1353 15.2044 85.1374 15.2016 85.1394 15.1993C85.1414 15.1969 85.1443 15.1951 85.1473 15.1938C85.1503 15.1925 85.1533 15.1919 85.1573 15.1919L87.9034 15.1927C87.9094 15.1927 87.9163 15.1953 87.9203 15.2C87.9253 15.2048 87.9283 15.2112 87.9283 15.2179L87.9263 15.6973C87.9263 15.704 87.9234 15.7104 87.9184 15.7151C87.9134 15.7198 87.9073 15.7225 87.9003 15.7225L86.8683 15.7133C86.8623 15.7133 86.8553 15.716 86.8503 15.7207C86.8463 15.7254 86.8433 15.7318 86.8433 15.7385Z" fill="white" fill-opacity="0.4"/>
<path d="M61.7606 15.1919H61.2079C61.1969 15.1919 61.188 15.2008 61.188 15.2117V19.8563C61.188 19.8673 61.1969 19.8762 61.2079 19.8762H61.7606C61.7716 19.8762 61.7804 19.8673 61.7804 19.8563V15.2117C61.7804 15.2008 61.7716 15.1919 61.7606 15.1919Z" fill="white" fill-opacity="0.4"/>
<path d="M75.6364 19.8739C75.6494 19.2652 75.6524 18.687 75.6464 18.1394C75.6434 17.9424 75.6434 17.7713 75.6454 17.6348C75.6534 16.9523 75.6504 16.1596 75.6344 15.2568C75.6284 15.2471 75.6244 15.238 75.6244 15.2293C75.6224 15.2044 75.6344 15.1919 75.6594 15.1919L78.1374 15.1927C78.1484 15.1927 78.1594 15.1971 78.1664 15.2049C78.1744 15.2128 78.1794 15.2234 78.1794 15.2346L78.1854 15.6774C78.1854 15.684 78.1844 15.6905 78.1814 15.6966C78.1794 15.7028 78.1754 15.7083 78.1714 15.713C78.1664 15.7177 78.1614 15.7214 78.1554 15.724C78.1494 15.7265 78.1424 15.7278 78.1354 15.7278L76.2854 15.7209C76.2514 15.7209 76.2354 15.7377 76.2354 15.7713V16.9951C76.2354 17.02 76.2474 17.0325 76.2724 17.0325L78.1004 17.031C78.1134 17.031 78.1194 17.0371 78.1194 17.0493V17.5615C78.1194 17.5727 78.1134 17.5783 78.1024 17.5783L76.2854 17.573C76.2514 17.573 76.2354 17.5895 76.2354 17.6226L76.2364 19.3013C76.2364 19.3227 76.2474 19.3334 76.2684 19.3334L78.1364 19.3349C78.1414 19.3349 78.1474 19.336 78.1524 19.338C78.1574 19.34 78.1614 19.343 78.1654 19.3468C78.1694 19.3505 78.1724 19.355 78.1744 19.3599C78.1764 19.3648 78.1774 19.3701 78.1774 19.3754V19.8304C78.1774 19.8594 78.1624 19.8739 78.1324 19.8739H75.6364Z" fill="white" fill-opacity="0.4"/>
<path d="M75.6343 15.2568C75.6503 16.1597 75.6533 16.9524 75.6453 17.6349C75.6433 17.7714 75.6433 17.9424 75.6463 18.1395C75.6523 18.6871 75.6493 19.2653 75.6363 19.874L75.6343 15.2568Z" fill="white" fill-opacity="0.4"/>
<path d="M5.64025 15.3369C5.88505 15.9614 6.34135 16.4174 7.00905 16.7049C6.37085 16.9701 5.91405 17.431 5.63875 18.0875C5.33845 17.4325 4.87275 16.9716 4.24165 16.7049C4.89005 16.4199 5.35625 15.9639 5.64025 15.3369Z" fill="white" fill-opacity="0.4"/>
<path d="M20.1303 15.3254C20.3527 15.8054 20.685 16.1942 21.1273 16.4919C21.2433 16.5698 21.3543 16.6411 21.4601 16.7057C20.8738 17.0009 20.4306 17.465 20.1303 18.0982C19.832 17.462 19.3801 16.9963 18.7745 16.7011C19.3918 16.4054 19.8437 15.9469 20.1303 15.3254Z" fill="white" fill-opacity="0.4"/>
<path d="M0.0435647 16.6545C0.0445647 16.6774 0.065963 16.6894 0.107663 16.6904C0.725463 16.7052 1.31206 16.7085 1.86736 16.7003C2.47706 17.3101 3.08796 17.9114 3.70026 18.5043C3.78956 18.5906 3.87047 18.7211 3.97207 18.8188C4.52677 19.3542 5.07717 19.8934 5.62327 20.4365C5.63247 20.4451 5.64956 20.4505 5.67446 20.4525L5.65006 22.271C5.64956 22.2939 5.65897 22.3114 5.67827 22.3236C5.70167 22.3384 5.71487 22.3318 5.71797 22.3038C5.71186 22.345 5.69756 22.3733 5.67526 22.3885C5.65436 22.4033 5.63497 22.4015 5.61717 22.3832C5.26707 22.0295 4.91537 21.6775 4.56217 21.3274C3.70337 20.4754 2.84446 19.5677 1.96276 18.7089C1.90706 18.6547 1.86276 18.5715 1.80246 18.5127C1.21106 17.9284 0.619863 17.3454 0.0290631 16.7637C0.0249631 16.7597 0.0213648 16.7548 0.0183648 16.7492C-0.0127352 16.6953 -0.00433533 16.6637 0.0435647 16.6545Z" fill="white" fill-opacity="0.4"/>
<path d="M7.98386 16.6965L5.63326 19.0585L5.63866 18.0875C5.91396 17.4309 6.37076 16.9701 7.00896 16.7049L7.98386 16.6965Z" fill="white" fill-opacity="0.4"/>
<path d="M9.38075 16.7109L11.2068 16.7193C11.1906 16.7631 11.1646 16.8023 11.129 16.8369C10.5755 17.3782 10.0335 17.9301 9.49295 18.4851C8.84025 19.1561 8.17525 19.8127 7.52105 20.4814C6.92045 21.0947 6.31945 21.7021 5.71785 22.3037C5.71485 22.3317 5.70155 22.3383 5.67815 22.3235C5.65885 22.3113 5.64945 22.2938 5.64995 22.2709L5.67435 20.4524C5.71865 20.3982 5.73695 20.3295 5.78805 20.2791C6.37285 19.6984 6.96225 19.1226 7.55615 18.5515C7.59435 18.5141 7.62185 18.4454 7.66225 18.4049C8.23485 17.84 8.80765 17.2754 9.38075 16.7109Z" fill="white" fill-opacity="0.4"/>
<path d="M16.3875 16.7027L20.1336 20.451L20.145 22.3695C20.1557 22.3797 20.1539 22.3891 20.1397 22.3977C20.1265 22.4059 20.1142 22.4043 20.1031 22.3931L14.5103 16.6958L16.3875 16.7027Z" fill="white" fill-opacity="0.4"/>
<path d="M17.774 16.695L18.7748 16.7011C19.3804 16.9962 19.8324 17.4619 20.1306 18.0981L20.136 19.0676L17.7869 16.7408C17.7837 16.7375 17.7812 16.7335 17.7797 16.7291C17.7783 16.7247 17.7779 16.7201 17.7786 16.7156C17.7826 16.6876 17.7811 16.6807 17.774 16.695Z" fill="white" fill-opacity="0.4"/>
<path d="M4.24135 16.7048C4.87245 16.9715 5.33805 17.4324 5.63835 18.0874L5.63305 19.0584L3.27635 16.7048H4.24135Z" fill="white" fill-opacity="0.4"/>
<path d="M22.4397 16.7714L20.1358 19.0677L20.1304 18.0982C20.4307 17.4651 20.874 17.0009 21.4603 16.7058L22.2527 16.7012C22.2771 16.7012 22.3003 16.7063 22.3222 16.7164L22.4397 16.7714Z" fill="white" fill-opacity="0.4"/>
<path d="M23.8657 16.708L25.7383 16.7095L20.1448 22.3695L20.1333 20.451L23.8657 16.708Z" fill="white" fill-opacity="0.4"/>
<path d="M12.9407 18.3363C12.9051 18.3582 12.8872 18.4063 12.8872 18.4806C12.8877 19.8191 12.8877 21.1581 12.8872 22.4977L8.75256 22.5C8.72096 22.5 8.71616 22.4888 8.73806 22.4664L12.8529 18.2951C12.8601 18.2876 12.8698 18.2829 12.8801 18.2819C12.8905 18.281 12.9009 18.2837 12.9094 18.2897C12.9246 18.2999 12.9351 18.3154 12.9407 18.3363Z" fill="white" fill-opacity="0.4"/>
<path d="M12.9407 18.3364L17.0188 22.4604C17.0402 22.4823 17.0356 22.4932 17.0051 22.4932L12.8873 22.4978C12.8878 21.1583 12.8878 19.8192 12.8873 18.4807C12.8873 18.4064 12.9051 18.3583 12.9407 18.3364Z" fill="white" fill-opacity="0.4"/>
</svg>
