<svg width="48" height="29" viewBox="0 0 48 29" fill="none" xmlns="http://www.w3.org/2000/svg">
<mask id="mask0_18_308" style="mask-type:luminance" maskUnits="userSpaceOnUse" x="0" y="0" width="48" height="29">
<path d="M48 0.5H0V28.5H48V0.5Z" fill="white"/>
</mask>
<g mask="url(#mask0_18_308)">
<path d="M24.186 0.544388L24.9414 0.736517C26.133 1.03337 27.0307 1.74428 27.6707 2.81448C27.7 2.87279 27.7246 2.93352 27.7442 2.99604C27.7079 3.04877 27.6681 3.09885 27.6251 3.14591C26.906 3.82415 26.1851 4.5014 25.4298 5.2123C25.0716 4.5216 24.6381 3.94039 23.8893 3.75018C23.3768 3.60535 22.8332 3.62987 22.3349 3.82031C21.5237 4.14406 20.7033 4.9731 20.8214 6.5679C20.9014 7.6342 21.6028 8.593 22.5842 8.7774C23.7795 9.0032 24.7712 8.8303 25.5358 7.3854C25.8586 7.4872 27.2 8.4277 28.0028 9.1223C27.5879 9.9302 27.0363 10.6162 26.2744 11.1148C25.592 11.5628 24.8188 11.8426 24.0149 11.9323C22.6121 12.0937 21.2633 11.9169 20.0363 11.1311C18.5814 10.2002 17.8037 8.8255 17.5795 7.0962C17.4465 6.1583 17.528 5.2012 17.8177 4.30161C18.4977 2.26016 19.9014 1.05547 21.9321 0.637567C22.6746 0.489767 23.4345 0.458358 24.186 0.544388ZM25.9628 3.91445C26.1105 3.91193 26.2512 3.84903 26.3541 3.73954C26.457 3.63005 26.5136 3.48291 26.5116 3.33036C26.5096 3.25404 26.4931 3.17887 26.4629 3.10915C26.4328 3.03943 26.3896 2.97652 26.3359 2.92403C26.2822 2.87153 26.2191 2.83046 26.15 2.80318C26.081 2.77589 26.0074 2.76292 25.9335 2.765C25.8596 2.76708 25.7868 2.78418 25.7193 2.81531C25.6518 2.84644 25.5909 2.891 25.54 2.94644C25.4892 3.00188 25.4494 3.06712 25.423 3.13844C25.3966 3.20975 25.384 3.28574 25.386 3.36206C25.3933 3.51369 25.4577 3.65637 25.5655 3.75959C25.6732 3.86282 25.8158 3.9184 25.9628 3.91445ZM25.907 8.7034C25.7591 8.7094 25.6195 8.7759 25.519 8.8881C25.4186 9.0003 25.3654 9.1492 25.3712 9.302C25.3814 9.454 25.4476 9.5962 25.5563 9.6993C25.665 9.8024 25.8078 9.8586 25.9553 9.8563C26.1024 9.8429 26.2393 9.7736 26.3396 9.6617C26.4398 9.5498 26.4962 9.4034 26.4977 9.251C26.4867 9.0987 26.4191 8.9566 26.309 8.8545C26.1989 8.7524 26.0548 8.6983 25.907 8.7034ZM20.013 4.7551C20.0184 4.6792 20.0081 4.603 19.9828 4.5315C19.9575 4.46005 19.9179 4.39493 19.8664 4.34046C19.815 4.28598 19.753 4.2434 19.6844 4.2155C19.6159 4.18761 19.5424 4.17505 19.4688 4.17864C19.3211 4.17469 19.1776 4.23054 19.0692 4.33429C18.9607 4.43803 18.8958 4.5814 18.8884 4.7339C18.8809 5.0221 19.1609 5.3161 19.4465 5.3247C19.5939 5.3238 19.7353 5.264 19.8409 5.1578C19.9465 5.0516 20.0082 4.9072 20.013 4.7551ZM19.1758 5.7157C19.1024 5.7146 19.0296 5.7284 18.9614 5.7564C18.8932 5.7843 18.831 5.8259 18.7783 5.8788C18.7257 5.9316 18.6837 5.9946 18.6547 6.0642C18.6257 6.1338 18.6103 6.2087 18.6093 6.2845C18.6216 6.4358 18.6865 6.5775 18.792 6.6834C18.8974 6.7894 19.0364 6.8524 19.1832 6.8609C19.3323 6.8596 19.4749 6.7973 19.5795 6.6876C19.6842 6.5779 19.7424 6.4298 19.7414 6.2758C19.7427 6.2003 19.7288 6.1253 19.7008 6.0556C19.6727 5.9859 19.631 5.9229 19.5782 5.8706C19.5255 5.8183 19.4628 5.7778 19.3942 5.7516C19.3256 5.7255 19.2525 5.7142 19.1795 5.7186L19.1758 5.7157ZM20.013 7.8494C20.0067 7.697 19.9434 7.5531 19.8363 7.4481C19.7292 7.343 19.5868 7.2851 19.4391 7.2864C19.1544 7.3018 18.8809 7.6044 18.8874 7.8907C18.8977 8.0429 18.9653 8.1848 19.0757 8.2861C19.1862 8.3874 19.3306 8.4399 19.4781 8.4325C19.5513 8.4346 19.624 8.4209 19.6916 8.3921C19.7592 8.3633 19.8202 8.3201 19.8707 8.2654C19.9211 8.2107 19.9599 8.1456 19.9844 8.0745C20.0089 8.0033 20.0187 7.9276 20.013 7.8523V7.8494ZM19.7098 9.1252C19.7055 9.2784 19.7587 9.4274 19.8581 9.5412C19.9576 9.655 20.0957 9.7249 20.2437 9.7362C20.3915 9.7356 20.5339 9.6785 20.6435 9.576C20.7531 9.4735 20.8221 9.3328 20.8372 9.1809C20.841 9.0282 20.7866 8.88 20.6857 8.7682C20.5848 8.6565 20.4455 8.5901 20.2977 8.5834C20.2244 8.5792 20.1511 8.59 20.0819 8.6152C20.0127 8.6403 19.949 8.6793 19.8944 8.7299C19.8398 8.7805 19.7954 8.8417 19.7637 8.91C19.732 8.9783 19.7137 9.0524 19.7098 9.1281V9.1252ZM20.2679 4.03358C20.4159 4.03439 20.5584 3.97534 20.6648 3.86904C20.7712 3.76275 20.8331 3.61768 20.8372 3.46486C20.8305 3.31274 20.7684 3.16885 20.6633 3.06198C20.5583 2.95511 20.4181 2.89313 20.2707 2.88845C20.124 2.8928 19.9845 2.95493 19.8807 3.06209C19.7769 3.16926 19.7168 3.31336 19.7125 3.46486C19.712 3.54043 19.7262 3.61534 19.7541 3.68519C19.7821 3.75504 19.8232 3.81841 19.8752 3.87158C19.9272 3.92475 19.989 3.96664 20.0569 3.99479C20.1248 4.02294 20.1975 4.03678 20.2707 4.0355L20.2679 4.03358ZM21.5451 9.5344C21.471 9.5267 21.3961 9.5347 21.3251 9.5579C21.254 9.5811 21.1883 9.619 21.1319 9.6693C21.0756 9.7196 21.0297 9.7813 20.9972 9.8505C20.9647 9.9197 20.9462 9.9951 20.9428 10.0719C20.9395 10.1488 20.9513 10.2256 20.9777 10.2975C21.004 10.3695 21.0443 10.4352 21.0961 10.4905C21.1478 10.5459 21.21 10.5897 21.2787 10.6194C21.3474 10.6491 21.4213 10.664 21.4958 10.6632C21.5688 10.6691 21.6423 10.6596 21.7116 10.6353C21.781 10.611 21.8448 10.5724 21.8993 10.5218C21.9538 10.4712 21.9977 10.4097 22.0284 10.341C22.0592 10.2724 22.0761 10.198 22.0781 10.1224C22.0828 10.0474 22.0726 9.9722 22.0481 9.9015C22.0236 9.8307 21.9853 9.7659 21.9357 9.711C21.886 9.6561 21.826 9.6123 21.7593 9.5822C21.6926 9.5522 21.6207 9.5366 21.5479 9.5364L21.5451 9.5344ZM21.4521 3.0777C21.5235 3.08691 21.5959 3.08151 21.6653 3.0618C21.7347 3.04209 21.7996 3.00846 21.8564 2.96283C21.9132 2.9172 21.9608 2.86046 21.9963 2.79586C22.0319 2.73126 22.0548 2.66006 22.0637 2.58632C22.0726 2.51258 22.0674 2.43774 22.0483 2.36609C22.0292 2.29444 21.9967 2.22737 21.9525 2.16872C21.9083 2.11007 21.8534 2.06098 21.7908 2.02425C21.7282 1.98752 21.6593 1.96388 21.5879 1.95467C21.4412 1.93632 21.2934 1.97728 21.1753 2.06896C21.0572 2.16064 20.9781 2.29594 20.9544 2.44654C20.9126 2.73858 21.1563 3.04696 21.4549 3.07963L21.4521 3.0777ZM24.6381 10.7631C24.7101 10.7631 24.7813 10.7485 24.8478 10.7201C24.9143 10.6916 24.9747 10.65 25.0256 10.5974C25.0764 10.5449 25.1168 10.4825 25.1443 10.4138C25.1719 10.3452 25.186 10.2716 25.186 10.1973C25.186 10.123 25.1719 10.0494 25.1443 9.9808C25.1168 9.9121 25.0764 9.8497 25.0256 9.7972C24.9747 9.7447 24.9143 9.703 24.8478 9.6745C24.7813 9.6461 24.7101 9.6315 24.6381 9.6315C24.5649 9.6298 24.4922 9.6433 24.4241 9.6713C24.3561 9.6992 24.2942 9.741 24.2422 9.7942C24.1901 9.8473 24.1489 9.9107 24.121 9.9806C24.0932 10.0506 24.0792 10.1255 24.08 10.2011C24.0787 10.2769 24.0924 10.3522 24.1203 10.4223C24.1481 10.4924 24.1897 10.5559 24.2422 10.6088C24.2948 10.6618 24.3572 10.703 24.4258 10.73C24.4944 10.7571 24.5676 10.7693 24.6409 10.766L24.6381 10.7631ZM23.6381 10.4615C23.6386 10.3859 23.6237 10.3111 23.5945 10.2419C23.5652 10.1726 23.5223 10.1104 23.4684 10.0593C23.4146 10.0082 23.3509 9.9693 23.2816 9.9451C23.2123 9.9209 23.1389 9.9119 23.066 9.9187C22.919 9.9232 22.7794 9.9863 22.6765 10.0949C22.5737 10.2035 22.5156 10.349 22.5144 10.5009C22.5275 10.6521 22.5955 10.7927 22.7047 10.8944C22.8139 10.9961 22.9562 11.0515 23.1032 11.0494C23.176 11.0485 23.2479 11.0324 23.3146 11.0023C23.3813 10.9722 23.4415 10.9286 23.4916 10.8741C23.5417 10.8195 23.5808 10.7552 23.6064 10.6848C23.632 10.6145 23.6438 10.5395 23.6409 10.4644L23.6381 10.4615ZM24.6233 1.84899C24.5498 1.84847 24.477 1.8632 24.4092 1.89231C24.3414 1.92142 24.2799 1.96431 24.2285 2.01844C24.177 2.07257 24.1366 2.13683 24.1097 2.2074C24.0828 2.27797 24.0699 2.35341 24.0717 2.42924C24.0736 2.50506 24.0902 2.57972 24.1206 2.64879C24.151 2.71785 24.1945 2.7799 24.2485 2.83125C24.3026 2.88261 24.3661 2.92221 24.4352 2.94771C24.5044 2.97322 24.5778 2.9841 24.6512 2.97971C24.7246 2.98024 24.7974 2.96551 24.8652 2.9364C24.933 2.90729 24.9945 2.86439 25.0459 2.81026C25.0974 2.75613 25.1378 2.69187 25.1647 2.6213C25.1916 2.55073 25.2045 2.47529 25.2027 2.39947C25.2008 2.32364 25.1842 2.24898 25.1538 2.17992C25.1234 2.11086 25.0799 2.04881 25.0259 1.99745C24.9718 1.9461 24.9083 1.9065 24.8392 1.88099C24.77 1.85549 24.6966 1.84461 24.6233 1.84899ZM23.1051 2.69343C23.1782 2.695 23.2509 2.68074 23.3184 2.65155C23.3858 2.62236 23.4466 2.5789 23.4969 2.52396C23.5471 2.46902 23.5856 2.40383 23.6099 2.33258C23.6343 2.26134 23.6439 2.18561 23.6381 2.1103C23.6362 2.03518 23.6198 1.96122 23.5898 1.89276C23.5598 1.82431 23.5168 1.76275 23.4634 1.71172C23.41 1.66069 23.3473 1.62121 23.2789 1.59562C23.2104 1.57003 23.1378 1.55884 23.0651 1.56271C22.9184 1.5714 22.7802 1.63699 22.6783 1.74635C22.5763 1.85572 22.5181 2.0008 22.5153 2.15257C22.5263 2.30496 22.5943 2.44694 22.7049 2.54844C22.8155 2.64994 22.9601 2.70298 23.1079 2.69631L23.1051 2.69343Z" fill="white" fill-opacity="0.4"/>
<path d="M0 17.7405L0.1702 17.0565C0.6288 15.2158 2.1237 14.1427 3.96 14.3349C4.638 14.4103 5.2918 14.6382 5.8753 15.0025V17.4369C5.6093 17.3226 5.3944 17.2131 5.1684 17.1381C4.8497 17.0174 4.5209 16.9276 4.186 16.8701C3.2353 16.751 2.5293 17.5426 2.84 18.704C2.9346 19.0099 3.1056 19.2846 3.3358 19.5004C4.027 20.2133 4.6874 20.9597 5.4074 21.6379C6.3507 22.5275 6.5433 23.6467 6.454 24.8716C6.4288 25.2061 6.3702 25.5371 6.2791 25.8592C6.0905 26.5404 5.708 27.1474 5.1811 27.6012C4.6543 28.055 4.0074 28.3348 3.3247 28.404C3.1758 28.4213 3.0307 28.4674 2.8837 28.5001H2.2326C2.1212 28.4607 2.0074 28.4286 1.8921 28.404C1.3023 28.3252 0.746999 28.1523 0.265099 27.8055C0.185099 27.1446 0.210199 25.3202 0.303299 24.9792C0.495799 25.1156 0.680001 25.2588 0.875301 25.3836C1.3173 25.6856 1.8398 25.8368 2.3693 25.8159C3.5293 25.7497 4.0772 24.6631 3.426 23.6659C3.2214 23.3528 2.9405 23.0895 2.6744 22.8234C2.2195 22.3681 1.7321 21.9463 1.2902 21.4785C0.719999 20.8752 0.298599 20.1729 0.120899 19.3342C0.0883992 19.1853 0.0409 19.0393 0 18.8914V17.7405Z" fill="white" fill-opacity="0.4"/>
<path d="M48 1.02458C47.9375 1.08803 47.8803 1.1568 47.8289 1.23017C46.761 3.08748 45.6931 4.9448 44.6252 6.8021C44.5129 6.9922 44.4564 7.2117 44.4624 7.4342C44.468 8.7792 44.4624 10.1242 44.4624 11.4691V11.9581H41.0791C41.0735 11.8063 41.0642 11.6536 41.0642 11.5008C41.0642 10.2202 41.0503 8.9396 41.0707 7.6581C41.0775 7.2758 40.976 6.8999 40.7787 6.5764C39.7824 4.8625 38.7991 3.14 37.8121 1.42038C37.7349 1.28589 37.6661 1.14659 37.5721 0.971736H41.4028L42.7563 3.87781C43.2735 2.89407 43.6559 1.90937 44.1591 0.931396H48V1.02458ZM43.3275 10.494C43.1712 10.0358 42.9898 9.8878 42.6531 9.9435C42.5216 9.9606 42.4013 10.0285 42.3164 10.1335C42.2315 10.2384 42.1882 10.3728 42.1954 10.5094C42.1962 10.646 42.2439 10.7779 42.3302 10.8815C42.4164 10.9852 42.5354 11.0538 42.6661 11.0752C42.9647 11.1319 43.1833 10.9398 43.3275 10.494ZM43.7126 6.0268C43.8605 6.0218 44.0006 5.9574 44.1032 5.8472C44.2057 5.737 44.2625 5.5898 44.2614 5.437C44.2571 5.2821 44.1934 5.1353 44.0843 5.0289C43.9752 4.9225 43.8296 4.8652 43.6796 4.8697C43.5296 4.8742 43.3874 4.94 43.2844 5.0527C43.1814 5.1654 43.126 5.3157 43.1303 5.4706C43.1396 5.6228 43.2053 5.7655 43.3137 5.8691C43.4221 5.9726 43.5649 6.0291 43.7126 6.0268ZM39.6196 2.24177C39.6142 2.39432 39.6669 2.54298 39.7664 2.65591C39.8658 2.76885 40.0041 2.83709 40.1517 2.84603C40.2991 2.84204 40.4401 2.78299 40.5485 2.67982C40.657 2.57666 40.7255 2.43638 40.7414 2.285C40.7418 2.13233 40.6852 1.9854 40.5833 1.8748C40.4814 1.7642 40.3421 1.69847 40.1945 1.6913C40.121 1.68607 40.0472 1.69636 39.9777 1.72155C39.9081 1.74674 39.8443 1.7863 39.7901 1.83782C39.7358 1.88933 39.6923 1.95172 39.6622 2.02117C39.6321 2.09062 39.616 2.16568 39.6149 2.24177H39.6196ZM44.5433 4.40042C44.6906 4.40278 44.833 4.3455 44.9399 4.24082C45.0468 4.13614 45.1098 3.99239 45.1154 3.84034C45.1034 3.68891 45.0395 3.54688 44.9351 3.43981C44.8307 3.33273 44.6928 3.26764 44.5461 3.25625C44.3987 3.25824 44.2578 3.3196 44.1536 3.42727C44.0493 3.53494 43.9899 3.6804 43.988 3.83265C43.9836 3.90847 43.9949 3.98437 44.021 4.05535C44.0472 4.12634 44.0876 4.19078 44.1397 4.24444C44.1917 4.29809 44.2542 4.33974 44.323 4.36663C44.3917 4.39351 44.4652 4.40503 44.5387 4.40042H44.5433ZM40.4577 3.86435C40.4558 4.01728 40.5114 4.16502 40.6126 4.2766C40.7139 4.38817 40.8531 4.45493 41.001 4.46286C41.1485 4.45806 41.2891 4.39765 41.3964 4.29305C41.5037 4.18844 41.5702 4.04688 41.5833 3.8951C41.5833 3.74355 41.5255 3.59809 41.4225 3.49021C41.3194 3.38233 41.1793 3.32071 41.0326 3.31869C40.9594 3.31334 40.886 3.32339 40.8167 3.34824C40.7474 3.37308 40.6838 3.41221 40.6296 3.46323C40.5754 3.51426 40.5318 3.57613 40.5015 3.64508C40.4711 3.71403 40.4547 3.78863 40.4531 3.86435H40.4577ZM45.3749 1.68841C45.2271 1.6866 45.084 1.74249 44.9743 1.8449C44.8646 1.94731 44.7964 2.0887 44.7833 2.2408C44.7799 2.39518 44.8355 2.54474 44.9379 2.65717C45.0404 2.76961 45.1816 2.83588 45.3311 2.84169C45.4805 2.84749 45.6261 2.79236 45.7365 2.68819C45.8469 2.58403 45.9131 2.4392 45.921 2.285C45.9205 2.13169 45.8631 1.98442 45.7607 1.87346C45.6582 1.76249 45.5185 1.69627 45.3703 1.68841H45.3749ZM43.3284 8.6889C43.1814 8.223 43.0121 8.0779 42.6698 8.1221C42.5391 8.1374 42.4188 8.2029 42.3326 8.3056C42.2465 8.4083 42.2008 8.5406 42.2047 8.6764C42.2041 8.8128 42.2497 8.9451 42.3336 9.0503C42.4176 9.1556 42.5345 9.2272 42.6642 9.2528C42.9563 9.3162 43.1721 9.1356 43.3238 8.6889H43.3284ZM42.201 6.9597C42.2052 7.1112 42.2653 7.2553 42.3691 7.3624C42.4729 7.4696 42.6124 7.5317 42.7591 7.5361C43.0382 7.5361 43.3321 7.2287 43.3284 6.9472C43.3221 6.7947 43.2582 6.6509 43.1504 6.5465C43.0426 6.4422 42.8994 6.3856 42.7517 6.389C42.678 6.3842 42.6042 6.3955 42.535 6.4222C42.4659 6.4489 42.403 6.4905 42.3506 6.5441C42.2981 6.5978 42.2572 6.6623 42.2307 6.7334C42.2041 6.8045 42.1924 6.8807 42.1963 6.9568L42.201 6.9597ZM42.4112 5.436C42.2252 4.9893 41.9917 4.8125 41.6977 4.8923C41.5694 4.9259 41.4566 5.0048 41.3788 5.1154C41.3009 5.2259 41.263 5.3611 41.2717 5.4975C41.2791 5.6257 41.3286 5.7475 41.4119 5.8428C41.4953 5.9381 41.6075 6.0013 41.7303 6.022C42.0466 6.0768 42.2456 5.9077 42.4066 5.4331L42.4112 5.436Z" fill="white" fill-opacity="0.4"/>
<path d="M40.9116 28.2369H38.3414C38.2484 27.819 38.2484 14.9113 38.3414 14.5087C38.4446 14.502 38.5516 14.4905 38.6586 14.4905C39.386 14.4905 40.1125 14.4905 40.8567 14.4905C40.9674 14.8863 40.9014 15.2686 40.9125 15.6433C40.9237 16.018 40.9125 16.4118 40.9125 16.7961V20.2478L40.9897 20.268C41.8375 18.3466 42.6843 16.4279 43.5302 14.5116H46.3646L43.5804 20.7801L46.426 28.1696C46.0958 28.2887 44.5311 28.3233 43.5423 28.234C42.6995 26.1157 41.8456 23.9686 40.9907 21.8214L40.9088 21.8397L40.9116 28.2369Z" fill="white" fill-opacity="0.4"/>
<path d="M14.4316 28.2665V14.548C14.4875 14.5221 14.5144 14.498 14.5414 14.498C15.8437 14.5211 17.1461 14.5144 18.4428 14.5884C18.9256 14.6153 19.4177 14.7805 19.8707 14.9726C20.9005 15.4107 21.387 16.2964 21.5535 17.3868C21.6663 18.1151 21.6537 18.8582 21.5163 19.582C21.3033 20.6992 20.7256 21.5081 19.6809 21.9318C19.6391 21.9491 19.6009 21.9769 19.5079 22.0279L22.0763 28.2579H19.2037L17.0949 22.832H17.0316V28.2646L14.4316 28.2665ZM17.054 20.4696C17.2168 20.4696 17.3535 20.4754 17.4884 20.4696C18.3321 20.4303 18.8568 20.0047 19.0056 19.1458C19.0786 18.7236 19.0786 18.2913 19.0056 17.8691C18.8298 16.9084 18.0354 16.4559 17.0521 16.7307L17.054 20.4696Z" fill="white" fill-opacity="0.4"/>
<path d="M37.6623 28.2685H34.9469L34.4818 25.8668H33.1888H31.84C31.6056 26.643 31.5721 27.4615 31.3637 28.2685H28.666L31.813 14.5144H34.6669C35.6595 19.0853 36.6576 23.661 37.6623 28.2685ZM32.3079 23.6678H34.0028C33.7237 21.6744 33.4446 19.7059 33.159 17.7336C32.8772 19.6963 32.5963 21.6542 32.3079 23.6678Z" fill="white" fill-opacity="0.4"/>
<path d="M12.8372 0.96582H16.1627C16.1702 1.12914 16.1851 1.28284 16.1851 1.43655C16.1851 3.55005 16.1851 5.6636 16.1851 7.777C16.1851 9.8713 15.0772 11.3537 13.0976 11.8206C11.7702 12.1328 10.4446 12.0828 9.1906 11.4497C7.9813 10.8368 7.3413 9.7897 7.1627 8.4313C7.1213 8.0662 7.1027 7.6988 7.1069 7.3313C7.1023 5.3936 7.1069 3.4559 7.1069 1.51917V0.97255H10.4939V1.49323C10.4939 3.39826 10.4939 5.3043 10.4939 7.2093C10.4973 7.5125 10.525 7.8148 10.5767 8.1133C10.5994 8.3073 10.6875 8.4868 10.8257 8.6203C10.9638 8.7539 11.1431 8.8328 11.332 8.8434C11.6224 8.8705 11.915 8.8498 12.199 8.7819C12.4911 8.7137 12.6641 8.4639 12.7265 8.1661C12.7913 7.8714 12.8284 7.5709 12.8372 7.2688C12.8465 5.3475 12.8372 3.42612 12.8372 1.50476V0.96582ZM14.6427 6.5839C14.4948 6.5767 14.3501 6.6294 14.2392 6.7308C14.1284 6.8321 14.0602 6.9742 14.0493 7.1267C14.0484 7.2792 14.1036 7.4264 14.2037 7.5386C14.3039 7.6508 14.4415 7.7195 14.5888 7.7309C14.7363 7.737 14.8802 7.6832 14.9897 7.581C15.0993 7.4788 15.1657 7.3364 15.1748 7.1843C15.1811 7.0319 15.1287 6.8831 15.0289 6.7705C14.9292 6.658 14.7903 6.5909 14.6427 6.5839ZM14.2325 9.2988C14.3796 9.2972 14.5201 9.2358 14.6236 9.1279C14.727 9.02 14.7851 8.8742 14.7851 8.7224C14.7738 8.5705 14.7084 8.4284 14.6015 8.3235C14.4946 8.2186 14.3539 8.1584 14.2065 8.1546C14.0586 8.1613 13.9189 8.2268 13.8168 8.3375C13.7146 8.4482 13.6579 8.5954 13.6586 8.7483C13.6608 8.8235 13.6775 8.8975 13.7077 8.966C13.7378 9.0345 13.7809 9.0961 13.8342 9.1473C13.8876 9.1985 13.9503 9.2382 14.0187 9.2642C14.087 9.2902 14.1597 9.302 14.2325 9.2988ZM12.2186 10.4516C12.2118 10.2993 12.1479 10.1557 12.0405 10.0511C11.933 9.9466 11.7904 9.8893 11.6427 9.8915C11.3637 9.9069 11.0753 10.2181 11.0846 10.4977C11.1009 10.6491 11.1708 10.789 11.2808 10.8904C11.3909 10.9918 11.5334 11.0477 11.6809 11.0472C11.7553 11.0475 11.8289 11.032 11.8972 11.0016C11.9655 10.9711 12.027 10.9265 12.0778 10.8704C12.1286 10.8143 12.1677 10.748 12.1925 10.6756C12.2174 10.6032 12.2275 10.5263 12.2223 10.4497L12.2186 10.4516ZM14.626 4.48287C14.6993 4.4813 14.7716 4.46483 14.8387 4.4344C14.9058 4.40398 14.9665 4.3602 15.0173 4.30556C15.068 4.25092 15.1078 4.18649 15.1345 4.11595C15.1611 4.04541 15.174 3.97015 15.1725 3.89446C15.171 3.81876 15.155 3.74412 15.1256 3.67479C15.0961 3.60546 15.0537 3.5428 15.0008 3.49039C14.9479 3.43798 14.8855 3.39685 14.8172 3.36934C14.7489 3.34183 14.676 3.32848 14.6027 3.33006C14.4547 3.33324 14.314 3.39702 14.2115 3.50737C14.109 3.61772 14.0531 3.7656 14.0562 3.91847C14.0593 4.07135 14.1211 4.21669 14.2279 4.32254C14.3348 4.42838 14.478 4.48606 14.626 4.48287ZM14.6213 4.9584C14.4733 4.9595 14.3314 5.0192 14.2248 5.1252C14.1182 5.2312 14.055 5.3754 14.0483 5.5281C14.0537 5.6801 14.1139 5.8245 14.2172 5.933C14.3205 6.0414 14.4594 6.1061 14.6065 6.1141C14.7551 6.1141 14.8977 6.0536 15.0034 5.9457C15.1092 5.8378 15.1694 5.6912 15.1711 5.5377C15.1724 5.3855 15.1152 5.2389 15.0122 5.13C14.9092 5.0212 14.7687 4.9588 14.6213 4.9565V4.9584ZM15.1795 2.30597C15.1844 2.15314 15.1313 2.00437 15.0316 1.89134C14.9318 1.7783 14.7933 1.70992 14.6455 1.70074C14.4979 1.7005 14.3556 1.75705 14.2462 1.85936C14.1368 1.96167 14.0682 2.1024 14.0539 2.25409C14.0518 2.40658 14.107 2.55396 14.208 2.66523C14.309 2.7765 14.4478 2.84298 14.5953 2.85068C14.6682 2.85442 14.7411 2.84322 14.8097 2.81771C14.8784 2.79221 14.9415 2.75291 14.9954 2.70209C15.0493 2.65127 15.0929 2.58993 15.1237 2.52161C15.1545 2.45329 15.1719 2.37935 15.1748 2.30405L15.1795 2.30597ZM9.2567 5.5396C9.2499 5.3867 9.1872 5.2421 9.0811 5.1351C8.9751 5.0282 8.8337 4.9667 8.6855 4.9632C8.4009 4.9709 8.1153 5.2716 8.1218 5.5569C8.1325 5.7091 8.1983 5.8516 8.306 5.956C8.4137 6.0605 8.5555 6.1193 8.7032 6.1208C8.7765 6.1202 8.849 6.1047 8.9164 6.0751C8.9839 6.0456 9.0451 6.0026 9.0965 5.9486C9.1479 5.8946 9.1885 5.8307 9.216 5.7606C9.2435 5.6904 9.2573 5.6153 9.2567 5.5396ZM13.2288 10.6408C13.3021 10.6448 13.3754 10.6332 13.4442 10.6066C13.5129 10.5801 13.5757 10.5393 13.6286 10.4867C13.6814 10.4341 13.7233 10.3708 13.7515 10.3008C13.7797 10.2308 13.7936 10.1556 13.7925 10.0798C13.7876 9.9276 13.7274 9.783 13.6241 9.6744C13.5207 9.5659 13.3816 9.5014 13.2344 9.4938C12.9553 9.4938 12.6613 9.7916 12.6595 10.076C12.6605 10.152 12.676 10.2271 12.7052 10.2969C12.7343 10.3667 12.7766 10.4298 12.8295 10.4827C12.8824 10.5355 12.945 10.5771 13.0135 10.6049C13.082 10.6327 13.1552 10.6462 13.2288 10.6447V10.6408ZM8.692 7.7492C8.8401 7.7505 8.9828 7.6918 9.0895 7.5856C9.1961 7.4794 9.2581 7.3343 9.2623 7.1814C9.2549 7.0291 9.1931 6.8849 9.0888 6.7769C8.9845 6.6688 8.8451 6.6045 8.6976 6.5964C8.5506 6.6048 8.4116 6.6678 8.306 6.7737C8.2003 6.8796 8.1353 7.0213 8.1227 7.1728C8.1291 7.3255 8.1914 7.4701 8.2971 7.5771C8.4029 7.6842 8.544 7.7457 8.692 7.7492ZM8.706 2.86412C8.7795 2.86691 8.8529 2.8541 8.9214 2.82648C8.99 2.79886 9.0524 2.75703 9.1047 2.70355C9.157 2.65008 9.1981 2.58611 9.2255 2.51558C9.2529 2.44505 9.2661 2.36946 9.2641 2.29348C9.2531 2.14111 9.18831 1.99823 9.08191 1.89197C8.97561 1.78571 8.8352 1.72347 8.6874 1.71707C8.4083 1.72476 8.1134 2.03122 8.119 2.31077C8.1277 2.46376 8.1939 2.60718 8.3036 2.7104C8.4133 2.81362 8.5577 2.86939 8.706 2.86412ZM8.706 4.49728C8.8539 4.49576 8.99511 4.4337 9.09871 4.32473C9.20231 4.21576 9.2598 4.06878 9.2586 3.91607C9.2494 3.76347 9.1844 3.62017 9.0768 3.51513C8.9693 3.41009 8.8271 3.35115 8.679 3.35023C8.5316 3.36097 8.3931 3.42747 8.2902 3.53699C8.1872 3.64652 8.1269 3.7914 8.1209 3.94393C8.1311 4.09639 8.198 4.23887 8.3076 4.34161C8.4171 4.44436 8.5609 4.49945 8.7088 4.49536L8.706 4.49728ZM10.6372 10.1115C10.638 10.0358 10.6242 9.9607 10.5964 9.8907C10.5686 9.8207 10.5274 9.7571 10.4753 9.7039C10.4232 9.6506 10.3613 9.6088 10.2932 9.5808C10.2251 9.5527 10.1523 9.5392 10.079 9.5409C10.0044 9.5359 9.9296 9.5468 9.8592 9.5728C9.7889 9.5988 9.7244 9.6393 9.6697 9.692C9.615 9.7446 9.57131 9.8082 9.54131 9.8789C9.51131 9.9497 9.4956 10.0259 9.4952 10.1031C9.4947 10.1803 9.5095 10.2568 9.5387 10.3279C9.5679 10.3989 9.61091 10.4631 9.66491 10.5164C9.71901 10.5697 9.783 10.6111 9.8531 10.6379C9.9232 10.6648 9.9979 10.6765 10.0725 10.6725C10.1461 10.6763 10.2197 10.6646 10.2887 10.6379C10.3578 10.6113 10.4208 10.5703 10.4739 10.5176C10.5271 10.4649 10.5692 10.4015 10.5978 10.3313C10.6263 10.2611 10.6407 10.1857 10.6399 10.1096L10.6372 10.1115ZM9.0893 9.3257C9.163 9.3288 9.23671 9.3165 9.3058 9.2895C9.3748 9.2625 9.4379 9.2214 9.4912 9.1686C9.5445 9.1158 9.5869 9.0524 9.6158 8.9822C9.6448 8.9121 9.6597 8.8366 9.6597 8.7603C9.6597 8.684 9.6448 8.6086 9.6158 8.5384C9.5869 8.4682 9.5445 8.4048 9.4912 8.352C9.4379 8.2992 9.3748 8.2581 9.3058 8.2311C9.23671 8.2041 9.163 8.1918 9.0893 8.1949C9.0155 8.1918 8.9418 8.2041 8.8727 8.2311C8.8037 8.2581 8.74061 8.2992 8.68731 8.352C8.63401 8.4048 8.5916 8.4682 8.5627 8.5384C8.5337 8.6086 8.5188 8.684 8.5188 8.7603C8.5188 8.8366 8.5337 8.9121 8.5627 8.9822C8.5916 9.0524 8.63401 9.1158 8.68731 9.1686C8.74061 9.2214 8.8037 9.2625 8.8727 9.2895C8.9418 9.3165 9.0155 9.3288 9.0893 9.3257Z" fill="white" fill-opacity="0.4"/>
<path d="M28.2111 14.5203V17.0574H25.1628V19.8261C25.613 19.852 26.0725 19.8347 26.5311 19.8376C26.9897 19.8405 27.4223 19.8376 27.8948 19.8376V22.3517H25.2214C25.1125 22.7187 25.0846 24.7342 25.1721 25.5383C25.6642 25.5979 26.1702 25.5566 26.6735 25.5642C27.1767 25.5719 27.6632 25.5642 28.1488 25.5642C28.2595 25.9226 28.2772 27.7594 28.1786 28.2695H22.5776C22.4967 27.916 22.466 15.3003 22.546 14.5212L28.2111 14.5203Z" fill="white" fill-opacity="0.4"/>
<path d="M32.3526 2.85942C32.6385 2.22601 32.9238 1.59389 33.2084 0.963043H37.0028L34.081 6.1507L37.067 11.9052C36.7089 12.0013 34.3694 12.0282 33.3331 11.9532C33.0131 11.2202 32.6819 10.4699 32.3573 9.7187L32.2773 9.7264C32.2726 10.0914 32.267 10.4574 32.2652 10.8235C32.2633 11.1895 32.2652 11.5526 32.2652 11.9475H28.881V1.02452C29.1935 0.928453 31.4373 0.897713 32.2475 0.984173C32.2531 1.28967 32.2615 1.60285 32.2642 1.91507C32.267 2.22729 32.2642 2.55104 32.2642 2.86903L32.3526 2.85942ZM30.5219 3.41373C30.3742 3.40775 30.2302 3.46256 30.1215 3.56613C30.0129 3.66969 29.9484 3.81355 29.9424 3.96613C29.9413 4.11909 29.9977 4.26654 30.0997 4.37745C30.2017 4.48835 30.3414 4.5541 30.4894 4.5608C30.6367 4.5616 30.7789 4.5043 30.8868 4.40058C30.9946 4.29685 31.0601 4.15452 31.0698 4.00263C31.0714 3.92677 31.0585 3.85133 31.0318 3.78064C31.0051 3.70995 30.9652 3.6454 30.9143 3.59068C30.8634 3.53597 30.8025 3.49217 30.7352 3.46181C30.6678 3.43144 30.5954 3.41511 30.5219 3.41373ZM34.0345 10.5353C34.0378 10.6884 34.0987 10.8341 34.2043 10.9417C34.3098 11.0493 34.4518 11.1102 34.6001 11.1117C34.7474 11.1063 34.8872 11.0431 34.9909 10.9349C35.0947 10.8267 35.1545 10.6817 35.1582 10.5295C35.1517 10.3793 35.0892 10.2375 34.9838 10.1339C34.8784 10.0302 34.7383 9.9726 34.5927 9.9733C34.4471 9.9739 34.3075 10.0326 34.2029 10.1372C34.0983 10.2418 34.037 10.3841 34.0317 10.5343L34.0345 10.5353ZM31.0698 5.6195C31.0728 5.5435 31.0606 5.4678 31.034 5.3969C31.0074 5.326 30.967 5.2615 30.9153 5.2075C30.8635 5.1534 30.8016 5.1109 30.7333 5.0826C30.665 5.0544 30.5918 5.0409 30.5182 5.043C30.4451 5.0397 30.3722 5.0514 30.3036 5.0776C30.235 5.1037 30.1721 5.1437 30.1187 5.1952C30.0652 5.2468 30.0223 5.3088 29.9923 5.3777C29.9624 5.4466 29.946 5.5209 29.9442 5.5964C29.9444 5.7495 30.0017 5.8966 30.1043 6.007C30.2069 6.1175 30.3469 6.1827 30.4949 6.1891C30.6424 6.1858 30.7834 6.1255 30.8898 6.02C30.9963 5.9145 31.0605 5.7715 31.0698 5.6195ZM29.9452 2.35314C29.9431 2.50716 30.0003 2.65574 30.1043 2.76618C30.2083 2.87661 30.3505 2.93987 30.4996 2.94204C30.6487 2.94421 30.7926 2.8851 30.8995 2.77772C31.0065 2.67035 31.0677 2.52349 31.0698 2.36948C31.0698 2.2166 31.011 2.06999 30.9063 1.96189C30.8017 1.85379 30.6597 1.79307 30.5117 1.79307C30.3657 1.79191 30.2249 1.8492 30.119 1.95291C30.013 2.05662 29.95 2.19869 29.9433 2.3493L29.9452 2.35314ZM32.907 8.3401C33.0549 8.3397 33.1972 8.2814 33.3051 8.1769C33.413 8.0724 33.4785 7.9296 33.4884 7.7771C33.483 7.6245 33.4229 7.4794 33.3198 7.3699C33.2167 7.2604 33.0779 7.1943 32.9303 7.1844C32.7822 7.1833 32.6396 7.2423 32.5331 7.3487C32.4267 7.455 32.3649 7.6002 32.361 7.7531C32.3594 7.8284 32.3722 7.9032 32.3987 7.9734C32.4253 8.0435 32.465 8.1075 32.5155 8.1617C32.5661 8.2159 32.6266 8.2592 32.6935 8.2892C32.7603 8.3191 32.8323 8.3351 32.9052 8.3363L32.907 8.3401ZM35.108 2.21096C35.1061 2.05779 35.047 1.91128 34.943 1.80207C34.839 1.69286 34.6981 1.6294 34.5498 1.62495C34.4031 1.63456 34.2646 1.69788 34.159 1.80353C34.0535 1.90918 33.9879 2.05024 33.974 2.20136C33.9784 2.35384 34.0402 2.49853 34.1464 2.60459C34.2526 2.71065 34.3947 2.76969 34.5424 2.76912C34.6158 2.77337 34.6893 2.7619 34.7583 2.73543C34.8273 2.70896 34.8902 2.66805 34.9431 2.61529C34.996 2.56252 35.0378 2.49902 35.0659 2.42878C35.0939 2.35855 35.1076 2.28308 35.1061 2.20712L35.108 2.21096ZM31.5126 6.3832C31.5173 6.5345 31.5776 6.6784 31.6812 6.7855C31.7849 6.8925 31.9242 6.9548 32.0708 6.9596C32.2177 6.9491 32.3561 6.8841 32.4604 6.7766C32.5646 6.6691 32.6278 6.5263 32.6382 6.3746C32.6374 6.2989 32.6219 6.2241 32.5927 6.1547C32.5634 6.0853 32.521 6.0227 32.4679 5.9705C32.4149 5.9183 32.3522 5.8776 32.2837 5.8508C32.2152 5.824 32.1421 5.8116 32.0689 5.8145C31.9956 5.8109 31.9224 5.8229 31.8539 5.8499C31.7853 5.8769 31.7229 5.9181 31.6705 5.9712C31.6181 6.0242 31.5769 6.0878 31.5494 6.1581C31.5219 6.2283 31.5087 6.3036 31.5108 6.3794L31.5126 6.3832ZM29.9461 7.2478C29.9498 7.4017 30.0125 7.5478 30.1205 7.6539C30.2285 7.76 30.3729 7.8175 30.5219 7.8137C30.6709 7.8098 30.8124 7.745 30.9151 7.6335C31.0179 7.522 31.0735 7.3729 31.0698 7.219C31.0661 7.0651 31.0034 6.919 30.8954 6.8129C30.7874 6.7068 30.643 6.6493 30.494 6.6532C30.345 6.657 30.2036 6.7218 30.1008 6.8333C29.998 6.9448 29.9424 7.0939 29.9461 7.2478ZM29.9461 10.5237C29.9486 10.5999 29.9656 10.6748 29.9961 10.7441C30.0267 10.8135 30.0701 10.8759 30.124 10.9279C30.1779 10.9799 30.2412 11.0205 30.3103 11.0472C30.3793 11.074 30.4528 11.0864 30.5266 11.0838C30.6003 11.0812 30.6728 11.0637 30.74 11.0321C30.8071 11.0006 30.8676 10.9557 30.9179 10.9001C30.9683 10.8444 31.0076 10.779 31.0335 10.7077C31.0594 10.6364 31.0714 10.5605 31.0689 10.4843C31.0638 10.3306 30.9998 10.1852 30.891 10.0802C30.7821 9.9751 30.6373 9.919 30.4884 9.9243C30.3395 9.9295 30.1988 9.9956 30.097 10.108C29.9953 10.2204 29.941 10.37 29.9461 10.5237ZM32.8754 5.5532C33.0233 5.5594 33.1677 5.5064 33.2787 5.4053C33.3896 5.3041 33.4584 5.1627 33.4708 5.0104C33.4847 4.7222 33.2084 4.42437 32.921 4.40708C32.7735 4.40479 32.6307 4.46116 32.5224 4.5645C32.414 4.6679 32.3482 4.8103 32.3387 4.9624C32.3353 5.0377 32.3466 5.1129 32.3719 5.1837C32.3972 5.2544 32.4359 5.3192 32.4859 5.3742C32.5358 5.4292 32.596 5.4733 32.6627 5.5039C32.7295 5.5344 32.8015 5.5509 32.8745 5.5522L32.8754 5.5532ZM33.1731 3.5905C33.1701 3.74322 33.2259 3.89092 33.3283 4.00116C33.4307 4.1114 33.5712 4.17516 33.7191 4.17844C33.867 4.17264 34.0077 4.11057 34.114 4.00417C34.2203 3.89777 34.2847 3.75454 34.2949 3.60203C34.2949 3.44915 34.2361 3.30254 34.1315 3.19445C34.0268 3.08635 33.8848 3.02562 33.7368 3.02562C33.6628 3.02001 33.5886 3.0306 33.5189 3.0567C33.4491 3.08279 33.3855 3.12379 33.3322 3.17703C33.2789 3.23027 33.2371 3.29454 33.2095 3.36563C33.1819 3.43671 33.1692 3.51302 33.1721 3.58954L33.1731 3.5905ZM33.7675 9.7072C33.8411 9.7086 33.9143 9.6947 33.9827 9.6663C34.051 9.6379 34.1131 9.5956 34.1652 9.5418C34.2173 9.4881 34.2584 9.424 34.2861 9.3535C34.3137 9.2829 34.3272 9.2074 34.3259 9.1313C34.3246 9.0553 34.3084 8.9803 34.2784 8.9108C34.2484 8.8413 34.2051 8.7788 34.1511 8.727C34.0972 8.6752 34.0337 8.6352 33.9644 8.6093C33.8951 8.5834 33.8215 8.5723 33.748 8.5764C33.6743 8.575 33.6011 8.5888 33.5328 8.6173C33.4645 8.6457 33.4024 8.688 33.3502 8.7418C33.2981 8.7955 33.257 8.8596 33.2294 8.9301C33.2018 9.0006 33.1882 9.0762 33.1896 9.1523C33.1909 9.2283 33.207 9.3033 33.2371 9.3728C33.2671 9.4423 33.3104 9.5048 33.3643 9.5566C33.4183 9.6084 33.4818 9.6484 33.5511 9.6743C33.6203 9.7002 33.6939 9.7113 33.7675 9.7072ZM31.0698 8.8675C31.0675 8.7164 31.0087 8.572 30.9057 8.4646C30.8027 8.3572 30.6636 8.2951 30.5173 8.2911C30.4453 8.2895 30.3737 8.3025 30.3067 8.3294C30.2396 8.3563 30.1783 8.3966 30.1263 8.448C30.0743 8.4994 30.0326 8.5609 30.0036 8.6289C29.9746 8.6969 29.9588 8.7702 29.9573 8.8445C29.9557 8.9188 29.9683 8.9927 29.9943 9.062C30.0204 9.1312 30.0594 9.1945 30.1092 9.2482C30.1589 9.3019 30.2185 9.345 30.2843 9.3749C30.3502 9.4049 30.4211 9.4212 30.4931 9.4228C30.6408 9.428 30.7845 9.3724 30.8926 9.2683C31.0008 9.1642 31.0645 9.0201 31.0698 8.8675Z" fill="white" fill-opacity="0.4"/>
<path d="M8.8521 17.0679H6.88371C6.78421 16.7173 6.7683 15.063 6.8567 14.5154H13.6474V17.0458H11.6279C11.6 17.6097 11.6167 18.1314 11.6139 18.6521C11.6139 19.1958 11.6139 19.7396 11.6139 20.2852V28.2666H8.86971C8.83351 27.7545 8.8576 27.2329 8.8539 26.7122C8.8539 26.1684 8.8539 25.6247 8.8539 25.079V17.0679H8.8521Z" fill="white" fill-opacity="0.4"/>
<path d="M0.505093 0.967773H3.86689V9.0721H6.39249V11.9541H0.545994C0.457594 11.5919 0.419493 2.20129 0.505093 0.967773ZM1.58129 3.97663C1.58079 4.12938 1.63849 4.27623 1.74179 4.3855C1.84519 4.49476 1.98599 4.5577 2.13389 4.5607C2.28189 4.5603 2.42409 4.5008 2.53049 4.39461C2.63699 4.28841 2.69949 4.14379 2.70509 3.99104C2.70599 3.91484 2.69239 3.8392 2.66499 3.76844C2.63759 3.69767 2.59699 3.63318 2.54539 3.57862C2.49389 3.52407 2.43249 3.48054 2.36469 3.45051C2.29679 3.42047 2.22399 3.40453 2.15019 3.40358C2.07639 3.40263 2.00319 3.41671 1.93459 3.44499C1.86609 3.47328 1.80369 3.51522 1.75079 3.56844C1.69799 3.62165 1.65589 3.68508 1.62679 3.75512C1.59769 3.82516 1.58229 3.90043 1.58129 3.97663ZM2.70409 2.36941C2.70409 2.21653 2.64529 2.06992 2.54069 1.96182C2.43599 1.85373 2.29399 1.793 2.14599 1.793C1.99839 1.79094 1.85609 1.84932 1.75009 1.95535C1.64409 2.06139 1.58309 2.20647 1.58039 2.35884C1.58059 2.51165 1.63839 2.65839 1.74149 2.76796C1.84469 2.87753 1.98509 2.94132 2.13299 2.94581C2.28189 2.94465 2.42449 2.88396 2.53099 2.77648C2.63749 2.66901 2.69959 2.52311 2.70409 2.36941ZM2.70409 5.6117C2.70359 5.5362 2.68829 5.4615 2.65939 5.3921C2.63039 5.3227 2.58829 5.2601 2.53549 5.2078C2.48269 5.1555 2.42029 5.1146 2.35189 5.0877C2.28359 5.0607 2.21069 5.0481 2.13759 5.0507C2.06449 5.0476 1.99149 5.0601 1.92319 5.0873C1.85489 5.1144 1.79269 5.1557 1.74039 5.2086C1.68819 5.2615 1.64689 5.3249 1.61919 5.3949C1.59159 5.4649 1.57799 5.54 1.57949 5.6155C1.58539 5.7677 1.64659 5.912 1.75089 6.0197C1.85519 6.1274 1.99489 6.1906 2.14229 6.1968C2.29049 6.1885 2.43039 6.1235 2.53459 6.0144C2.63879 5.9053 2.69999 5.76 2.70599 5.6069L2.70409 5.6117ZM1.58129 10.4891C1.57959 10.5652 1.59249 10.641 1.61909 10.712C1.64569 10.783 1.68559 10.8479 1.73659 10.903C1.78749 10.9581 1.84839 11.0023 1.91589 11.033C1.98329 11.0638 2.05599 11.0805 2.12969 11.0823C2.20339 11.0841 2.27679 11.0708 2.34549 11.0433C2.41429 11.0158 2.47719 10.9746 2.53049 10.922C2.58379 10.8694 2.62659 10.8065 2.65639 10.7368C2.68619 10.6672 2.70239 10.5921 2.70409 10.516C2.70419 10.3644 2.64639 10.219 2.54329 10.1111C2.44019 10.0032 2.30019 9.9416 2.15339 9.9396C2.08079 9.9362 2.00819 9.9479 1.93999 9.9738C1.87169 9.9997 1.80909 10.0394 1.75589 10.0905C1.70259 10.1417 1.65979 10.2032 1.62979 10.2717C1.59989 10.3401 1.58339 10.414 1.58129 10.4891ZM3.72089 9.9328C3.57289 9.9328 3.43089 9.9936 3.32619 10.1017C3.22149 10.2098 3.16269 10.3564 3.16269 10.5093C3.17209 10.6613 3.23559 10.8043 3.34109 10.9108C3.44659 11.0172 3.58649 11.0796 3.73389 11.0857C3.88219 11.0789 4.02249 11.014 4.12609 10.9043C4.22979 10.7945 4.28909 10.6481 4.29199 10.4948C4.28839 10.3421 4.22619 10.1972 4.11909 10.0918C4.01199 9.9864 3.86879 9.9292 3.72089 9.9328ZM5.87159 10.5093C5.87359 10.4337 5.86079 10.3586 5.83399 10.2883C5.80719 10.218 5.76689 10.154 5.71559 10.1001C5.66419 10.0463 5.60289 10.0037 5.53519 9.975C5.46759 9.9462 5.39499 9.9319 5.32179 9.9328C5.17429 9.9347 5.03289 9.9941 4.92599 10.099C4.81909 10.2039 4.75439 10.3467 4.74509 10.4987C4.73949 10.7821 5.02409 11.0809 5.31059 11.0866C5.45919 11.0859 5.60149 11.0248 5.70679 10.9166C5.81209 10.8084 5.87199 10.6617 5.87339 10.5083L5.87159 10.5093ZM2.70319 7.2535C2.70499 7.1012 2.64889 6.9543 2.54699 6.8442C2.44509 6.7341 2.30549 6.6696 2.15809 6.6646C2.01099 6.6591 1.86769 6.7139 1.75949 6.817C1.65129 6.9201 1.58689 7.0632 1.58039 7.2151C1.57759 7.3675 1.63229 7.5152 1.73299 7.6267C1.83369 7.7382 1.97249 7.8049 2.11999 7.8126C2.26809 7.8135 2.41109 7.7561 2.51969 7.6521C2.62839 7.548 2.69469 7.4052 2.70509 7.2525L2.70319 7.2535ZM2.15719 8.2901C2.08419 8.2866 2.01119 8.2981 1.94259 8.324C1.87399 8.3499 1.81099 8.3896 1.75729 8.4408C1.70369 8.492 1.66039 8.5537 1.62999 8.6223C1.59969 8.691 1.58279 8.7651 1.58039 8.8406C1.57789 8.9157 1.59019 8.9907 1.61639 9.0608C1.64269 9.131 1.68249 9.1949 1.73329 9.2488C1.78419 9.3026 1.84509 9.3453 1.91229 9.3742C1.97949 9.4031 2.05179 9.4177 2.12459 9.417C2.19769 9.4214 2.27099 9.4106 2.33999 9.3852C2.40909 9.3599 2.47249 9.3205 2.52649 9.2694C2.58059 9.2183 2.62409 9.1565 2.65459 9.0877C2.68519 9.0189 2.70199 8.9445 2.70419 8.8689C2.70639 8.7933 2.69379 8.7179 2.66729 8.6474C2.64079 8.5769 2.60089 8.5125 2.54989 8.4582C2.49889 8.4039 2.43779 8.3607 2.37039 8.3311C2.30289 8.3016 2.23039 8.2863 2.15719 8.2862V8.2901Z" fill="white" fill-opacity="0.4"/>
</g>
</svg>
