<svg width="85" height="20" viewBox="0 0 85 20" fill="none" xmlns="http://www.w3.org/2000/svg">
<path d="M11.9922 12.7158C11.7087 12.9475 11.6696 13.3613 11.9058 13.6393C12.1421 13.9174 12.564 13.9557 12.8475 13.724C13.9635 12.8117 14.6053 11.4727 14.6053 10.049C14.6053 7.41261 12.419 5.26831 9.73091 5.26831C7.04281 5.26831 4.85651 7.41261 4.85651 10.049C4.85651 11.5046 5.52111 12.8644 6.67791 13.7768C6.96621 14.0036 7.3865 13.9589 7.6179 13.6761C7.8492 13.3933 7.80361 12.981 7.51521 12.7541C4.92491 10.7121 6.39271 6.57851 9.72931 6.57851C13.0365 6.57851 14.5239 10.6498 11.9922 12.7158Z" fill="white" fill-opacity="0.4"/>
<path d="M14.0241 15.9174C15.8748 14.6088 17.0788 12.4709 17.0788 10.0678C17.0788 9.70512 16.779 9.41272 16.4108 9.41272C16.0426 9.41272 15.7428 9.70672 15.7428 10.0678C15.7428 12.0443 14.7507 13.7891 13.2421 14.8549C12.9423 15.0674 12.8755 15.4764 13.0906 15.7704C13.3073 16.0629 13.7243 16.1284 14.0241 15.9174Z" fill="white" fill-opacity="0.4"/>
<path d="M6.93959 0.901139C6.58609 1.00494 6.38409 1.36924 6.48999 1.71604C6.59589 2.06274 6.96729 2.26084 7.32089 2.15704C12.6759 0.591138 18.0619 4.54414 18.0619 10.0087C18.0619 10.3714 18.3617 10.6638 18.7299 10.6638C19.0997 10.6638 19.3978 10.3698 19.3978 10.0087C19.3995 3.67814 13.1582 -0.917261 6.93959 0.901139Z" fill="white" fill-opacity="0.4"/>
<path d="M14.3692 4.47739C9.60061 0.66499 2.37851 3.99169 2.37851 10.0666C2.37851 14.042 5.67601 17.2745 9.72771 17.2745C10.0975 17.2745 10.3956 16.9805 10.3956 16.6193C10.3956 16.2566 10.0959 15.9642 9.72771 15.9642C6.41231 15.9642 3.71441 13.3182 3.71441 10.0666C3.71441 5.08939 9.62991 2.37939 13.5236 5.49359C13.8104 5.72209 14.2307 5.68059 14.4636 5.39939C14.6982 5.11809 14.6543 4.70589 14.3692 4.47739Z" fill="white" fill-opacity="0.4"/>
<path d="M0.668001 9.46082C0.299801 9.46082 0 9.75482 0 10.1159C0 15.3776 4.3645 19.6582 9.7294 19.6582C12.0102 19.6582 14.2291 18.8672 15.9739 17.434C16.2574 17.2007 16.2949 16.7884 16.057 16.5104C15.8192 16.2324 15.3988 16.1956 15.1154 16.4289C13.61 17.6657 11.6974 18.3479 9.7294 18.3479C5.1026 18.3479 1.3376 14.6553 1.3376 10.1175C1.3359 9.75482 1.0378 9.46082 0.668001 9.46082Z" fill="white" fill-opacity="0.4"/>
<path d="M32.4544 12.5046C32.0587 13.2322 31.5123 13.8078 30.8176 14.2289C30.1206 14.6523 29.3382 14.864 28.4658 14.864C27.5935 14.864 26.8111 14.6523 26.1141 14.2289C25.4171 13.8056 24.873 13.23 24.484 12.5046C24.0928 11.7769 23.8972 10.9786 23.8972 10.1054C23.8972 9.2322 24.0928 8.4339 24.484 7.7063C24.8753 6.9786 25.4194 6.4031 26.1141 5.9819C26.8111 5.5585 27.5935 5.3468 28.4658 5.3468C29.3382 5.3468 30.1206 5.5585 30.8176 5.9819C31.5146 6.4053 32.0609 6.9808 32.4544 7.7063C32.8501 8.4339 33.0479 9.2322 33.0479 10.1054C33.0479 10.9786 32.8501 11.7791 32.4544 12.5046ZM30.9322 8.5001C30.6894 8.0194 30.3522 7.6379 29.9205 7.3557C29.4888 7.0734 29.0032 6.9323 28.4636 6.9323C27.915 6.9323 27.4271 7.0712 26.9999 7.349C26.5727 7.6269 26.24 8.0084 26.0017 8.4935C25.7633 8.9786 25.6442 9.5166 25.6442 10.1054C25.6442 10.6964 25.7633 11.2344 26.0017 11.7173C26.24 12.2025 26.5727 12.5839 26.9999 12.8618C27.4271 13.1396 27.915 13.2785 28.4636 13.2785C29.0032 13.2785 29.4888 13.1374 29.9205 12.8552C30.3522 12.5729 30.6894 12.1914 30.9322 11.7107C31.1751 11.23 31.2965 10.6942 31.2965 10.1054C31.2965 9.5166 31.1751 8.9808 30.9322 8.5001Z" fill="white" fill-opacity="0.4"/>
<path d="M40.0034 8.32762C40.3541 8.86122 40.5295 9.60002 40.5295 10.5415V14.0741C40.5295 14.3034 40.453 14.4953 40.3001 14.6496C40.1473 14.804 39.9539 14.8657 39.7201 14.8657C39.4863 14.8657 39.2929 14.804 39.14 14.6496C38.9871 14.4953 38.9107 14.3034 38.9107 14.0741V10.5415C38.9107 10.0564 38.8073 9.67492 38.6004 9.39712C38.3936 9.11922 38.0383 8.98032 37.5347 8.98032C37.0131 8.98032 36.6039 9.12812 36.3071 9.42352C36.0103 9.71902 35.862 10.0917 35.862 10.5415V14.0741C35.862 14.3034 35.7855 14.4953 35.6326 14.6496C35.4797 14.804 35.2864 14.8657 35.0526 14.8657C34.8187 14.8657 34.6254 14.804 34.4725 14.6496C34.3196 14.4953 34.2432 14.3034 34.2432 14.0741V8.33422C34.2432 8.10492 34.3196 7.91312 34.4725 7.75872C34.6254 7.60432 34.8187 7.52722 35.0526 7.52722C35.2864 7.52722 35.4797 7.60432 35.6326 7.75872C35.7855 7.91312 35.862 8.10492 35.862 8.33422V8.68932C36.1048 8.37172 36.4218 8.09832 36.813 7.86902C37.2042 7.63962 37.6336 7.52502 38.1013 7.52502C39.0186 7.52722 39.6526 7.79402 40.0034 8.32762Z" fill="white" fill-opacity="0.4"/>
<path d="M48.347 11.5474C48.1851 11.6797 47.9963 11.7459 47.7804 11.7459H43.3332C43.4412 12.2663 43.6885 12.6742 44.0752 12.9697C44.4619 13.2652 44.8981 13.4129 45.3837 13.4129C45.7524 13.4129 46.0402 13.3799 46.2471 13.3137C46.4539 13.2475 46.618 13.177 46.7395 13.102C46.8609 13.027 46.9441 12.9763 46.989 12.9499C47.1509 12.8705 47.3038 12.8308 47.4477 12.8308C47.6365 12.8308 47.7984 12.8969 47.9333 13.0292C48.0682 13.1615 48.1357 13.3159 48.1357 13.4923C48.1357 13.7305 48.0098 13.9466 47.7579 14.1406C47.5061 14.3435 47.1689 14.5155 46.7462 14.6566C46.3235 14.7977 45.8963 14.8683 45.4647 14.8683C44.7092 14.8683 44.0505 14.7139 43.4906 14.4052C42.9285 14.0965 42.4946 13.6709 42.1888 13.1285C41.8831 12.586 41.7302 11.9752 41.7302 11.2982C41.7302 10.5397 41.8921 9.87596 42.2158 9.30256C42.5396 8.72926 42.9668 8.29046 43.4974 7.98616C44.028 7.68186 44.5946 7.52966 45.1949 7.52966C45.7884 7.52966 46.3483 7.68846 46.8721 8.00596C47.3982 8.32356 47.8187 8.75136 48.1312 9.28936C48.4459 9.82736 48.6033 10.4096 48.6033 11.0336C48.5943 11.2431 48.5089 11.4151 48.347 11.5474ZM43.3467 10.4228H46.8789V10.3302C46.8429 9.95976 46.6585 9.64216 46.3258 9.37756C45.993 9.11296 45.6153 8.98066 45.1926 8.98066C44.1494 8.98286 43.5333 9.46356 43.3467 10.4228Z" fill="white" fill-opacity="0.4"/>
<path d="M55.9097 5.50674C56.0625 5.64784 56.139 5.83304 56.139 6.06244C56.139 6.29174 56.0625 6.47474 55.9097 6.61144C55.7568 6.74824 55.5589 6.81654 55.3161 6.81654H53.2004V14.0558C53.2004 14.2852 53.115 14.477 52.9441 14.6314C52.7732 14.7857 52.5619 14.8629 52.3101 14.8629C52.0583 14.8629 51.8514 14.7857 51.6896 14.6314C51.5277 14.477 51.4467 14.2852 51.4467 14.0558V6.81654H49.3311C49.0882 6.81654 48.8904 6.74605 48.7375 6.60485C48.5846 6.46374 48.5082 6.27854 48.5082 6.04914C48.5082 5.82864 48.5869 5.64784 48.7442 5.50674C48.9016 5.36564 49.0972 5.29504 49.3311 5.29504H55.3161C55.5589 5.29724 55.7568 5.36784 55.9097 5.50674Z" fill="white" fill-opacity="0.4"/>
<path d="M62.0305 13.0998C61.7068 13.6599 61.2638 14.0943 60.704 14.403C60.1419 14.7117 59.5236 14.8661 58.8514 14.8661C58.1679 14.8661 57.5474 14.7117 56.992 14.403C56.4344 14.0943 55.9938 13.6599 55.67 13.0998C55.3462 12.5397 55.1844 11.9091 55.1844 11.2034C55.1844 10.4978 55.3462 9.86706 55.67 9.30696C55.9938 8.74696 56.4344 8.31026 56.992 7.99936C57.5496 7.68626 58.1701 7.52966 58.8514 7.52966C59.5259 7.52966 60.1442 7.68626 60.704 7.99936C61.2661 8.31246 61.709 8.74916 62.0305 9.30696C62.3543 9.86706 62.5161 10.5 62.5161 11.2034C62.5139 11.9091 62.3543 12.5397 62.0305 13.0998ZM60.6208 10.0458C60.4365 9.70616 60.1891 9.44376 59.8789 9.25846C59.5686 9.07326 59.2246 8.98066 58.8469 8.98066C58.4692 8.98066 58.1252 9.07326 57.8149 9.25846C57.5046 9.44376 57.2573 9.70616 57.073 10.0458C56.8886 10.3853 56.7964 10.7712 56.7964 11.2034C56.7964 11.6356 56.8886 12.0193 57.073 12.3545C57.2573 12.6897 57.5046 12.9499 57.8149 13.1351C58.1252 13.3203 58.4692 13.4129 58.8469 13.4129C59.2246 13.4129 59.5686 13.3203 59.8789 13.1351C60.1891 12.9499 60.4365 12.6897 60.6208 12.3545C60.8052 12.0193 60.8974 11.6356 60.8974 11.2034C60.8974 10.7712 60.8052 10.3853 60.6208 10.0458Z" fill="white" fill-opacity="0.4"/>
<path d="M69.6359 7.76163C69.7892 7.91593 69.8652 8.10783 69.8652 8.33713V11.8256C69.8652 12.7782 69.5977 13.5213 69.0626 14.0593C68.5275 14.5974 67.7653 14.8664 66.7783 14.8664C65.7891 14.8664 65.0314 14.5974 64.5008 14.0593C63.9702 13.5213 63.7049 12.776 63.7049 11.8256V8.33493C63.7049 8.10563 63.7813 7.91373 63.9342 7.75943C64.0871 7.60503 64.2804 7.52783 64.5143 7.52783C64.7481 7.52783 64.9414 7.60503 65.0943 7.75943C65.2472 7.91373 65.3236 8.10563 65.3236 8.33493V11.8256C65.3236 12.3636 65.4451 12.7627 65.6879 13.0229C65.9307 13.2831 66.2949 13.4132 66.7806 13.4132C67.2752 13.4132 67.6439 13.2831 67.8867 13.0229C68.1296 12.7627 68.251 12.3636 68.251 11.8256V8.33493C68.251 8.10563 68.3274 7.91373 68.4803 7.75943C68.6332 7.60503 68.8265 7.52783 69.0604 7.52783C69.2897 7.53003 69.483 7.60723 69.6359 7.76163Z" fill="white" fill-opacity="0.4"/>
<path d="M76.4402 7.87822C76.9072 8.11192 77.1412 8.42281 77.1412 8.81091C77.1412 9.00502 77.0832 9.17481 76.9662 9.32031C76.8492 9.46581 76.6962 9.53861 76.5072 9.53861C76.3632 9.53861 76.2462 9.51881 76.1572 9.47911C76.0672 9.43941 75.9792 9.38651 75.8932 9.32031C75.8082 9.25421 75.7252 9.19901 75.6442 9.15491C75.5542 9.11081 75.4212 9.07111 75.2462 9.03581C75.0712 9.00061 74.9292 8.98292 74.8212 8.98292C74.1472 8.98292 73.6182 9.18802 73.2382 9.59812C72.8562 10.0083 72.6652 10.5441 72.6652 11.2035C72.6652 11.8385 72.8582 12.3655 73.2452 12.7823C73.6322 13.2013 74.1262 13.4108 74.7272 13.4108C75.1672 13.4108 75.4962 13.3578 75.7112 13.252C75.7652 13.2255 75.8402 13.1792 75.9342 13.1131C76.0282 13.0469 76.1162 12.9962 76.1972 12.9609C76.2782 12.9256 76.3772 12.908 76.4942 12.908C76.7192 12.908 76.8962 12.9786 77.0272 13.1197C77.1572 13.2608 77.2222 13.4416 77.2222 13.6621C77.2222 13.8738 77.0962 14.0723 76.8452 14.2575C76.5932 14.4427 76.2602 14.5905 75.8462 14.7007C75.4332 14.811 74.9922 14.8661 74.5262 14.8661C73.8342 14.8661 73.2252 14.7074 72.7012 14.3898C72.1752 14.0723 71.7682 13.6335 71.4802 13.0756C71.1922 12.5155 71.0482 11.8914 71.0482 11.2057C71.0482 10.4912 71.1992 9.85612 71.5002 9.30272C71.8022 8.74702 72.2222 8.31262 72.7622 7.99952C73.3012 7.68632 73.9132 7.52982 74.5942 7.52982C75.3562 7.52762 75.9722 7.64442 76.4402 7.87822Z" fill="white" fill-opacity="0.4"/>
<path d="M83.9692 8.32827C84.3112 8.86197 84.4822 9.60067 84.4822 10.5422V14.055C84.4822 14.2843 84.4052 14.4761 84.2522 14.6305C84.1002 14.7848 83.9062 14.862 83.6722 14.862C83.4392 14.862 83.2452 14.7848 83.0922 14.6305C82.9392 14.4761 82.8632 14.2843 82.8632 14.055V10.5422C82.8632 10.0571 82.7662 9.67557 82.5732 9.39777C82.3802 9.11997 82.0402 8.98097 81.5542 8.98097C81.0512 8.98097 80.6572 9.12877 80.3742 9.42427C80.0912 9.71967 79.9492 10.0924 79.9492 10.5422V14.055C79.9492 14.2843 79.8732 14.4761 79.7202 14.6305C79.5672 14.7848 79.3742 14.862 79.1402 14.862C78.9062 14.862 78.7132 14.7848 78.5602 14.6305C78.4072 14.4761 78.3302 14.2843 78.3302 14.055V6.09677C78.3302 5.86737 78.4072 5.67557 78.5602 5.52117C78.7132 5.36687 78.9062 5.28967 79.1402 5.28967C79.3742 5.28967 79.5672 5.36687 79.7202 5.52117C79.8732 5.67557 79.9492 5.86737 79.9492 6.09677V8.67887C80.1922 8.36137 80.5002 8.09017 80.8732 7.86527C81.2462 7.64027 81.6622 7.52787 82.1212 7.52787C83.0112 7.52787 83.6272 7.79467 83.9692 8.32827Z" fill="white" fill-opacity="0.4"/>
</svg>
