<svg width="105" height="19" viewBox="0 0 105 19" fill="none" xmlns="http://www.w3.org/2000/svg">
<path d="M0.751801 0.500269H9.3134C9.7965 0.495269 10.2797 0.560069 10.7472 0.689669H10.7524C14.0098 1.59717 16.2909 3.28747 17.7871 6.19937C17.865 6.34887 18.0313 6.54837 17.8599 6.69297C17.6884 6.83757 17.5222 6.63807 17.3663 6.55337C16.4156 6.02477 15.4181 5.63587 14.3168 5.55117C11.5374 5.33677 8.8287 5.49997 6.0493 5.45017C5.6474 5.44287 5.4479 5.72187 5.4206 6.12207C5.3933 6.52217 5.843 6.77767 6.2638 6.77767C9.1004 6.77267 11.9421 6.76777 14.7787 6.77277C15.1319 6.76777 15.4852 6.79267 15.8385 6.84747C17.1061 7.06687 18.0204 8.13387 17.9996 9.37047C17.9996 12.1627 17.9996 14.9549 17.9996 17.7521C17.9996 18.495 17.9944 18.495 17.21 18.5C14.6696 18.5 12.1291 18.5 9.5887 18.5C5.7287 18.5 1.6733 16.0219 0.218599 12.5765C0.156299 12.4319 0.0055988 12.2574 0.145899 12.1278C0.322499 11.9633 0.488799 12.1627 0.634199 12.2475C1.7252 12.8807 2.8941 13.2896 4.1773 13.3045C6.7749 13.3245 9.3673 13.3195 11.9648 13.3245C12.3077 13.3245 12.5346 13.1505 12.5398 12.7516C12.545 12.3228 12.285 12.1876 11.9265 12.1727C9.5731 12.0829 7.2197 12.1477 4.8663 12.1378C4.0663 12.1328 3.261 12.2076 2.461 12.1278C1.1414 11.9932 0.0192997 10.9212 0.00889968 9.64467C-0.0119003 6.83757 0.00890045 4.02537 0.0193004 1.21827C0.0141004 0.819368 0.346601 0.505269 0.751801 0.500269Z" fill="white" fill-opacity="0.4"/>
<path d="M28.175 14.0586C26.9823 14.0586 26.0251 13.8257 25.3037 13.3607C24.4347 12.7847 24 11.8844 24 10.6605V10.4034H24.4996V10.6004C24.4996 12.5727 25.7289 13.5577 28.1891 13.5577C29.0303 13.5577 29.7329 13.4166 30.2974 13.1336C31.055 12.7488 31.4347 12.1523 31.4347 11.3434C31.4347 10.787 31.2962 10.3621 31.0183 10.0682C30.787 9.8161 30.4035 9.6037 29.8669 9.4313C29.5894 9.3399 28.9284 9.1738 27.8834 8.9312C26.709 8.6583 25.914 8.4053 25.498 8.1728C24.703 7.7074 24.3053 7.0304 24.3053 6.1396C24.3053 4.4212 25.5075 3.5609 27.9112 3.5609C30.4264 3.5609 31.7027 4.6132 31.7397 6.7169H31.2401C31.1847 5.6647 30.8336 4.9417 30.1863 4.5477C29.6776 4.2238 28.9196 4.0622 27.9112 4.0622C25.8404 4.0622 24.8045 4.7547 24.8045 6.1401C24.8045 6.8284 25.0961 7.3443 25.6785 7.6874C26.0579 7.9099 26.7048 8.1123 27.6204 8.2943C29.2932 8.6278 30.4081 8.9817 30.9626 9.3557C31.6095 9.7802 31.9336 10.4577 31.9336 11.3885C31.9336 12.3293 31.4943 13.0364 30.6157 13.5131C29.9405 13.877 29.1272 14.0586 28.175 14.0586ZM37.6696 14.1655C36.3009 14.1655 35.3483 13.5728 34.8121 12.3898V16.5H34.3129V6.55H34.8121V8.1586C35.0596 7.5953 35.4623 7.131 35.9635 6.8309C36.4719 6.522 37.0364 6.3684 37.6558 6.3684C38.7283 6.3684 39.5561 6.7249 40.1381 7.4374C40.7209 8.1511 41.0125 9.0894 41.0125 10.2519C41.0125 11.4344 40.7305 12.3752 40.1664 13.0731C39.5737 13.8002 38.7413 14.1655 37.6696 14.1655ZM37.731 6.868C36.8364 6.868 36.1261 7.1794 35.6002 7.8009C35.075 8.4237 34.8117 9.2297 34.8117 10.2198C34.8117 11.2825 35.0422 12.1106 35.5036 12.7083C36.0112 13.3449 36.7494 13.6642 37.7176 13.6642C38.6214 13.6642 39.3225 13.3294 39.8206 12.6628C40.2816 12.0455 40.5125 11.2462 40.5125 10.2657C40.5125 9.2756 40.2771 8.4717 39.8068 7.8543C39.3084 7.1965 38.6168 6.868 37.731 6.868ZM43.8147 4.9709C43.7128 4.9709 43.6391 4.9012 43.5926 4.7589V3.7279C43.6483 3.576 43.7219 3.5 43.8147 3.5C43.8975 3.5 43.9906 3.5714 44.0922 3.7133V4.7747C44.0002 4.9058 43.9074 4.9709 43.8147 4.9709ZM43.5929 13.9225V6.4585H44.0922V13.9225H43.5929ZM51.9231 14.0131V9.1449C51.9231 8.4266 51.7181 7.8786 51.3109 7.4991C50.9044 7.1193 50.3587 6.9302 49.6747 6.9302C48.8702 6.9302 48.2347 7.2007 47.7679 7.7425C47.3008 8.2838 47.0676 8.9884 47.0676 9.8579V14.0135H46.5684V6.6122H47.0676V7.9462C47.5298 6.9356 48.3946 6.4302 49.6614 6.4302C50.4648 6.4302 51.1128 6.6422 51.6025 7.0675C52.149 7.5213 52.4215 8.1641 52.4215 8.9934V14.0135L51.9231 14.0131ZM58.2003 14.2423C57.1274 14.2423 56.2771 13.8783 55.6485 13.1512C55.0371 12.4529 54.7333 11.5279 54.7333 10.375C54.7333 9.2013 55.05 8.2617 55.6828 7.5538C56.3156 6.8463 57.1648 6.4924 58.2278 6.4924C59.2907 6.4924 60.1368 6.8467 60.7666 7.5538C61.3955 8.2617 61.7089 9.2013 61.7089 10.375C61.7089 11.5379 61.3898 12.4746 60.7524 13.1812C60.1147 13.8896 59.2632 14.2423 58.2003 14.2423ZM58.2136 6.9924C57.2877 6.9924 56.561 7.3005 56.0294 7.9178C55.497 8.5343 55.231 9.3532 55.231 10.3746C55.231 11.3856 55.5008 12.2008 56.0359 12.8164C56.5721 13.4338 57.298 13.7422 58.2133 13.7422C59.1304 13.7422 59.8578 13.4342 60.3982 12.8164C60.9394 12.2003 61.2093 11.3856 61.2093 10.3746C61.2093 9.3428 60.944 8.5213 60.4124 7.909C59.8811 7.2979 59.1483 6.9924 58.2136 6.9924ZM73.5843 14.0766V9.2067C73.5843 7.7308 72.9461 6.992 71.6679 6.992C70.976 6.992 70.4199 7.2115 70.0054 7.6515C69.5894 8.0918 69.3806 8.6808 69.3806 9.4183V14.0757H68.8822V9.2067C68.8822 7.7308 68.2299 6.992 66.9247 6.992C66.1949 6.992 65.6217 7.295 65.2057 7.9019C64.8461 8.4375 64.666 9.1103 64.666 9.9192V14.0766H64.1645V6.6743H64.666V7.9629C65.1087 6.9824 65.9079 6.4919 67.064 6.4919C68.1742 6.4919 68.8994 6.9924 69.2417 7.9938C69.6478 6.9924 70.4478 6.4919 71.6405 6.4919C73.2682 6.4919 74.0816 7.3464 74.0816 9.0552V14.0766H73.5843ZM77.0238 10.5412C77.081 12.6753 78.0398 13.7414 79.9034 13.7414C80.5294 13.7414 81.0854 13.5857 81.5704 13.2726C82.0544 12.9583 82.4034 12.4988 82.6154 11.8919H83.1274C82.8874 12.7304 82.4614 13.3428 81.8524 13.7264C81.2974 14.0695 80.6354 14.241 79.8664 14.241C78.7592 14.241 77.9123 13.8875 77.3287 13.1796C76.7944 12.513 76.5246 11.5822 76.5246 10.3888C76.5246 9.2364 76.8337 8.298 77.4482 7.5747C78.0623 6.8522 78.892 6.4903 79.9374 6.4903C80.9724 6.4903 81.8004 6.8154 82.4194 7.4649C83.0384 8.1144 83.3494 8.9972 83.3494 10.1129V10.5395H77.0242L77.0238 10.5412ZM79.9444 6.9924C79.0944 6.9924 78.4123 7.2683 77.8963 7.8193C77.3795 8.3703 77.0898 9.1103 77.0242 10.0415H82.7674C82.7484 9.1107 82.4854 8.3707 81.9784 7.8193C81.4724 7.2679 80.7924 6.9924 79.9444 6.9924ZM91.1904 14.0766V9.2067C91.1904 8.4884 90.9854 7.9399 90.5784 7.5605C90.1724 7.1815 89.6264 6.992 88.9424 6.992C88.1384 6.992 87.5024 7.2625 87.0354 7.8034C86.5674 8.3448 86.3344 9.0498 86.3344 9.9192V14.0766H85.8354V6.6743H86.3344V8.0088C86.7974 6.9974 87.6624 6.4924 88.9284 6.4924C89.7324 6.4924 90.3824 6.7048 90.8694 7.1297C91.4154 7.5843 91.6884 8.2262 91.6884 9.0556V14.0766H91.1904ZM100.414 14.0766V12.4069C99.8214 13.6312 98.8484 14.2418 97.4894 14.2418C96.4424 14.2418 95.6244 13.8679 95.0324 13.1199C94.4694 12.4211 94.1864 11.5112 94.1864 10.3892C94.1864 9.246 94.4694 8.3206 95.0324 7.6131C95.6424 6.8651 96.4794 6.4907 97.5414 6.4907C98.9024 6.4907 99.8574 7.0872 100.413 8.2805V6.4907H100.914V14.0749H100.413L100.414 14.0766ZM97.4804 6.9924C96.5944 6.9924 95.8984 7.3313 95.3904 8.0084C94.9204 8.6361 94.6844 9.4292 94.6844 10.3905C94.6844 11.3609 94.9154 12.1494 95.3764 12.7563C95.8834 13.4141 96.5854 13.7418 97.4794 13.7418C98.3664 13.7418 99.0804 13.4141 99.6254 12.7563C100.151 12.1294 100.413 11.3405 100.413 10.3905C100.413 9.3491 100.16 8.5214 99.6514 7.9094C99.1464 7.2979 98.4204 6.9924 97.4804 6.9924ZM103.5 14.0766V3.7909H104V14.0766H103.5Z" fill="white" fill-opacity="0.4" stroke="white" stroke-opacity="0.4" stroke-width="0.811113" stroke-linejoin="round"/>
</svg>
