<svg width="112" height="29" viewBox="0 0 112 29" fill="none" xmlns="http://www.w3.org/2000/svg">
<path d="M0 3.25531C0 2.57551 0.5304 1.98451 1.5324 1.89591C2.2101 1.77761 2.9174 1.71851 3.5657 1.71851C8.428 1.71851 11.1096 4.05321 11.1096 8.04281C11.1096 12.5053 8.4575 14.4262 3.9783 14.4262C3.5068 14.4262 3.0353 14.3671 2.5932 14.2784V21.6666C2.5932 22.3758 2.0333 22.9669 1.2966 22.9669C0.5599 22.9669 0 22.4054 0 21.6666V3.25531ZM2.5932 12.062C3.0647 12.2097 3.6836 12.2393 4.1256 12.2393C6.984 12.2393 8.428 10.4957 8.428 8.04281C8.428 5.58991 6.984 3.90541 4.1256 3.90541C3.6836 3.90541 3.0942 3.90541 2.5932 4.05321V12.062Z" fill="white" fill-opacity="0.4"/>
<path d="M17.6515 21.1642C16.9442 22.3463 15.6771 22.9668 14.1152 22.9668C11.021 22.9668 9.2529 20.6322 9.2529 17.6474C9.2529 14.6626 10.9916 12.3279 14.2036 12.3279C15.7655 12.3279 16.9148 12.9781 17.5925 13.9237V13.51C17.5925 12.8598 18.064 12.3279 18.8007 12.3279C19.4196 12.3279 19.9205 12.7121 19.9205 13.51V21.7848C19.9205 22.5827 19.449 22.9668 18.8007 22.9668C18.1524 22.9668 17.6515 22.6123 17.6515 21.7848V21.1642ZM17.5631 17.6474C17.5631 15.9038 16.5317 14.4262 14.6457 14.4262C12.7597 14.4262 11.6988 15.8742 11.6988 17.6769C11.6988 19.4796 12.7892 20.8687 14.6162 20.8687C16.4433 20.8687 17.5631 19.391 17.5631 17.6474Z" fill="white" fill-opacity="0.4"/>
<path d="M25.608 19.6864C25.608 20.7207 26.0795 20.8685 26.4626 20.8685C26.8457 20.8685 27.0814 20.7207 27.2287 20.6617C27.7592 20.4844 28.2012 21.105 28.2012 21.696C28.2012 21.9915 28.0834 22.3166 27.8181 22.4644C27.3172 22.7599 26.7573 22.9668 25.8437 22.9668C24.1346 22.9668 23.2505 22.1984 23.2505 20.041V14.6625H22.4844C21.8655 14.6625 21.4824 14.3078 21.4824 13.6577C21.4824 13.0075 21.895 12.6529 22.4844 12.6529H23.2505V11.2343C23.2505 10.4069 23.8399 9.96362 24.4293 9.96362C25.0186 9.96362 25.608 10.4069 25.608 11.2343V12.6529H26.9635C27.6413 12.6529 27.995 13.0961 27.995 13.6577C27.995 14.3374 27.5824 14.6625 26.9341 14.6625H25.608V19.6864Z" fill="white" fill-opacity="0.4"/>
<path d="M31.9438 18.2384C32.0322 19.8639 33.2404 21.1346 35.3032 21.1346C36.5114 21.1346 37.3365 20.78 38.0732 20.3367C38.8394 19.9525 39.5172 20.514 39.5172 21.1346C39.5172 21.4301 39.3698 21.7257 39.0457 21.9325C38.1322 22.5531 36.6588 22.9668 35.0674 22.9668C31.1187 22.9668 29.439 20.4549 29.439 17.7065C29.439 14.9581 31.2365 12.3279 34.6549 12.3279C37.8964 12.3279 39.7235 14.5444 39.7235 17.1745C39.7235 17.7656 39.3404 18.2384 38.4858 18.2384H31.9438ZM37.4544 16.6426C37.3365 15.3718 36.423 14.1306 34.7138 14.1306C33.0047 14.1306 32.0911 15.3718 31.9733 16.6426H37.4544Z" fill="white" fill-opacity="0.4"/>
<path d="M41.9927 13.5396C41.9927 12.8598 42.4937 12.3279 43.1714 12.3279C43.7019 12.3279 44.2912 12.6825 44.2912 13.5396V14.3375C44.9396 13.1554 46.2362 12.3279 47.7685 12.3279C50.7743 12.3279 52.6603 14.6626 52.6603 17.6474C52.6603 20.6322 50.7743 22.9964 47.798 22.9964C46.354 22.9964 45.0869 22.2576 44.3502 21.0164V27.0452C44.3502 27.9317 43.7608 28.2568 43.1714 28.2568C42.5821 28.2568 41.9927 27.9022 41.9927 27.0452V13.5396ZM50.2439 17.6769C50.2439 15.6673 49.0062 14.4557 47.297 14.4557C45.5879 14.4557 44.3502 15.9333 44.3502 17.7065C44.3502 19.4796 45.5584 20.8982 47.297 20.8982C49.0357 20.8982 50.2439 19.6569 50.2439 17.6769Z" fill="white" fill-opacity="0.4"/>
<path d="M54.6055 2.19115C54.6055 1.33415 55.1359 0.949951 55.755 0.949951C56.3736 0.949951 56.9632 1.33415 56.9632 2.19115V19.5682C56.9632 20.4548 57.0513 20.9572 57.7881 21.0163C58.1418 21.0458 58.4067 21.2527 58.4067 21.9915C58.4067 22.7303 58.0241 22.9667 57.1986 22.9667C55.1655 22.9667 54.6055 21.6664 54.6055 19.8933V2.19115Z" fill="white" fill-opacity="0.4"/>
<path d="M67.834 21.1642C67.1267 22.3463 65.8595 22.9668 64.2977 22.9668C61.2037 22.9668 59.4355 20.6322 59.4355 17.6474C59.4355 14.6626 61.1741 12.3279 64.3864 12.3279C65.9481 12.3279 67.0972 12.9781 67.7749 13.9237V13.51C67.7749 12.8598 68.2467 12.3279 68.9835 12.3279C69.6021 12.3279 70.103 12.7121 70.103 13.51V21.7848C70.103 22.5827 69.6317 22.9668 68.9835 22.9668C68.3349 22.9668 67.834 22.6123 67.834 21.7848V21.1642ZM67.7458 17.6474C67.7458 15.9038 66.7145 14.4262 64.8281 14.4262C62.9423 14.4262 61.8814 15.8742 61.8814 17.6769C61.8814 19.4796 62.9718 20.8687 64.7986 20.8687C66.6258 20.8687 67.7458 19.391 67.7458 17.6474Z" fill="white" fill-opacity="0.4"/>
<path d="M75.5547 22.0507L72.1361 14.2784C72.0479 14.0715 71.8711 13.776 71.8711 13.4509C71.8711 12.8303 72.372 12.3279 72.9911 12.3279C73.6097 12.3279 73.9338 12.8598 74.1697 13.4509L76.8805 19.9229L79.5623 13.4509C79.7982 12.8598 80.1518 12.3279 80.7704 12.3279C81.3895 12.3279 81.8313 12.7712 81.8313 13.3622C81.8313 13.7169 81.7136 14.0715 81.5954 14.2784L75.8492 26.8087C75.3778 27.784 74.9651 28.3455 74.3465 28.3455C73.7274 28.3455 73.1969 27.8726 73.1969 27.252C73.1969 26.8678 73.521 26.3063 73.6097 26.0699L75.5547 22.0507Z" fill="white" fill-opacity="0.4"/>
<path d="M88.314 12.2488H85.567C84.758 12.2488 84.105 12.9063 84.105 13.7141C84.105 14.5662 84.795 15.2583 85.645 15.2583H88.442C89.436 21.2156 96.229 25.2298 102.788 21.2353C104.804 20.0064 106.44 17.0437 106.44 14.6795V12.2488H88.314Z" fill="white" fill-opacity="0.4"/>
<path d="M108.773 7.80639C107.718 2.91049 101.937 -0.24178 96.473 3.41779C94.803 4.53589 93.82 6.43719 93.82 8.44919V11.0129H110.315C111.246 11.0129 112 10.2568 112 9.32349C112 8.48369 111.322 7.80399 110.485 7.80399H108.773V7.80639ZM103.781 8.72499C103.078 8.72499 102.509 8.15369 102.509 7.44929C102.509 6.74499 103.078 6.17359 103.781 6.17359C104.483 6.17359 105.053 6.74499 105.053 7.44929C105.053 8.15369 104.483 8.72499 103.781 8.72499Z" fill="white" fill-opacity="0.4"/>
</svg>
