<svg width="62" height="18" viewBox="0 0 62 18" fill="none" xmlns="http://www.w3.org/2000/svg">
<path d="M0 2.89575V5.34635H1.9092V15.4662H4.5063V5.34635H6.4195V2.89575H0Z" fill="white" fill-opacity="0.4"/>
<path d="M28.1734 2.89575V15.4662H34.1247V13.0197H30.7705V10.4063H33.4286V7.95565H30.7705V5.34635H34.1247V2.89575H28.1734Z" fill="white" fill-opacity="0.4"/>
<path d="M39.4736 0.949951H36.8765V13.5204H42.8278V11.0698H39.4736V0.949951Z" fill="white" fill-opacity="0.4"/>
<path d="M60.3689 8.81055C60.8809 8.18775 61.1909 7.38575 61.1909 6.51465C61.1909 4.51595 59.5709 2.89575 57.5719 2.89575H54.7713V15.4662H57.637C59.7859 15.4662 61.5289 13.7239 61.5289 11.5746C61.5209 10.4958 61.0809 9.51475 60.3689 8.81055ZM57.4213 5.34635C58.0689 5.34635 58.5899 5.87145 58.5899 6.51465C58.5899 7.16185 58.0649 7.68295 57.4213 7.68295H57.3684V5.34225H57.4213V5.34635ZM58.9229 11.5746C58.9229 12.3724 58.2759 13.0156 57.4823 13.0156H57.3684V10.1295H57.4823C58.2799 10.1335 58.9229 10.7808 58.9229 11.5746Z" fill="white" fill-opacity="0.4"/>
<path d="M16.1607 7.49565C16.1607 4.95555 14.1009 2.89575 11.5608 2.89575H9.73711H8.7561V15.4662H11.3532V12.0916H11.5567C11.7318 12.0916 11.9027 12.0793 12.0696 12.0631L13.7508 15.4662H16.6492L14.4713 11.0495C15.5053 10.2068 16.1607 8.92855 16.1607 7.49565ZM11.3613 9.64505V5.34635H11.4143C12.6029 5.34635 13.5636 6.30705 13.5636 7.49565C13.5636 8.68435 12.6029 9.64505 11.4143 9.64505H11.3613Z" fill="white" fill-opacity="0.4"/>
<path d="M23.1419 12.1811C23.1419 12.8365 22.6087 13.3698 21.9533 13.3698C21.2938 13.3698 20.7647 12.8365 20.7647 12.1811V2.89575H18.1676V12.0305C18.1676 14.1228 19.865 15.8203 21.9574 15.8203C24.0497 15.8203 25.7472 14.1228 25.7472 12.0305V2.89575H23.1501V12.1811H23.1419Z" fill="white" fill-opacity="0.4"/>
<path d="M49.9597 17.404H52.6178L49.9068 4.83374H46.7194L44.0083 17.404H46.6665L46.9718 15.963H49.6544L49.9597 17.404ZM47.4928 13.5125L48.311 9.65754L49.1293 13.5125H47.4928Z" fill="white" fill-opacity="0.4"/>
</svg>
