<svg width="74" height="21" viewBox="0 0 74 21" fill="none" xmlns="http://www.w3.org/2000/svg">
<path fill-rule="evenodd" clip-rule="evenodd" d="M11.3685 0.949951H10.0006L9.96523 0.959551C9.91933 0.972151 9.87193 0.985151 9.82713 0.991151C9.67573 1.01205 9.52423 1.03025 9.37303 1.04825C9.06513 1.08515 8.75833 1.12185 8.45523 1.18205C3.89553 2.08075 0.259932 5.79505 0.0137317 10.5017C-0.0750683 12.1379 0.267932 13.6956 1.01043 15.182C3.05623 19.2783 7.91453 21.6447 12.6154 20.7685C16.36 20.0721 18.9788 18.0277 20.5404 14.8039C20.5777 14.7272 20.6115 14.6473 20.6476 14.5619C20.6661 14.518 20.6853 14.4727 20.7058 14.4257C21.7509 15.2195 22.9171 15.6201 24.2567 15.5153C25.6045 15.4104 26.7101 14.8638 27.5776 13.9127C29.0222 12.3289 29.0747 9.93625 27.7027 8.28875C27.0167 7.46875 26.1411 6.89965 25.0516 6.65625C23.4699 6.30425 22.0374 6.63005 20.7583 7.58855C20.7431 7.55505 20.7287 7.52645 20.7157 7.50055C20.7012 7.47165 20.6882 7.44575 20.6776 7.42005C20.0037 5.77255 18.9384 4.37595 17.4777 3.24895C15.9605 2.07325 14.2214 1.33935 12.2603 1.06605C11.9659 1.02485 11.667 0.987351 11.3685 0.949951ZM3.79463 10.5092C3.79063 9.88385 3.91973 9.28475 4.21833 8.71185C3.55653 8.20265 3.53643 7.49495 3.81883 7.01195C4.27483 6.24435 5.38853 6.12835 6.03813 6.79105C6.13503 6.89215 6.19963 6.89585 6.32463 6.84725C7.99523 6.21065 9.51243 6.44655 10.8843 7.52865C10.9368 7.57355 10.9933 7.61855 11.0215 7.64095C11.1431 7.56375 11.26 7.48385 11.3755 7.40485C11.6014 7.25055 11.8224 7.09955 12.0626 6.97825C14.6249 5.69025 17.7602 7.12055 18.2444 9.79025C18.2888 10.0449 18.317 10.307 18.317 10.5691C18.3201 11.5048 18.3163 12.4425 18.3125 13.3793L18.3124 13.3863C18.3112 13.6955 18.31 14.0045 18.309 14.3134C18.309 14.7065 18.1798 15.051 17.8328 15.2981C17.4575 15.5677 17.0339 15.6201 16.6021 15.4367C16.1582 15.2457 15.9242 14.905 15.8838 14.4519C15.8812 14.4145 15.8821 14.377 15.8829 14.3396C15.8834 14.3209 15.8838 14.3021 15.8838 14.2834C15.8818 13.6413 15.8808 12.9982 15.8798 12.3551C15.8788 11.712 15.8778 11.0689 15.8758 10.4268C15.8717 9.60305 15.1333 8.84665 14.2779 8.78675C13.2933 8.71565 12.45 9.29595 12.3168 10.1684C12.2666 10.478 12.2674 10.7964 12.2682 11.1132L12.2684 11.2318C12.2638 11.8373 12.2644 12.4441 12.2651 13.0507C12.2656 13.5054 12.2661 13.9605 12.2643 14.4145C12.2603 14.9649 11.8043 15.4554 11.2394 15.5228C10.6099 15.6014 10.045 15.2644 9.88773 14.7028C9.85133 14.5717 9.83923 14.4294 9.83923 14.2946C9.83723 13.8678 9.83723 13.44 9.83723 13.0122C9.83723 12.5844 9.83723 12.1567 9.83523 11.7298C9.83523 11.2806 9.82713 10.8315 9.81913 10.3823C9.80293 9.55095 9.03223 8.82415 8.16473 8.78305C7.05103 8.72685 6.28833 9.54305 6.25203 10.307L6.25153 10.318C6.23553 10.64 6.21973 10.9584 6.21973 11.2805C6.21613 11.7605 6.21663 12.2396 6.21713 12.7187C6.21773 13.2936 6.21833 13.8685 6.21173 14.4444C6.20763 15.0585 5.65883 15.549 5.00923 15.5452C4.35553 15.5415 3.81483 15.051 3.81083 14.4407C3.80473 13.6458 3.80553 12.8489 3.80623 12.053C3.80653 11.7878 3.80673 11.5228 3.80673 11.258C3.80673 11.1326 3.80373 11.0081 3.80073 10.8836C3.79763 10.7591 3.79463 10.6346 3.79463 10.5092ZM26.3106 10.9435C26.3388 12.2652 25.2615 13.2799 23.8815 13.2799C22.7799 13.3136 21.4483 12.5161 21.4644 10.9547C21.4725 9.64045 22.6588 8.75305 23.8895 8.75305C25.1404 8.75305 26.2824 9.67415 26.3106 10.9435Z" fill="white" fill-opacity="0.4"/>
<path d="M73.9744 13.1347L73.9924 13.0816C73.9924 12.8572 73.9924 12.632 74.0004 12.4076C73.9974 12.4005 73.9954 12.3935 73.9924 12.3866L73.9884 12.3748L73.9814 12.3573C73.9684 12.3269 73.9564 12.2969 73.9514 12.2653C73.7494 11.0971 72.5794 10.1123 71.3084 10.0637C70.8854 10.0492 70.4614 10.0487 70.0374 10.0482C69.8014 10.0479 69.5664 10.0476 69.3314 10.0449L69.2744 10.0443L69.1334 10.0432C68.9024 10.0416 68.6734 10.04 68.4434 10.0225C68.2014 10.0075 68.0404 9.86518 67.9714 9.64798C67.8584 9.27738 68.1204 8.94788 68.5404 8.94788C69.2024 8.94358 69.8624 8.94418 70.5234 8.94478C71.0184 8.94528 71.5144 8.94568 72.0104 8.94408C72.6604 8.94408 73.1124 8.62578 73.3184 8.05298C73.5844 7.30408 72.9344 6.39418 72.0514 6.42048C71.2894 6.44288 70.5264 6.43878 69.7634 6.43458C69.3824 6.43248 69.0014 6.43038 68.6214 6.43168C68.4154 6.43538 68.2054 6.45038 68.0034 6.49158C66.5914 6.77618 65.6154 7.87698 65.5624 9.22118C65.4984 10.7676 66.8574 12.2279 68.6334 12.1829C69.2044 12.1713 69.7724 12.1755 70.3424 12.1797C70.5054 12.1809 70.6684 12.1821 70.8324 12.1829C70.9374 12.1829 71.0504 12.1904 71.1514 12.2129C71.4904 12.2915 71.6634 12.606 71.5464 12.9131C71.4534 13.1527 71.2404 13.2763 70.9094 13.2763C70.4444 13.2763 69.9804 13.2758 69.5174 13.2754H69.5094C68.5774 13.2746 67.6454 13.2738 66.7124 13.2763C65.9864 13.2763 65.4574 13.8529 65.5664 14.5231C65.6474 15.0473 66.1434 15.4217 66.7694 15.4255C67.9554 15.4292 69.1374 15.4292 70.3204 15.4255C70.6834 15.4255 71.0464 15.4255 71.4054 15.3918C72.6204 15.2794 73.6244 14.452 73.9114 13.3436C73.9274 13.2751 73.9514 13.2042 73.9744 13.1347Z" fill="white" fill-opacity="0.4"/>
<path fill-rule="evenodd" clip-rule="evenodd" d="M30.2634 13.2724C30.2049 13.1143 30.1436 12.9598 30.083 12.8072C29.9514 12.4758 29.8232 12.153 29.7348 11.8197C29.65 11.4978 29.6462 11.1487 29.6425 10.8114L29.642 10.7638C29.6299 9.37841 29.6259 7.99301 29.6218 6.60761C29.6178 5.85131 29.6178 5.09871 29.6218 4.34231C29.6218 3.72451 30.1141 3.22651 30.8162 3.13291C31.4175 3.05051 32.1034 3.45871 32.2689 4.00531C32.3012 4.11761 32.3052 4.23751 32.3052 4.35731C32.3052 5.18851 32.3052 6.01601 32.3012 6.84721V7.08311C33.657 6.39421 35.041 6.34551 36.4452 6.84721C37.4177 7.19551 38.1642 7.80951 38.713 8.62951C39.8307 10.2957 39.6491 12.4562 38.3095 13.9277C37.0424 15.3206 34.585 16.1668 32.1761 14.9574C31.825 15.5265 31.2964 15.7886 30.5943 15.6313C30.0334 15.5078 29.6783 15.1521 29.5896 14.6241C29.4927 14.0363 29.7146 13.557 30.2634 13.2724ZM34.6012 13.2799C35.731 13.3099 37.0222 12.4786 37.0263 10.9585C37.0263 9.75281 35.9247 8.77181 34.6173 8.75681C33.322 8.74561 32.2003 9.70411 32.1801 10.9248C32.1559 12.2765 33.2131 13.2799 34.6012 13.2799Z" fill="white" fill-opacity="0.4"/>
<path fill-rule="evenodd" clip-rule="evenodd" d="M57.5327 11.1307C57.5488 8.46846 55.273 6.50646 52.7067 6.52516C50.1242 6.51016 47.8564 8.49836 47.8887 11.1569C47.917 13.5307 50.1121 15.5414 52.7147 15.5414C55.3214 15.5377 57.5206 13.512 57.5327 11.1307ZM52.8882 8.76046C54.1149 8.81666 55.1721 9.86876 55.1277 11.0183C55.1398 12.3176 53.9656 13.3697 52.5291 13.2799C51.4073 13.2087 50.1887 12.3288 50.2936 10.8161C50.3743 9.67036 51.4517 8.69306 52.8882 8.76046Z" fill="white" fill-opacity="0.4"/>
<path d="M62.4638 6.42905C62.8395 6.43055 63.2013 6.43205 63.5652 6.42405C64.1465 6.40905 64.5414 6.66745 64.7794 7.13175C65.0304 7.61475 64.9494 8.07905 64.5984 8.49835C64.3404 8.80545 63.9971 8.94395 63.5774 8.94025C63.2351 8.93775 62.8927 8.93855 62.5422 8.93935C62.3638 8.93975 62.1833 8.94025 61.9996 8.94025C61.998 8.97025 61.9959 8.99815 61.9939 9.02485C61.9906 9.06795 61.9875 9.10845 61.9875 9.14985C61.9875 10.1482 61.9915 11.1429 61.9955 12.1413L61.9956 12.1453C61.9996 12.823 62.4798 13.2723 63.2061 13.2761C63.2657 13.2761 63.3253 13.275 63.3847 13.2739C63.5749 13.2705 63.7643 13.2672 63.9486 13.2985C64.5455 13.3959 64.9494 13.8527 64.9294 14.3694C64.9094 14.9161 64.4934 15.3616 63.8678 15.414C63.1496 15.474 62.4313 15.4552 61.7494 15.1782C60.6236 14.7251 59.9538 13.9163 59.7641 12.808C59.6925 12.379 59.6959 11.9398 59.6993 11.501C59.7005 11.3461 59.7017 11.1913 59.6996 11.037C59.6931 10.5182 59.697 9.99715 59.7009 9.47745L59.7036 9.08995C59.7036 8.97765 59.6511 8.94025 59.5301 8.94025C59.4126 8.94185 59.2943 8.94135 59.1759 8.94095C59.018 8.94025 58.8597 8.93965 58.7029 8.94395C57.8353 8.95895 57.2462 8.14265 57.4278 7.40505C57.5488 6.91835 58.0048 6.38285 58.7634 6.42775C58.9018 6.43625 59.0414 6.43395 59.1815 6.43175C59.2908 6.43005 59.4003 6.42825 59.5099 6.43155C59.6511 6.43525 59.6996 6.39035 59.6955 6.25935C59.6915 5.91105 59.6875 5.55915 59.7076 5.21095C59.7359 4.78035 60.1111 4.38715 60.555 4.28985C61.2854 4.12885 61.9673 4.63055 61.9794 5.34195C61.9987 5.62585 61.9975 5.90975 61.9962 6.20315V6.20815C61.996 6.25095 61.9958 6.29395 61.9957 6.33715C61.9956 6.36725 61.9956 6.39745 61.9956 6.42775C62.1546 6.42775 62.3105 6.42845 62.4638 6.42905Z" fill="white" fill-opacity="0.4"/>
<path d="M46.9572 10.7946C46.959 10.3086 46.9607 9.8227 46.9607 9.3372C46.9567 7.6767 46.9567 6.02 46.9567 4.3633V4.3573C46.9567 4.2375 46.9526 4.1064 46.9163 3.9904C46.7428 3.4512 46.0609 3.0543 45.4677 3.1367C44.7656 3.234 44.2733 3.7245 44.2733 4.3461C44.2693 6.6675 44.2693 8.9852 44.2693 11.3067C44.2693 11.612 44.2708 11.9173 44.2724 12.2226C44.2758 12.9096 44.2792 13.5965 44.2653 14.2834C44.2491 15.0547 44.9795 15.5377 45.6251 15.5377C46.2788 15.5377 46.9809 15.0248 46.9688 14.2946C46.9488 13.1289 46.953 11.9614 46.9572 10.7946Z" fill="white" fill-opacity="0.4"/>
<path d="M42.7158 11.022C42.7158 11.3537 42.7164 11.6853 42.7171 12.017C42.7187 12.8461 42.7204 13.6751 42.7117 14.5042C42.7037 15.0846 42.167 15.5489 41.5617 15.5414C40.9524 15.5339 40.4319 15.0621 40.4319 14.4855C40.4295 13.5529 40.4314 12.6203 40.4334 11.6884C40.4346 11.0681 40.4359 10.447 40.4359 9.82763C40.4359 9.61133 40.4353 9.39533 40.4346 9.17953C40.433 8.64063 40.4313 8.10223 40.44 7.56233C40.4521 6.84343 41.243 6.34543 41.9612 6.58883C42.3889 6.73483 42.7077 7.13543 42.7077 7.56603C42.7104 8.29373 42.7095 9.01963 42.7086 9.74613V9.74953C42.7082 10.1135 42.7077 10.4777 42.7077 10.8423V11.0295C42.7117 11.022 42.7117 11.022 42.7158 11.022Z" fill="white" fill-opacity="0.4"/>
<path d="M43.0347 4.65688C43.0307 3.95668 42.4375 3.41748 41.6829 3.42128C40.9203 3.42498 40.3433 3.97168 40.3473 4.69428C40.3514 5.39448 40.9405 5.93738 41.691 5.93738C42.4577 5.93738 43.0387 5.38328 43.0347 4.65688Z" fill="white" fill-opacity="0.4"/>
</svg>
