<svg width="50" height="24" viewBox="0 0 50 24" fill="none" xmlns="http://www.w3.org/2000/svg">
<path fill-rule="evenodd" clip-rule="evenodd" d="M0.0718079 15.003V13.8852H2.77131V15.1861C2.77131 16.3768 3.19231 16.9725 4.03371 16.9725H4.04431C4.87801 16.9725 5.29541 16.3787 5.29541 15.1919C5.29541 14.5137 5.11571 13.8781 4.75521 13.2843C4.39531 12.6906 3.96491 12.1478 3.46391 11.6559L2.11081 10.13C1.55171 9.59615 1.08391 8.93475 0.707409 8.14635C0.330309 7.35725 0.141708 6.48375 0.141708 5.52575C0.141708 4.05145 0.497507 2.92065 1.20901 2.13225C1.91991 1.34385 2.88641 0.949951 4.10721 0.949951C5.32801 0.949951 6.26541 1.34385 6.92001 2.13165C7.57461 2.91945 7.90191 4.05015 7.90191 5.52385V6.10855H5.41221V5.34655C5.41221 4.15205 4.97231 3.55435 4.09181 3.55435C3.21131 3.55435 2.77131 4.15265 2.77131 5.34785C2.77131 5.84815 2.86741 6.32515 3.05891 6.77905C3.25041 7.23285 3.49881 7.64155 3.80421 8.00645C4.10961 8.37065 4.44631 8.73105 4.81391 9.08685C5.18161 9.44335 5.54501 9.81665 5.90311 10.2067C6.26131 10.5967 6.59271 11.0138 6.89691 11.4593C7.20041 11.9041 7.44771 12.4302 7.63861 13.0361C7.82951 13.6428 7.92501 14.3016 7.92501 15.014C7.92501 16.4844 7.59001 17.6125 6.92001 18.3984C6.25001 19.1842 5.30431 19.5774 4.08291 19.5774C2.86151 19.5774 1.88731 19.1837 1.16101 18.3959C0.434611 17.6081 0.0718079 16.4767 0.0718079 15.003Z" fill="white" fill-opacity="0.4"/>
<path fill-rule="evenodd" clip-rule="evenodd" d="M12.049 9.93375H13.2995C13.7276 9.93375 14.0489 9.80225 14.2636 9.53985C14.4776 9.27745 14.5849 8.83265 14.5849 8.20535V5.47395C14.5849 4.84665 14.4776 4.40445 14.2636 4.14595C14.0489 3.88745 13.7276 3.75855 13.2995 3.75855H12.049V9.93375ZM9.4194 19.3742V1.15405H13.2936C15.9072 1.15405 17.2145 2.65935 17.2145 5.66925V8.03585C17.2145 11.0374 15.9083 12.5389 13.2965 12.5389H12.049V19.3742H9.4194Z" fill="white" fill-opacity="0.4"/>
<path fill-rule="evenodd" clip-rule="evenodd" d="M21.0715 9.36255H22.0996C22.6297 9.36255 23.0252 9.21425 23.286 8.91775C23.5469 8.62115 23.6774 8.12605 23.6774 7.43115V5.63965C23.6851 4.38645 23.241 3.75915 22.3451 3.75915H21.0715V9.36255ZM18.4419 19.3749V1.15405H22.4097C23.7627 1.15405 24.7511 1.49765 25.3731 2.18425C25.9957 2.87085 26.307 3.92615 26.307 5.35015V6.78645C26.307 8.65985 25.733 9.89315 24.5851 10.4863C25.7484 11.0207 26.3301 12.3132 26.3301 14.3645V17.1682V17.2823C26.3301 18.2125 26.4238 18.9101 26.6105 19.3749H23.9448C23.79 18.8591 23.7088 18.1152 23.7011 17.1424V14.2885C23.7011 13.4601 23.5665 12.8657 23.2979 12.5066C23.0287 12.1469 22.5905 11.9677 21.9828 11.9677H21.0715V19.3749H18.4419Z" fill="white" fill-opacity="0.4"/>
<path fill-rule="evenodd" clip-rule="evenodd" d="M28.0601 19.3749H30.6897V1.15405H28.0601V19.3749Z" fill="white" fill-opacity="0.4"/>
<path fill-rule="evenodd" clip-rule="evenodd" d="M35.2351 16.7698H36.7429C37.2024 16.7698 37.5451 16.6363 37.771 16.3694C37.9969 16.1026 38.1101 15.639 38.1101 14.9783V13.3898C38.1101 12.5595 37.9797 11.9838 37.7182 11.6621C37.4573 11.3398 37.0233 11.1793 36.4156 11.1793H35.2351V16.7698ZM35.2351 8.57415H36.2679C36.7998 8.57415 37.197 8.42585 37.4591 8.12935C37.7218 7.83275 37.8528 7.34155 37.8528 6.65565V5.63895C37.8605 4.38575 37.4146 3.75855 36.5146 3.75855H35.2351V8.57415ZM32.6055 19.3749V1.15405H36.5792C37.9346 1.15405 38.9242 1.49705 39.5474 2.18295C40.1705 2.86885 40.4824 3.92355 40.4824 5.34695V5.99485C40.4824 7.86695 39.9138 9.09115 38.776 9.66685C40.0851 10.2258 40.7391 11.5267 40.7391 13.5677V15.0543C40.7391 16.4603 40.4006 17.5324 39.7229 18.2693C39.0446 19.0061 38.0514 19.3749 36.7429 19.3749H32.6055Z" fill="white" fill-opacity="0.4"/>
<path fill-rule="evenodd" clip-rule="evenodd" d="M42.3174 19.3749V1.15405H49.4929V3.75915H44.947V8.82875H48.5579V11.4333H44.947V16.7698H49.4929V19.3749H42.3174Z" fill="white" fill-opacity="0.4"/>
<path fill-rule="evenodd" clip-rule="evenodd" d="M0 23.0846H49.5295V20.5549H0V23.0846Z" fill="white" fill-opacity="0.4"/>
</svg>
