<svg width="95" height="24" viewBox="0 0 95 24" fill="none" xmlns="http://www.w3.org/2000/svg">
<path fill-rule="evenodd" clip-rule="evenodd" d="M83.2908 9.17762C83.3348 9.19712 83.3788 9.21802 83.4198 9.24032C83.6458 9.35492 83.8538 9.49952 84.0408 9.67022C84.3358 9.92972 84.5688 10.2514 84.7228 10.6118C84.8518 10.9137 84.9228 11.2365 84.9338 11.564V11.5978L90.5948 5.15432L90.6728 5.06542L94.1888 1.05582C94.4468 0.760924 94.4868 0.496223 94.3668 0.274123C94.3608 0.272323 94.3548 0.269123 94.3508 0.264823C94.3468 0.260523 94.3428 0.255223 94.3408 0.249223C94.3288 0.223823 94.3158 0.199423 94.2988 0.176423C94.2658 0.135623 94.2288 0.098223 94.1888 0.064523C94.1158 0.018523 94.0308 -0.00377713 93.9438 0.000522874H90.4998C90.2118 0.000422874 89.9228 0.0235235 89.6388 0.0698235C88.6948 0.411724 87.8498 0.980423 87.1788 1.72552C85.7698 3.33242 84.5428 5.95392 83.6868 8.11132L83.2908 9.17762ZM86.3028 3.89472C86.1348 4.28702 85.9978 4.69142 85.8928 5.10452C85.8238 5.38342 85.7678 5.66592 85.7178 5.95192C85.6968 6.08862 85.6758 6.22562 85.6558 6.36052C85.6058 6.77092 85.5638 7.18132 85.5418 7.60412C85.5268 7.90622 85.5048 8.20202 85.4838 8.49592C85.4748 8.61332 85.4658 8.73062 85.4578 8.84772C85.4348 9.13732 85.4008 9.42682 85.3598 9.71462C85.3538 9.76092 85.3468 9.80702 85.3388 9.85322C85.3348 9.87632 85.3318 9.89942 85.3278 9.92252C85.2598 10.3768 85.1638 10.8265 85.0408 11.2691C85.2888 10.8515 85.4848 10.4053 85.6248 9.94032L87.3158 7.65742L88.2078 6.46182L85.8218 9.19592C85.8418 9.09822 85.8588 9.00052 85.8768 8.90272C85.9108 8.72512 85.9378 8.54752 85.9608 8.36982L88.1918 5.33192L86.0378 7.77292C86.0388 7.75772 86.0408 7.74212 86.0438 7.72652C86.0478 7.70202 86.0518 7.67702 86.0518 7.65212L86.1178 6.99482L86.1298 7.00542L87.7138 4.80782L88.0488 4.34062L87.6398 4.80612L86.1928 6.41562C86.2248 6.15512 86.2638 5.89572 86.3108 5.63752L88.0228 3.23032L86.4438 4.96952C86.5158 4.65682 86.5948 4.34772 86.6938 4.04392C86.9578 3.26192 87.2778 2.49962 87.6508 1.76292C87.0928 2.39942 86.6388 3.11862 86.3028 3.89472Z" fill="white" fill-opacity="0.4"/>
<path d="M31.53 4.71737C31.3665 4.71737 31.2402 4.66557 31.1511 4.56197C31.0619 4.44347 31.0322 4.30287 31.0619 4.13997L31.5077 2.07447C31.5374 1.91157 31.6191 1.77837 31.7528 1.67467C31.9015 1.55627 32.0501 1.49707 32.1987 1.49707H34.9847C35.1482 1.49707 35.2745 1.55627 35.3636 1.67467C35.4528 1.77837 35.4825 1.91157 35.4528 2.07447L34.9847 4.13997C34.9699 4.30287 34.8956 4.44347 34.7618 4.56197C34.6281 4.66557 34.4795 4.71737 34.3161 4.71737H31.53Z" fill="white" fill-opacity="0.4"/>
<path d="M28.7212 17.8653C28.5577 17.8653 28.4314 17.8135 28.3423 17.7098C28.268 17.5914 28.2457 17.4581 28.2754 17.3101L30.482 6.87171C30.5117 6.72361 30.5934 6.59771 30.7272 6.49411C30.8609 6.37571 31.0095 6.31641 31.173 6.31641H33.959C34.1225 6.31641 34.2414 6.36831 34.3157 6.47191C34.4048 6.57551 34.4345 6.70881 34.4048 6.87171L32.1759 17.3101C32.1462 17.473 32.0645 17.6062 31.9307 17.7098C31.8119 17.8135 31.6707 17.8653 31.5072 17.8653H28.7212Z" fill="white" fill-opacity="0.4"/>
<path fill-rule="evenodd" clip-rule="evenodd" d="M0.111399 17.7543C0.185699 17.8283 0.2897 17.8654 0.4235 17.8654H3.477C3.8336 17.8654 4.116 17.7025 4.324 17.3768L5.6167 15.2225H11.4341L11.7907 17.3324C11.8501 17.6877 12.0804 17.8654 12.4816 17.8654H15.3123C15.4758 17.8654 15.6095 17.8062 15.7135 17.6877C15.8176 17.5693 15.8621 17.4064 15.8472 17.1991L13.6852 2.96295C13.6258 2.53355 13.3732 2.31885 12.9274 2.31885H9.3167C8.8857 2.31885 8.544 2.53355 8.2914 2.96295L0.0667992 17.1991C0.0222992 17.288 0 17.3694 0 17.4434C0 17.5618 0.0370987 17.6655 0.111399 17.7543ZM11.2112 11.8911H7.2438L10.4311 6.22775L11.2112 11.8911Z" fill="white" fill-opacity="0.4"/>
<path d="M18.8017 17.732C18.8908 17.8209 19.0394 17.8653 19.2475 17.8653H21.7884C21.9964 17.8653 22.1599 17.8209 22.2788 17.732C22.4125 17.6284 22.5388 17.4877 22.6576 17.3101L29.0545 7.00491C29.1288 6.88651 29.166 6.78281 29.166 6.69401C29.166 6.57551 29.1288 6.48671 29.0545 6.42751C28.9802 6.35341 28.8762 6.31641 28.7425 6.31641H25.8895C25.5775 6.31641 25.3323 6.47191 25.154 6.78281L21.2758 13.4234L20.2728 6.8273C20.2282 6.6644 20.1613 6.53851 20.0722 6.44971C19.9979 6.36081 19.8641 6.31641 19.671 6.31641H17.1746C16.9517 6.31641 16.7883 6.37571 16.6843 6.49411C16.5951 6.61261 16.5654 6.76801 16.5951 6.96051L18.6234 17.3101C18.668 17.4877 18.7274 17.6284 18.8017 17.732Z" fill="white" fill-opacity="0.4"/>
<path fill-rule="evenodd" clip-rule="evenodd" d="M35.7129 17.0878C36.3964 17.7541 37.3623 18.0873 38.6105 18.0873C39.398 18.0873 40.0518 17.9688 40.5719 17.7319C41.0919 17.4802 41.612 17.1101 42.1321 16.6215L41.9761 17.31C41.9463 17.458 41.9761 17.5913 42.0652 17.7097C42.1544 17.8134 42.2807 17.8652 42.4441 17.8652H45.0965C45.2451 17.8652 45.3863 17.8134 45.52 17.7097C45.6537 17.6061 45.7354 17.4729 45.7651 17.31L47.994 6.87164C48.0237 6.72354 47.994 6.59764 47.9049 6.49404C47.8157 6.37564 47.6894 6.31634 47.526 6.31634H44.8959C44.7325 6.31634 44.5839 6.36824 44.4501 6.47184C44.3313 6.57544 44.257 6.70874 44.2272 6.87164L44.0935 7.42684C43.7815 6.99744 43.3877 6.67174 42.9122 6.44964C42.4367 6.21274 41.7829 6.09424 40.9508 6.09424C39.45 6.09424 38.2167 6.55324 37.2508 7.47124C36.285 8.37444 35.5866 9.64774 35.1557 11.2912L34.8214 12.8681C34.7471 13.253 34.7099 13.6972 34.7099 14.2006C34.7099 15.4444 35.0443 16.4068 35.7129 17.0878ZM41.8423 14.4006C41.4411 14.8003 40.9137 15.0002 40.2598 15.0002C39.7546 15.0002 39.398 14.8744 39.19 14.6226C38.9819 14.3709 38.8779 14.0082 38.8779 13.5344C38.8779 13.2975 38.9002 13.0458 38.9448 12.7793C38.9894 12.3647 39.086 11.9057 39.2346 11.4023C39.4425 10.7064 39.7323 10.166 40.1038 9.78104C40.4753 9.38124 40.9805 9.18144 41.6194 9.18144C42.1395 9.18144 42.5184 9.31464 42.7562 9.58114C42.9939 9.84764 43.1128 10.2104 43.1128 10.6694C43.1128 10.773 43.0979 10.9433 43.0682 11.1802C42.9939 11.6688 42.875 12.224 42.7116 12.8459C42.5481 13.4677 42.2584 13.986 41.8423 14.4006Z" fill="white" fill-opacity="0.4"/>
<path d="M54.4328 17.8653C51.6541 17.8653 50.2648 16.8289 50.2648 14.756C50.2648 14.3414 50.3168 13.9047 50.4208 13.4457L51.2901 9.33688H49.5516C49.3881 9.33688 49.2618 9.28508 49.1726 9.18148C49.0835 9.06298 49.0612 8.92978 49.1058 8.78168L49.4847 6.87168C49.5144 6.72358 49.5961 6.59778 49.7299 6.49408C49.8636 6.37568 50.0122 6.31638 50.1756 6.31638H51.9364L52.7165 2.65188C52.7463 2.48898 52.828 2.35578 52.9617 2.25208C53.0955 2.14848 53.2366 2.09668 53.3852 2.09668H56.1267C56.2902 2.09668 56.409 2.15588 56.4833 2.27438C56.5725 2.37798 56.6022 2.50388 56.5725 2.65188L55.7924 6.31638H58.5785C58.7419 6.31638 58.8608 6.36828 58.9351 6.47188C59.0242 6.57558 59.054 6.70878 59.0242 6.87168L58.623 8.78168C58.5934 8.94458 58.5116 9.07778 58.3779 9.18148C58.2442 9.28508 58.103 9.33688 57.9544 9.33688H55.146L54.3436 13.1125C54.2842 13.3642 54.2544 13.6159 54.2544 13.8676C54.2544 14.149 54.3213 14.3563 54.455 14.4895C54.6036 14.6228 54.8489 14.6894 55.1906 14.6894H56.996C57.1594 14.6894 57.2783 14.7486 57.3526 14.867C57.4418 14.9707 57.4715 15.1039 57.4418 15.2668L56.996 17.3101C56.9663 17.473 56.8845 17.6062 56.7508 17.7098C56.6171 17.8135 56.4759 17.8653 56.3273 17.8653H54.4328Z" fill="white" fill-opacity="0.4"/>
<path d="M58.8623 17.7098C58.9515 17.8135 59.0778 17.8653 59.2412 17.8653H62.1833C62.3465 17.8653 62.4955 17.8135 62.6289 17.7098C62.763 17.6062 62.8446 17.473 62.8744 17.3101L64.0779 11.7133C64.1965 11.1211 64.4491 10.6621 64.8357 10.3363C65.2218 10.0106 65.7121 9.84771 66.3067 9.84771H68.5582C68.7214 9.84771 68.8698 9.79591 69.0038 9.69221C69.1373 9.57381 69.2118 9.44051 69.2267 9.29251L69.739 6.87171C69.7688 6.70881 69.739 6.57551 69.6503 6.47191C69.5758 6.36831 69.4644 6.31641 69.3154 6.31641H68.0232C67.2504 6.31641 66.5963 6.44231 66.0618 6.69401C65.5268 6.93091 65.0657 7.27881 64.6796 7.73781L64.8578 6.89391C64.8876 6.73101 64.8578 6.59771 64.769 6.49411C64.6945 6.37571 64.5754 6.31641 64.4121 6.31641H61.693C61.5297 6.31641 61.3808 6.37571 61.2473 6.49411C61.1133 6.59771 61.0317 6.73101 61.0019 6.89391L58.7954 17.3101C58.7657 17.4581 58.788 17.5914 58.8623 17.7098Z" fill="white" fill-opacity="0.4"/>
<path d="M72.3666 4.71737C72.2028 4.71737 72.0765 4.66557 71.9877 4.56197C71.8984 4.44347 71.8686 4.30287 71.8984 4.13997L72.344 2.07447C72.3738 1.91157 72.4554 1.77837 72.5895 1.67467C72.7378 1.55627 72.8868 1.49707 73.0351 1.49707H75.8208C75.9848 1.49707 76.1108 1.55627 76.1998 1.67467C76.2888 1.77837 76.3188 1.91157 76.2888 2.07447L75.8208 4.13997C75.8058 4.30287 75.7318 4.44347 75.5978 4.56197C75.4648 4.66557 75.3158 4.71737 75.1525 4.71737H72.3666Z" fill="white" fill-opacity="0.4"/>
<path d="M69.5581 17.8653C69.3948 17.8653 69.2685 17.8135 69.1791 17.7098C69.1047 17.5914 69.0826 17.4581 69.1124 17.3101L71.3186 6.87171C71.3484 6.72361 71.43 6.59771 71.5641 6.49411C71.6975 6.37571 71.8465 6.31641 72.0097 6.31641H74.7956C74.9594 6.31641 75.078 6.36831 75.1525 6.47191C75.2418 6.57551 75.2718 6.70881 75.2418 6.87171L73.013 17.3101C72.9832 17.473 72.9016 17.6062 72.7675 17.7098C72.649 17.8135 72.5078 17.8653 72.3439 17.8653H69.5581Z" fill="white" fill-opacity="0.4"/>
<path fill-rule="evenodd" clip-rule="evenodd" d="M77.1338 7.10943L79.2958 11.4408C79.2618 11.6107 79.2428 11.7866 79.2428 11.9667C79.2428 13.4135 80.4208 14.5862 81.8728 14.5862C83.3248 14.5862 84.5008 13.4135 84.5008 11.9667C84.5008 10.7112 83.6148 9.66203 82.4308 9.40673L81.0338 6.73183C80.9148 6.46533 80.7138 6.33203 80.4318 6.33203H77.6678C77.5048 6.33203 77.3638 6.39873 77.2448 6.53193C77.1408 6.65033 77.0888 6.78363 77.0888 6.93173C77.0888 6.96133 77.1038 7.02053 77.1338 7.10943ZM81.8728 12.9656C82.4258 12.9656 82.8748 12.5184 82.8748 11.9667C82.8748 11.4151 82.4258 10.968 81.8728 10.968C81.3188 10.968 80.8698 11.4151 80.8698 11.9667C80.8698 12.5184 81.3188 12.9656 81.8728 12.9656Z" fill="white" fill-opacity="0.4"/>
<path fill-rule="evenodd" clip-rule="evenodd" d="M80.4018 14.7598C80.4428 14.7822 80.4858 14.8031 80.5308 14.8225L80.1348 15.8888C79.2788 18.0462 78.0518 20.6677 76.6428 22.2746C75.9718 23.0197 75.1269 23.5884 74.1826 23.9303C73.8978 23.9766 73.61 23.9998 73.3216 23.9996H69.8768C69.791 24.0039 69.7058 23.9816 69.6326 23.9356C69.5926 23.902 69.5557 23.8645 69.5223 23.8237C69.5062 23.8007 69.4925 23.7763 69.4812 23.7509C69.4788 23.7449 69.4753 23.7396 69.4711 23.7353C69.4663 23.731 69.4604 23.7278 69.4544 23.726C69.3353 23.5039 69.3746 23.2392 69.6326 22.9443L73.1489 18.9347L73.2269 18.8458L78.8878 12.4023V12.4361C78.8988 12.7637 78.9698 13.0864 79.0988 13.3883C79.2528 13.7487 79.4858 14.0704 79.7808 14.3299C79.9668 14.5006 80.1758 14.6452 80.4018 14.7598ZM77.9288 18.8956C77.8238 19.3087 77.6858 19.7132 77.5188 20.1054C77.1828 20.8815 76.7288 21.6007 76.1708 22.2373C76.5438 21.5005 76.8638 20.7382 77.1278 19.9562C77.2268 19.6524 77.3058 19.3433 77.3778 19.0306L75.7988 20.7698L77.5108 18.3626C77.5578 18.1045 77.5968 17.845 77.6288 17.5845L76.1818 19.194L75.7728 19.6595L76.1078 19.1923L77.6918 16.9947L77.7038 17.0053L77.7698 16.3481C77.7698 16.3231 77.7738 16.2982 77.7778 16.2737C77.7808 16.258 77.7828 16.2425 77.7838 16.2272L75.6308 18.6682L77.8608 15.6303C77.8838 15.4527 77.9108 15.275 77.9448 15.0974C77.9618 14.9996 77.9798 14.9019 77.9998 14.8042L75.6138 17.5383L76.5058 16.3427L78.1958 14.0598C78.3358 13.5948 78.5328 13.1486 78.7808 12.731C78.6578 13.1736 78.5618 13.6234 78.4938 14.0776C78.4898 14.1007 78.4868 14.1238 78.4828 14.1469C78.4748 14.1931 78.4678 14.2393 78.4618 14.2855C78.4208 14.5733 78.3868 14.8629 78.3638 15.1524C78.3558 15.2695 78.3468 15.3867 78.3378 15.5041C78.3168 15.798 78.2948 16.0939 78.2798 16.396C78.2588 16.8188 78.2158 17.2292 78.1658 17.6396C78.1458 17.7745 78.1248 17.9111 78.1038 18.0478C78.0538 18.3338 77.9978 18.6167 77.9288 18.8956Z" fill="white" fill-opacity="0.4"/>
<path d="M81.8728 15.0951C83.0068 15.0951 83.9998 14.496 84.5518 13.5981L86.2998 17.0975C86.3288 17.1864 86.3438 17.2455 86.3438 17.2751C86.3438 17.4233 86.2918 17.5565 86.1888 17.6749C86.0698 17.8082 85.9278 17.8748 85.7648 17.8748H83.0008C82.7188 17.8748 82.5178 17.7416 82.3988 17.4751L81.1068 15.0014C81.3518 15.0626 81.6078 15.0951 81.8728 15.0951Z" fill="white" fill-opacity="0.4"/>
</svg>
