<svg width="93" height="17" viewBox="0 0 93 17" fill="none" xmlns="http://www.w3.org/2000/svg">
<path d="M13.5254 0.949951H0V16.9499H13.5254V0.949951Z" fill="white" fill-opacity="0.4"/>
<path fill-rule="evenodd" clip-rule="evenodd" d="M0 0.949951H13.5254V16.95H0V0.949951ZM3.2759 14.5208V3.84635H6.6014C7.7678 3.84635 8.686 4.07985 9.3313 4.57035C9.9765 5.06085 10.324 5.78495 10.324 6.74265C10.324 7.20985 10.1999 7.67695 9.9765 8.09735C9.7284 8.49445 9.3561 8.79815 8.9094 8.98495C9.4554 9.07845 9.9517 9.40545 10.2247 9.84925C10.5225 10.3164 10.6714 10.8536 10.6466 11.3909C10.6466 12.4186 10.3488 13.1894 9.7284 13.7033C9.1079 14.2172 8.2145 14.4974 7.0729 14.4974L3.2759 14.5208ZM5.3357 9.80255V12.8624H6.8992C7.2963 12.8858 7.6685 12.7456 7.9415 12.4887C8.1897 12.185 8.3138 11.788 8.289 11.3909C8.3138 10.9938 8.2145 10.5734 7.9912 10.223C7.7678 9.94265 7.4204 9.77915 7.0481 9.80255H5.3357ZM5.3357 8.35435H6.5518C6.9488 8.37765 7.3211 8.23755 7.5941 7.98065C7.8423 7.70035 7.9912 7.32655 7.9415 6.95285C7.9663 6.55575 7.8423 6.15875 7.5693 5.85505C7.2715 5.59815 6.8496 5.48135 6.4525 5.50465H5.3357C5.3357 5.52805 5.3357 8.35435 5.3357 8.35435Z" fill="white" fill-opacity="0.4"/>
<path d="M27.2991 16.9269H26.5049V0.950195H27.2991V16.9269Z" fill="white" fill-opacity="0.4"/>
<path d="M41.0979 16.9269H40.3037V0.950195H41.0979V16.9269Z" fill="white" fill-opacity="0.4"/>
<path d="M54.8708 16.9269H54.0767V0.950195H54.8708V16.9269Z" fill="white" fill-opacity="0.4"/>
<path d="M68.6702 16.9269H67.9009V0.950195H68.6702V16.9269Z" fill="white" fill-opacity="0.4"/>
<path d="M82.4917 16.9269H81.6977V0.950195H82.4917V16.9269Z" fill="white" fill-opacity="0.4"/>
<path d="M23.4773 12.7457C23.1795 13.2362 22.7328 13.6333 22.2117 13.9136C21.5416 14.2873 20.7474 14.4508 19.9781 14.4275C18.7869 14.4275 17.819 14.0771 17.0993 13.3997C16.3796 12.7223 16.0074 11.7647 16.0074 10.5034V7.35006C16.0074 6.11206 16.3548 5.15446 17.0497 4.47706C17.7446 3.79966 18.6628 3.44926 19.8044 3.47266C20.9708 3.47266 21.8394 3.75296 22.4598 4.29016C23.0803 4.82736 23.4029 5.59826 23.4525 6.60256L23.4277 6.64926H21.9387C21.9138 5.97196 21.7401 5.45806 21.3927 5.13106C21.0452 4.80406 20.5241 4.61716 19.854 4.61716C19.2336 4.59386 18.6132 4.85076 18.2161 5.31796C17.819 5.78506 17.6205 6.46246 17.6205 7.35006V10.5267C17.6205 11.4377 17.8438 12.1384 18.2657 12.6056C18.6876 13.0727 19.3329 13.353 20.0029 13.3296C20.4496 13.353 20.8715 13.2596 21.2686 13.0727C21.5416 12.9092 21.7898 12.6756 21.9387 12.4187V9.96606H20.0029V8.89166H23.527V12.7457H23.4773Z" fill="white" fill-opacity="0.4"/>
<path d="M32.2634 10.6202H35.1422L33.7525 5.94862H33.7028L32.2634 10.6202ZM35.5145 11.788H31.916L31.097 14.4742H29.4839L32.9583 3.82312H34.497L37.9466 14.4742H36.3335L35.5145 11.788Z" fill="white" fill-opacity="0.4"/>
<path d="M44.9198 3.82312L47.5752 12.5121H47.6249L50.2803 3.82312H52.3153V14.4742H50.7518V10.3866L50.8759 6.29902L50.8263 6.27562L48.1212 14.4742H47.0789L44.349 6.29902H44.3242L44.4483 10.3866V14.4742H42.8848V3.82312H44.9198Z" fill="white" fill-opacity="0.4"/>
<path d="M62.1172 14.4742H60.5537V3.82312H62.1172V14.4742Z" fill="white" fill-opacity="0.4"/>
<path d="M79.1177 14.4742H77.5287L73.2357 6.55592H73.1861V14.4742H71.6226V3.82312H73.1861L77.4797 11.718H77.5287V3.82312H79.1177V14.4742Z" fill="white" fill-opacity="0.4"/>
<path d="M92.3197 12.816C91.9967 13.3065 91.5747 13.7036 91.0537 13.9839C90.3837 14.3576 89.5897 14.5211 88.8207 14.4978C87.6287 14.4978 86.6857 14.1707 85.9417 13.4934C85.2217 12.816 84.8497 11.8583 84.8497 10.597V7.39704C84.8497 6.15914 85.1967 5.20144 85.8917 4.52404C86.5867 3.84674 87.5047 3.49634 88.6217 3.49634C89.7887 3.49634 90.6567 3.77664 91.2777 4.31384C91.8977 4.85104 92.2207 5.62184 92.2697 6.62624L92.2447 6.67294H90.7557C90.7317 5.99564 90.5577 5.50504 90.2097 5.15474C89.8627 4.80434 89.3417 4.64084 88.6717 4.64084C88.0507 4.61754 87.4307 4.87444 87.0337 5.34154C86.6367 5.80874 86.4377 6.48614 86.4377 7.37374V10.5503C86.4377 11.4613 86.6617 12.162 87.0827 12.6291C87.5047 13.0963 88.1507 13.3766 88.8207 13.3532C89.2667 13.3766 89.6887 13.2832 90.0857 13.0963C90.3587 12.9328 90.6077 12.6992 90.7557 12.4423V10.0131H88.8207V8.93864H92.3197V12.816Z" fill="white" fill-opacity="0.4"/>
</svg>
