<svg width="58" height="30" viewBox="0 0 58 30" fill="none" xmlns="http://www.w3.org/2000/svg">
<path d="M33.3545 1.10299C32.8792 1.05318 32.4034 1.00332 31.9275 0.949951H25.5452C25.3538 0.998801 25.1463 1.04765 24.9389 1.08022C24.1347 1.18862 23.3304 1.28393 22.5272 1.37912C20.7968 1.58415 19.0707 1.78875 17.3599 2.12235C12.8444 3.00165 8.5364 4.51605 4.707 7.21915C2.872 8.52185 1.2765 10.0688 0.287201 12.1531C0.212701 12.3159 0.152501 12.4788 0.0922012 12.6416C0.0621012 12.723 0.0319 12.8044 0 12.8859C1.787 10.3456 4.0847 8.47295 6.7333 7.07255C8.0417 6.37235 9.398 5.73735 10.8021 5.23255C20.1362 1.91065 29.6778 1.53615 39.347 3.37625C43.9423 4.25555 48.378 5.70475 52.2712 8.44035C55.3507 10.6062 57.744 13.2604 57.6 17.4615C57.76 16.9729 57.92 16.4845 57.967 15.9797C58.127 14.2048 57.632 12.5928 56.675 11.1272C55.3507 9.09175 53.5317 7.59365 51.5053 6.37235C46.7983 3.52275 41.6287 2.17125 36.2675 1.43846C35.3021 1.30709 34.3295 1.20516 33.3545 1.10299Z" fill="white" fill-opacity="0.4"/>
<path d="M55.6864 21.6463C56.7874 20.5228 57.697 19.2689 58 17.6568C56.7076 20.0505 54.7769 21.7766 52.4953 23.0793C50.772 24.0726 48.969 25.017 47.1022 25.6846C37.066 29.2345 26.8543 29.4624 16.5468 27.0525C12.2707 26.0592 8.20201 24.4634 4.70761 21.6626C2.66531 20.018 1.06971 18.0151 0.607006 15.2794C0.535906 14.8646 0.510007 14.4366 0.484207 14.008C0.469407 13.7636 0.454707 13.5189 0.431507 13.2766H0.224105C0.213505 13.5956 0.190506 13.9165 0.167606 14.238C0.121406 14.8843 0.075007 15.5335 0.128307 16.175C0.335707 18.6013 1.66011 20.4576 3.35141 22.0697C5.31401 23.9423 7.62751 25.2776 10.0847 26.336C15.3821 28.632 20.9666 29.6416 26.6947 29.8858C33.6834 30.1952 40.5444 29.4136 47.1501 26.9059C50.3253 25.7009 53.2771 24.1214 55.6864 21.6463Z" fill="white" fill-opacity="0.4"/>
<path fill-rule="evenodd" clip-rule="evenodd" d="M13.7698 18.52C13.4826 19.2527 13.0837 19.8878 12.1901 19.8552C11.536 19.8389 10.9615 19.2039 10.7541 18.3083C10.3233 16.5659 11.0573 14.27 12.3976 13.2278C13.4826 12.3811 14.2804 12.4788 15.1101 13.586C15.1473 13.4992 15.1827 13.4142 15.2182 13.3291C15.2891 13.1591 15.36 12.989 15.4451 12.8044H17.0248C17.1237 12.8044 17.2226 12.824 17.3438 12.8479C17.3789 12.8549 17.4161 12.8622 17.4556 12.8696C17.4495 12.9616 17.4503 13.049 17.4511 13.1327C17.4523 13.2711 17.4535 13.3992 17.4236 13.5209C16.8652 15.8657 16.3067 18.2106 15.7323 20.5391C15.3813 21.9721 14.5676 22.9654 13.0837 23.2422C11.7753 23.4865 10.6424 22.77 10.5627 21.6627C10.5148 21.0765 10.6265 20.4903 11.2647 20.3926C11.5679 20.3437 12.0465 20.6205 12.2221 20.8974C12.5412 21.4184 12.4135 22.0046 11.9029 22.4117C11.8276 22.4758 11.7325 22.5096 11.6331 22.545C11.6063 22.5545 11.5791 22.5642 11.5519 22.5746C12.1423 23.0631 12.621 23.0305 12.9082 22.2815C13.2387 21.4324 13.4878 20.5418 13.7369 19.6512C13.8365 19.2949 13.9362 18.9387 14.041 18.5851C13.9932 18.577 13.9493 18.5647 13.9054 18.5525C13.8615 18.5403 13.8176 18.5281 13.7698 18.52ZM13.7698 18.52C13.7964 18.4385 13.8265 18.3571 13.8566 18.2757C13.9169 18.1129 13.9772 17.95 14.0091 17.7872C14.0501 17.6197 14.0915 17.4522 14.1329 17.2846C14.381 16.2798 14.6291 15.2748 14.8069 14.27C14.8399 14.0789 14.7057 13.8568 14.5722 13.6358C14.5123 13.5366 14.4525 13.4376 14.408 13.3418C14.3468 13.4251 14.2758 13.505 14.2049 13.5849C14.0541 13.7547 13.9038 13.924 13.8495 14.1234C13.4826 15.5075 13.1635 16.9079 12.8603 18.292C12.8175 18.4667 12.8249 18.6488 12.8345 18.8824C12.8391 18.9971 12.8443 19.1242 12.8443 19.269L12.9331 19.1958C13.2966 18.8961 13.5332 18.701 13.7698 18.52Z" fill="white" fill-opacity="0.4"/>
<path d="M5.44709 17.8617C5.26739 18.7317 5.09388 19.5709 3.82928 19.4155C4.72288 19.8388 8.66388 19.79 9.17448 19.3829C8.08948 19.4643 8.13739 18.8618 8.29699 18.1291C8.79159 15.882 9.28619 13.6347 9.73299 11.3877C9.90849 10.4921 10.084 9.69424 11.185 9.64534C11.1942 9.64534 11.1981 9.61234 11.2029 9.57194C11.2063 9.54284 11.2102 9.50984 11.2169 9.48254H5.93549C7.13219 10.085 7.13219 10.085 6.84499 11.4039C6.71759 11.9868 6.58898 12.5684 6.46048 13.1495C6.12238 14.6784 5.78489 16.2046 5.47279 17.7383L5.44709 17.8617Z" fill="white" fill-opacity="0.4"/>
<path d="M47.8993 9.64538C47.1911 10.2852 47.0658 11.0629 46.9394 11.8467C46.8921 12.1403 46.8447 12.4347 46.7664 12.723C47.1972 12.7882 47.5483 12.837 47.8993 12.8859C47.9152 12.951 47.9312 13.0161 47.9631 13.065C47.903 13.0905 47.8413 13.1258 47.7794 13.161C47.6445 13.238 47.5091 13.3153 47.3887 13.2929C46.7255 13.2007 46.6461 13.6169 46.5586 14.075L46.543 14.156C46.4226 14.7667 46.3015 15.3783 46.1802 15.9903C45.755 18.1358 45.3288 20.2869 44.9315 22.428C44.8039 23.0794 44.5486 23.3562 43.8784 23.291C43.4513 23.2452 43.0164 23.2558 42.5958 23.2662C42.4193 23.2705 42.2452 23.2748 42.0754 23.2748C42.1797 23.0206 42.286 22.7879 42.3868 22.5673C42.5637 22.1804 42.7237 21.8302 42.8253 21.4673C43.4137 19.243 43.9796 16.9959 44.5512 14.7259C44.6618 14.2871 44.7725 13.8475 44.8836 13.4069C44.5007 13.3092 44.1337 13.2115 43.7827 13.1138C43.7827 13.0731 43.7867 13.0324 43.7907 12.9917C43.7947 12.951 43.7986 12.9103 43.7986 12.8696C44.1975 12.8207 44.5964 12.7719 44.8996 12.7393C45.0147 12.5174 45.1253 12.2966 45.2346 12.0783C45.5344 11.4797 45.8254 10.8987 46.1761 10.3619C46.5749 9.72678 47.1813 9.31978 47.9791 9.36858C48.8885 9.43368 49.5587 10.3619 49.2236 11.2086C49.1119 11.5017 48.6652 11.8926 48.4896 11.8437C48.1865 11.7623 47.8195 11.3878 47.7557 11.0784C47.6636 10.8083 47.7292 10.4958 47.8089 10.1165C47.8397 9.96988 47.8726 9.81338 47.8993 9.64538Z" fill="white" fill-opacity="0.4"/>
<path fill-rule="evenodd" clip-rule="evenodd" d="M41.166 19.334C42.3308 18.5199 42.9052 17.3474 42.969 15.9959C42.953 14.6118 42.4584 13.5697 41.3096 12.9835C40.2565 12.4298 39.1715 12.5601 38.2301 13.2603C36.8579 14.2861 36.3952 15.7191 36.6984 17.4126C37.0973 19.5946 39.363 20.5716 41.166 19.334ZM40.85 13.4863C40.8941 13.5624 40.9358 13.6343 40.9745 13.6836C40.8724 14.1197 40.7739 14.5466 40.6771 14.9663L40.6748 14.9764L40.6744 14.9777C40.3636 16.3249 40.0699 17.5981 39.73 18.8618C39.6761 19.0376 39.4843 19.1689 39.2917 19.3008C39.1988 19.3643 39.1058 19.428 39.0279 19.4969C38.9887 19.4068 38.9359 19.3137 38.883 19.2203C38.7637 19.0098 38.6437 18.7981 38.6769 18.6176C39.012 16.9404 39.3949 15.2469 39.8257 13.5859C39.8895 13.3743 40.2725 13.1137 40.5118 13.1137C40.6341 13.1137 40.7486 13.3113 40.85 13.4863Z" fill="white" fill-opacity="0.4"/>
<path fill-rule="evenodd" clip-rule="evenodd" d="M27.2366 12.6742C29.247 12.6904 30.5554 14.7096 29.9969 16.9405C29.4863 18.9596 27.5238 20.2949 25.8325 19.7575C24.0773 19.2039 23.2795 17.087 24.0454 15.0353C24.6039 13.5698 25.8165 12.6579 27.2366 12.6742ZM25.7527 18.9108C25.7829 18.9548 25.8143 19.0108 25.8475 19.07C25.937 19.2296 26.0395 19.4125 26.1675 19.4481C26.343 19.497 26.6143 19.2853 26.7898 19.1225C26.894 19.0294 26.9344 18.8603 26.9718 18.7039L26.9821 18.6612C26.987 18.6408 26.992 18.6208 26.9972 18.6014C27.0899 18.1972 27.1849 17.7941 27.2797 17.3915C27.5438 16.2699 27.8071 15.152 28.0184 14.0257C28.0513 13.8354 27.941 13.6067 27.8325 13.3818C27.7832 13.2795 27.7342 13.178 27.6993 13.0813C27.6161 13.1512 27.5193 13.2165 27.4224 13.282C27.2035 13.4299 26.9838 13.5783 26.9175 13.7814C26.7176 14.382 26.5873 15.0062 26.4566 15.6321C26.3995 15.9056 26.3423 16.1796 26.2792 16.452C26.1398 17.1349 25.9882 17.8302 25.8244 18.5815L25.7527 18.9108Z" fill="white" fill-opacity="0.4"/>
<path d="M48.5641 13.2548C48.7528 13.3073 48.9501 13.362 49.1599 13.4232C49.1082 13.6385 49.0554 13.8528 49.0029 14.066L49.0026 14.0672C48.8449 14.7081 48.6891 15.3408 48.5695 15.9635C48.5509 16.0535 48.5318 16.1437 48.5128 16.2341L48.512 16.2376C48.3521 16.9959 48.19 17.7644 48.2185 18.52C48.2345 18.9434 48.6653 19.5296 49.0642 19.7087C49.4311 19.8878 50.1332 19.7575 50.4364 19.4807C51.1703 18.8131 51.5533 17.8849 51.7447 16.6474C51.5711 16.9496 51.4482 17.2551 51.3288 17.5517C51.0752 18.1821 50.8378 18.772 50.1651 19.2039C50.1758 19.0296 50.1811 18.879 50.1858 18.7447C50.1953 18.4777 50.2024 18.2754 50.2449 18.0803C50.3805 17.4615 50.5241 16.8428 50.6677 16.224C50.8112 15.6055 50.955 14.9861 51.0905 14.3677C51.0991 14.3273 51.1074 14.2868 51.1156 14.2465C51.2303 13.6856 51.3387 13.1551 52.1277 13.2767C52.1815 13.2767 52.2499 13.1877 52.3328 13.0797C52.3727 13.0277 52.4161 12.9714 52.4627 12.9184C52.2952 12.8777 52.1476 12.8452 52.0001 12.8126C51.8525 12.78 51.7048 12.7474 51.5373 12.7067C51.6146 12.3063 51.6897 11.9103 51.765 11.513C51.8919 10.844 52.0194 10.1712 52.1596 9.46629C51.9703 9.46629 51.8017 9.47259 51.6462 9.47839C51.3692 9.48879 51.1341 9.49759 50.8991 9.46629C50.2928 9.38489 49.9736 9.59659 49.8779 10.2479C49.7768 10.8443 49.6281 11.4245 49.4822 11.9943C49.4209 12.2335 49.3601 12.4708 49.3035 12.7067C49.0999 12.7547 48.9117 12.7948 48.7332 12.8328C48.5479 12.8723 48.3732 12.9095 48.2025 12.951C48.21 12.9892 48.214 13.0238 48.2178 13.0565C48.222 13.0935 48.226 13.1281 48.2345 13.1627C48.3418 13.1931 48.4515 13.2236 48.5641 13.2548Z" fill="white" fill-opacity="0.4"/>
<path d="M35.2144 13.4069C35.1954 13.3836 35.1791 13.3631 35.1646 13.3449C35.1185 13.2868 35.0913 13.2526 35.0548 13.2278C34.1773 12.8696 33.4593 12.9673 33.1721 13.4883C32.8529 14.0583 33.1561 14.7096 34.0018 15.2795C34.0859 15.3383 34.1713 15.3958 34.2569 15.4534C34.4796 15.6035 34.7038 15.7544 34.9112 15.9309C36.0601 16.9079 35.9803 18.4874 34.7357 19.3667C33.6986 20.0995 32.103 20.0343 31.1935 19.1387C30.9063 18.8619 30.7149 18.4223 30.6191 18.0315C30.5074 17.5267 30.651 16.9405 31.2574 16.9567C31.6403 16.973 32.1668 17.2987 32.3424 17.6407C32.5817 18.1129 32.4221 18.6502 31.8158 18.8782C31.7376 18.9048 31.6701 18.9205 31.535 18.952L31.4329 18.9759C32.0073 19.497 32.5976 19.5947 33.204 19.4481C33.9858 19.269 34.2251 18.3408 33.6029 17.7221C33.2966 17.422 32.9339 17.1891 32.5725 16.9571C32.4633 16.887 32.354 16.8168 32.2466 16.7451C31.4648 16.2403 30.9702 15.5889 31.1457 14.5956C31.3212 13.5698 31.9754 12.9998 32.9327 12.7393C34.1134 12.4136 35.4059 12.8044 35.9643 13.6349C36.3313 14.2048 36.2834 15.0027 35.8048 15.2307C35.2942 15.4749 34.8634 15.2633 34.5762 14.8073C34.2251 14.27 34.4804 13.7326 35.2144 13.4069Z" fill="white" fill-opacity="0.4"/>
<path d="M21.1982 15.2106C21.3347 14.7294 21.4712 14.2481 21.6041 13.7651C21.6839 13.7813 21.7637 13.7976 21.8435 13.7976C21.8594 14.9375 22.2105 15.5888 22.8168 15.5725C23.4071 15.5563 23.8539 14.7584 23.6624 13.8139C23.5667 13.4068 23.2157 12.8369 22.8806 12.7555C22.5615 12.6741 22.035 13.0486 21.7477 13.358C21.5365 13.5951 21.4022 13.9035 21.243 14.2692C21.1616 14.4559 21.0738 14.6576 20.9659 14.8723V14.107C20.934 13.4557 20.7106 12.9183 20.0564 12.7229C19.4022 12.5275 18.8917 12.8695 18.5885 13.4231C18.3545 13.8573 18.163 14.3205 17.9715 14.7837C17.8758 15.0153 17.7801 15.2469 17.679 15.4748C17.7029 15.483 17.7309 15.4952 17.7588 15.5074C17.7867 15.5196 17.8146 15.5318 17.8386 15.54C17.9982 15.1898 18.1617 14.8356 18.3253 14.4814C18.4888 14.1273 18.6523 13.7732 18.8119 13.4231C18.9076 13.472 19.0193 13.5045 19.131 13.5371C19.0281 14.6402 18.7591 15.715 18.4902 16.7895C18.259 17.7135 18.0278 18.6372 17.9024 19.5783C19.7852 20.0017 19.9447 19.8877 20.4075 18.1128C20.6521 17.1357 20.9251 16.1732 21.1982 15.2106Z" fill="white" fill-opacity="0.4"/>
</svg>
