<svg width="80" height="17" viewBox="0 0 80 17" fill="none" xmlns="http://www.w3.org/2000/svg">
<path d="M20.5246 0.95874H0V15.5112C0 16.3025 0.642 16.9394 1.4277 16.9394H21.9235V2.36764C21.9331 1.58604 21.3007 0.95874 20.5246 0.95874ZM18.8573 14.9804H3.0662C2.7021 14.9804 2.4051 14.6812 2.4051 14.3242C2.4051 13.9575 2.7021 13.668 3.0662 13.668H18.8573C19.2214 13.668 19.5185 13.9671 19.5185 14.3242C19.5185 14.6812 19.2214 14.9804 18.8573 14.9804ZM19.4897 10.5896C19.4897 11.3616 18.8477 11.9985 18.0524 11.9985H3.852C3.0566 11.9985 2.4147 11.3712 2.4147 10.5896V4.55824C2.4147 3.78624 3.0566 3.14934 3.852 3.14934H18.0524C18.8477 3.14934 19.4897 3.77654 19.4897 4.55824V10.5896Z" fill="white" fill-opacity="0.4"/>
<path d="M8.8916 4.43384V10.6485H12.801V4.43384H8.8916ZM10.8272 8.64134C10.7697 8.74744 10.6547 8.81504 10.5397 8.81504C10.281 8.81504 10.1181 8.52554 10.2618 8.30354L11.0284 7.05864H10.2139C10.0414 7.05864 9.8977 6.91394 9.8977 6.74024C9.8977 6.56654 10.0414 6.42174 10.2139 6.42174H11.3446C11.4787 6.42174 11.5937 6.47004 11.68 6.55684C11.7758 6.65334 11.8141 6.75954 11.8141 6.89464L10.8272 8.64134Z" fill="white" fill-opacity="0.4"/>
<path d="M3.75589 4.43384V10.6485H7.66529V4.43384H3.75589ZM5.65309 8.64134C5.59559 8.74744 5.48059 8.81504 5.36559 8.81504C5.10689 8.81504 4.94399 8.52554 5.08779 8.30354L5.85429 7.05864H5.03979C4.86739 7.05864 4.72359 6.91394 4.72359 6.74024C4.72359 6.56654 4.86739 6.42174 5.03979 6.42174H6.17049C6.30469 6.42174 6.41959 6.47004 6.50589 6.55684C6.60169 6.65334 6.63999 6.75954 6.63999 6.89464L5.65309 8.64134Z" fill="white" fill-opacity="0.4"/>
<path d="M14.0757 4.43384V10.6485H17.9851V4.43384H14.0757ZM16.04 8.64134C15.9825 8.74744 15.8675 8.81504 15.7525 8.81504C15.4938 8.81504 15.3309 8.52554 15.4747 8.30354L16.2412 7.05864H15.4267C15.2543 7.05864 15.1105 6.91394 15.1105 6.74024C15.1105 6.56654 15.2543 6.42174 15.4267 6.42174H16.5574C16.6916 6.42174 16.8065 6.47004 16.8928 6.55684C16.9886 6.65334 17.0269 6.75954 17.0269 6.89464L16.04 8.64134Z" fill="white" fill-opacity="0.4"/>
<path d="M33.2304 0.95874C33.6424 0.95874 33.9874 1.10344 34.2748 1.39294C34.5623 1.68254 34.706 2.02994 34.706 2.44484V4.42314C34.706 4.82844 34.5623 5.17584 34.2748 5.46534C33.9874 5.75484 33.6424 5.89964 33.2304 5.89964H32.6555L34.6965 8.36044H32.1476L30.0971 5.89964H28.334V8.36044H25.8906V0.95874H33.2304ZM32.2531 3.91164V2.93704H28.334V3.92134H32.2531V3.91164Z" fill="white" fill-opacity="0.4"/>
<path d="M39.6216 2.93785V3.68095H44.8917V5.63995H39.6216V6.38295H45.984V8.36125H38.6538C38.2418 8.36125 37.8969 8.21655 37.6094 7.92705C37.322 7.63755 37.1782 7.29015 37.1782 6.87515V2.43605C37.1782 2.02115 37.322 1.67375 37.6094 1.38425C37.8969 1.09475 38.2418 0.949951 38.6538 0.949951H45.984V2.92825H39.6216V2.93785Z" fill="white" fill-opacity="0.4"/>
<path d="M57.2619 0.959717V2.93802H54.0711V8.35172H51.6277V2.93802H48.4561V0.959717H57.2619Z" fill="white" fill-opacity="0.4"/>
<path d="M67.0839 0.959717C67.496 0.959717 67.8409 1.10442 68.128 1.39392C68.416 1.68342 68.56 2.03082 68.56 2.44582V4.42412C68.56 4.82942 68.416 5.17682 68.128 5.46632C67.8409 5.75582 67.496 5.90062 67.0839 5.90062H66.509L68.55 8.36142H66.0012L63.9506 5.90062H62.1875V8.36142H59.7441V0.959717H67.0839ZM66.1066 3.91262V2.93802H62.1875V3.92232H66.1066V3.91262Z" fill="white" fill-opacity="0.4"/>
<path d="M78.524 0.959652C78.936 0.959652 79.281 1.10435 79.569 1.39385C79.856 1.68335 80 2.03075 80 2.44575V6.87515C80 7.29015 79.856 7.63755 79.569 7.92705C79.281 8.21655 78.936 8.36125 78.524 8.36125H72.66C72.248 8.36125 71.903 8.21655 71.616 7.92705C71.328 7.63755 71.185 7.29015 71.185 6.87515V2.43605C71.185 2.02115 71.328 1.67375 71.616 1.38425C71.903 1.09475 72.248 0.949951 72.66 0.949951H78.524V0.959652ZM77.547 6.37335V2.93785H73.628V6.37335H77.547Z" fill="white" fill-opacity="0.4"/>
<path d="M33.2304 0.95874C33.6424 0.95874 33.9874 1.10344 34.2748 1.39294C34.5623 1.68254 34.706 2.02994 34.706 2.44484V4.42314C34.706 4.82844 34.5623 5.17584 34.2748 5.46534C33.9874 5.75484 33.6424 5.89964 33.2304 5.89964H32.6555L34.6965 8.36044H32.1476L30.0971 5.89964H28.334V8.36044H25.8906V0.95874H33.2304ZM32.2531 3.91164V2.93704H28.334V3.92134H32.2531V3.91164Z" fill="white" fill-opacity="0.4"/>
<path d="M39.6216 2.93785V3.68095H44.8917V5.63995H39.6216V6.38295H45.984V8.36125H38.6538C38.2418 8.36125 37.8969 8.21655 37.6094 7.92705C37.322 7.63755 37.1782 7.29015 37.1782 6.87515V2.43605C37.1782 2.02115 37.322 1.67375 37.6094 1.38425C37.8969 1.09475 38.2418 0.949951 38.6538 0.949951H45.984V2.92825H39.6216V2.93785Z" fill="white" fill-opacity="0.4"/>
<path d="M57.2619 0.959717V2.93802H54.0711V8.35172H51.6277V2.93802H48.4561V0.959717H57.2619Z" fill="white" fill-opacity="0.4"/>
<path d="M67.0839 0.959717C67.496 0.959717 67.8409 1.10442 68.128 1.39392C68.416 1.68342 68.56 2.03082 68.56 2.44582V4.42412C68.56 4.82942 68.416 5.17682 68.128 5.46632C67.8409 5.75582 67.496 5.90062 67.0839 5.90062H66.509L68.55 8.36142H66.0012L63.9506 5.90062H62.1875V8.36142H59.7441V0.959717H67.0839ZM66.1066 3.91262V2.93802H62.1875V3.92232H66.1066V3.91262Z" fill="white" fill-opacity="0.4"/>
<path d="M78.524 0.959652C78.936 0.959652 79.281 1.10435 79.569 1.39385C79.856 1.68335 80 2.03075 80 2.44575V6.87515C80 7.29015 79.856 7.63755 79.569 7.92705C79.281 8.21655 78.936 8.36125 78.524 8.36125H72.66C72.248 8.36125 71.903 8.21655 71.616 7.92705C71.328 7.63755 71.185 7.29015 71.185 6.87515V2.43605C71.185 2.02115 71.328 1.67375 71.616 1.38425C71.903 1.09475 72.248 0.949951 72.66 0.949951H78.524V0.959652ZM77.547 6.37335V2.93785H73.628V6.37335H77.547Z" fill="white" fill-opacity="0.4"/>
<path d="M28.3246 11.565V14.9812H32.2245V14.2478H29.0529V12.2984H34.6487V16.9402H27.3569C26.9544 16.9402 26.6095 16.7954 26.322 16.5156C26.0345 16.2261 25.9004 15.8883 25.9004 15.4733V11.0632C25.9004 10.6579 26.0441 10.3105 26.322 10.021C26.6095 9.73154 26.9448 9.59644 27.3569 9.59644H34.6487V11.5554H28.3246V11.565Z" fill="white" fill-opacity="0.4"/>
<path d="M43.3402 9.6062C43.7427 9.6062 44.0781 9.751 44.3655 10.0309C44.653 10.3204 44.7967 10.6581 44.7967 11.0731V16.95H42.3533V14.5085H38.4726V16.95H36.0483V11.0731C36.0483 10.6678 36.1921 10.3204 36.4699 10.0309C36.7574 9.7414 37.0928 9.6062 37.5048 9.6062H43.3402ZM42.3629 12.5399V11.5652H38.4822V12.5399H42.3629Z" fill="white" fill-opacity="0.4"/>
<path d="M55.9594 11.0731V16.95H53.516V13.1093L51.0918 16.95L48.6675 13.1093V16.95H46.2241V11.0731C46.2241 10.6678 46.3679 10.3204 46.6553 10.0309C46.9428 9.7414 47.2877 9.6062 47.6806 9.6062H48.7538L51.0918 13.3023L53.4297 9.6062H54.5029C54.9054 9.6062 55.2407 9.751 55.5282 10.0309C55.8157 10.3204 55.9594 10.6678 55.9594 11.0731Z" fill="white" fill-opacity="0.4"/>
<path d="M57.2622 16.95V9.6062H59.7056V16.95H57.2622Z" fill="white" fill-opacity="0.4"/>
<path d="M69.844 9.6062V15.4832C69.844 15.8885 69.7 16.2359 69.422 16.5254C69.134 16.8149 68.799 16.95 68.387 16.95H67.1414L63.5195 12.3951V16.95H61.0952V11.0731C61.0952 10.6678 61.2389 10.3204 61.5168 10.0309C61.8043 9.7414 62.1397 9.6062 62.5517 9.6062H63.7973L67.4193 14.1611V9.6062H69.844Z" fill="white" fill-opacity="0.4"/>
<path d="M73.666 11.565V14.9812H77.566V14.2478H74.395V12.2984H79.991V16.9402H72.699C72.296 16.9402 71.951 16.7954 71.664 16.5156C71.376 16.2261 71.242 15.8883 71.242 15.4733V11.0632C71.242 10.6579 71.386 10.3105 71.664 10.021C71.951 9.73154 72.287 9.59644 72.699 9.59644H79.991V11.5554H73.666V11.565Z" fill="white" fill-opacity="0.4"/>
</svg>
