<svg width="82" height="25" viewBox="0 0 82 25" fill="none" xmlns="http://www.w3.org/2000/svg">
<path d="M42.7989 5.72904H46.88V17.6686H42.7989V16.7817C41.8666 17.6686 40.5838 18.0176 39.5579 18.0176C36.0132 18.0176 33.6576 15.0788 33.6576 11.791C33.6576 8.31584 36.1069 5.37854 39.6743 5.37854C39.8843 5.37854 40.117 5.40124 40.3738 5.42534L41.6324 9.52914C41.2819 9.34324 40.8634 9.22544 40.3965 9.22544C38.9505 9.22544 37.8551 10.2982 37.8551 11.6973C37.8551 13.0964 38.9505 14.1692 40.3965 14.1692C41.8183 14.1692 42.7989 13.1659 42.7989 11.72V5.72904Z" fill="white" fill-opacity="0.4"/>
<path d="M77.8406 5.72904H81.9216V17.6686H77.8406V16.7817C76.9086 17.6686 75.6256 18.0176 74.5996 18.0176C71.0546 18.0176 68.6996 15.0788 68.6996 11.791C68.6996 8.31584 71.1486 5.37854 74.7156 5.37854C74.9256 5.37854 75.1586 5.40124 75.4156 5.42534L76.6746 9.52914C76.3236 9.34324 75.9056 9.22544 75.4386 9.22544C73.9926 9.22544 72.8966 10.2982 72.8966 11.6973C72.8966 13.0964 73.9926 14.1692 75.4386 14.1692C76.8596 14.1692 77.8406 13.1659 77.8406 11.72V5.72904Z" fill="white" fill-opacity="0.4"/>
<path d="M33.355 0.949951V4.67895H19.8743V0.949951H33.355ZM24.3195 5.25165H28.9083V18.1583H24.3195V5.25165Z" fill="white" fill-opacity="0.4"/>
<path d="M51.878 0.949951H56.3066V17.5554H51.878V0.949951ZM66.6838 9.25265C66.6838 14.4413 63.5697 17.5554 58.3811 17.5554H56.8596V13.9563H58.3811C60.8712 13.9563 62.2552 12.2731 62.2552 9.25115C62.2552 6.22925 60.8712 4.54605 58.3811 4.54605H56.8596V0.949951H58.3811C63.5697 0.949951 66.6838 4.06255 66.6838 9.25265Z" fill="white" fill-opacity="0.4"/>
<path d="M24.347 22.6412C24.347 21.1423 25.5376 20.2841 26.9564 20.2841C27.733 20.2841 28.2906 20.5621 28.6532 20.8704L27.9763 21.5594C27.7194 21.3599 27.4414 21.2088 26.9987 21.2088C26.2145 21.2088 25.6509 21.7286 25.6509 22.6049C25.6509 23.4994 26.1224 24.0192 27.106 24.0192C27.2979 24.0192 27.4988 23.9769 27.6122 23.9044V23.1791H26.7706V22.2967H28.7454V24.3999C28.3752 24.7021 27.7179 24.9499 26.9776 24.9499C25.5029 24.9499 24.347 24.1642 24.347 22.6412Z" fill="white" fill-opacity="0.4"/>
<path d="M38.0184 23.8317H36.45L36.1433 24.8652H34.8454L36.4923 20.3701H38.0184L39.6653 24.8652H38.3251L38.0184 23.8317ZM37.7766 22.9976L37.6633 22.6169C37.5213 22.1696 37.3853 21.6317 37.2433 21.1724H37.2145C37.0861 21.6438 36.9441 22.1696 36.8081 22.6169L36.6948 22.9976H37.7766Z" fill="white" fill-opacity="0.4"/>
<path d="M45.9976 20.3701H47.3741L48.2157 22.3101C48.323 22.57 48.4076 22.8541 48.5088 23.1321H48.5451C48.6523 22.8541 48.737 22.57 48.8382 22.3101L49.6511 20.3701H51.0351V24.8652H49.8732V23.324C49.8732 22.8767 49.9729 22.2059 50.0379 21.7647H50.0092L49.5665 22.8405L48.8533 24.4844H48.1552L47.4345 22.8405L47.0069 21.7647H46.9782C47.0417 22.2059 47.1429 22.8767 47.1429 23.324V24.8652H46.0021V20.3701H45.9976Z" fill="white" fill-opacity="0.4"/>
<path d="M58.0279 20.3701H59.3046V24.8652H58.0279V20.3701Z" fill="white" fill-opacity="0.4"/>
<path d="M66.3003 20.3701H67.5982L68.9177 22.5217L69.4387 23.5189H69.4747C69.4037 23.0414 69.3037 22.3947 69.3037 21.8568V20.3701H70.5157V24.8652H69.2177L67.9067 22.6954L67.3852 21.7103H67.3489C67.4063 22.2119 67.5136 22.8284 67.5136 23.3723V24.8652H66.3018V20.3701H66.3003Z" fill="white" fill-opacity="0.4"/>
<path d="M77.2817 22.6412C77.2817 21.1423 78.4727 20.2841 79.8917 20.2841C80.6677 20.2841 81.2257 20.5621 81.5887 20.8704L80.9117 21.5594C80.6547 21.3599 80.3767 21.2088 79.9337 21.2088C79.1497 21.2088 78.5857 21.7286 78.5857 22.6049C78.5857 23.4994 79.0577 24.0192 80.0407 24.0192C80.2327 24.0192 80.4337 23.9769 80.5467 23.9044V23.1791H79.7057V22.2967H81.6807V24.3999C81.3087 24.7021 80.6527 24.9499 79.9107 24.9499C78.4377 24.9499 77.2817 24.1642 77.2817 22.6412Z" fill="white" fill-opacity="0.4"/>
<path fill-rule="evenodd" clip-rule="evenodd" d="M14.4684 10.0882L15.6107 8.65875C15.6107 8.65875 15.8026 7.75525 15.1816 7.22945C15.1816 7.22945 14.4623 6.37875 13.039 7.22945C13.039 7.22945 11.6746 8.08615 10.0383 11.6581L2.32326 6.94385C2.32326 6.94385 1.19456 5.97835 0.322759 7.08745C0.322759 7.08745 -0.567139 8.22065 0.608361 9.08795L4.32376 11.5161V11.6596C4.32376 11.6596 3.89466 11.6249 3.32356 12.2307C3.32356 12.2307 2.68136 13.0799 3.32356 13.9457C3.32356 13.9457 2.50006 13.9139 2.18126 15.088C2.18126 15.088 2.01956 15.6833 2.61036 16.0882C2.61036 16.0882 1.58596 16.5898 1.89566 17.8031C1.89566 17.8031 2.43816 18.5133 2.89596 18.8034C2.89596 18.8034 6.09616 20.7525 7.03896 21.0895C7.03896 21.0895 8.17526 21.4778 8.89596 21.375L13.6102 15.5171C13.6102 15.5171 13.2279 11.9422 14.4684 10.0882Z" fill="white" fill-opacity="0.4"/>
<path fill-rule="evenodd" clip-rule="evenodd" d="M10.4236 6.20355C10.6503 6.28815 10.9026 6.17325 10.9872 5.94815L12.1114 2.95795C12.196 2.73285 12.0812 2.48204 11.8545 2.39893C11.6279 2.31432 11.3755 2.42915 11.2909 2.65428L10.1668 5.64445C10.0822 5.86955 10.197 6.12045 10.4236 6.20355Z" fill="white" fill-opacity="0.4"/>
<path fill-rule="evenodd" clip-rule="evenodd" d="M5.14435 5.94825C5.22905 6.17335 5.48135 6.28815 5.70795 6.20355C5.93465 6.11895 6.04945 5.86965 5.96485 5.64295L4.84065 2.65282C4.75605 2.42769 4.50375 2.31285 4.27715 2.39747C4.05045 2.48208 3.93565 2.73139 4.02025 2.95655L5.14435 5.94825Z" fill="white" fill-opacity="0.4"/>
<path fill-rule="evenodd" clip-rule="evenodd" d="M7.64478 5.11255C7.64478 5.35275 7.84117 5.54925 8.08297 5.55075C8.32467 5.55225 8.52118 5.35735 8.52118 5.11705V1.92293C8.52118 1.68268 8.32467 1.48626 8.08297 1.48475C7.84117 1.48324 7.64478 1.67815 7.64478 1.91839V5.11255Z" fill="white" fill-opacity="0.4"/>
</svg>
