<svg width="93" height="18" viewBox="0 0 93 18" fill="none" xmlns="http://www.w3.org/2000/svg">
<path fill-rule="evenodd" clip-rule="evenodd" d="M1 8.82173C1 4.65283 4.3563 1.26953 8.5036 1.26953C12.6509 1.26953 16.0072 4.64753 16.0072 8.82173C16.0072 12.9906 12.6509 16.3686 8.5036 16.3686C4.3563 16.3686 1 12.9906 1 8.82173Z" stroke="white" stroke-opacity="0.4" stroke-width="1.5" stroke-miterlimit="3.8637"/>
<path fill-rule="evenodd" clip-rule="evenodd" d="M6.54702 12.4041L11.4957 4.22339H5.49592V5.16609H9.81492L4.87152 13.3468H11.3656V12.4041H6.54702Z" fill="white" fill-opacity="0.4"/>
<path fill-rule="evenodd" clip-rule="evenodd" d="M19.5457 8.82686C19.5457 4.65796 22.902 1.27466 27.0493 1.27466C31.1966 1.27466 34.5529 4.65276 34.5529 8.82686C34.5529 12.9958 31.1966 16.3739 27.0493 16.3739C22.902 16.3739 19.5457 12.9958 19.5457 8.82686Z" stroke="white" stroke-opacity="0.4" stroke-width="1.5" stroke-miterlimit="3.8637"/>
<path d="M27.6373 4.22339H26.6278V13.3468H27.6373V4.22339Z" fill="white" fill-opacity="0.4"/>
<path fill-rule="evenodd" clip-rule="evenodd" d="M38.0914 8.71179C38.0914 4.54289 41.4477 1.16479 45.595 1.16479C49.7371 1.16479 53.0986 4.54289 53.0986 8.71179C53.0986 12.8807 49.7423 16.2588 45.595 16.2588C41.4529 16.264 38.0914 12.8807 38.0914 8.71179Z" stroke="white" stroke-opacity="0.4" stroke-width="1.5" stroke-miterlimit="3.8637"/>
<path fill-rule="evenodd" clip-rule="evenodd" d="M46.1258 5.16609H48.3425V4.22339H42.9307V5.16609H45.1163V13.3468H46.1258V5.16609Z" fill="white" fill-opacity="0.4"/>
<path fill-rule="evenodd" clip-rule="evenodd" d="M56.6423 8.82686C56.6423 4.65796 59.9986 1.27466 64.1459 1.27466C68.2932 1.27466 71.6495 4.65276 71.6495 8.82686C71.6495 12.9958 68.2932 16.3739 64.1459 16.3739C59.9986 16.3739 56.6423 12.9958 56.6423 8.82686Z" stroke="white" stroke-opacity="0.4" stroke-width="1.5" stroke-miterlimit="3.8637"/>
<path fill-rule="evenodd" clip-rule="evenodd" d="M62.9751 5.16609H63.2769C63.688 5.16089 64.0678 5.18699 64.4165 5.26039C64.7651 5.32849 65.0461 5.48029 65.2595 5.72129C65.4728 5.95689 65.5821 6.32349 65.5873 6.81589C65.5821 7.28199 65.4676 7.63289 65.2439 7.86859C65.0253 8.10419 64.7391 8.26139 64.3905 8.33989C64.0418 8.41849 63.6724 8.45509 63.2873 8.44989H62.9751V5.16609ZM62.9751 9.34019H63.2301L65.9724 13.3468H67.2108L64.328 9.25639C65.0357 9.18839 65.5873 8.92649 65.988 8.48129C66.3886 8.03089 66.5916 7.4548 66.602 6.7425C66.5916 6.0617 66.4355 5.54319 66.1233 5.17659C65.8163 4.80999 65.4104 4.55859 64.9056 4.42239C64.4061 4.28619 63.8649 4.21809 63.2821 4.22859H61.9708V13.352H62.9803V9.34019H62.9751Z" fill="white" fill-opacity="0.4"/>
<path fill-rule="evenodd" clip-rule="evenodd" d="M75.1876 8.82686C75.1876 4.65796 78.5496 1.27466 82.6916 1.27466C86.8336 1.27466 90.1956 4.65276 90.1956 8.82686C90.1956 12.9958 86.8386 16.3739 82.6916 16.3739C78.5496 16.3791 75.1876 12.9958 75.1876 8.82686Z" stroke="white" stroke-opacity="0.4" stroke-width="1.5" stroke-miterlimit="3.8637"/>
<path fill-rule="evenodd" clip-rule="evenodd" d="M82.6706 4.06616C81.7966 4.07666 81.0056 4.29136 80.2976 4.71036C79.5846 5.12936 79.0176 5.69496 78.5966 6.40726C78.1746 7.11946 77.9566 7.91556 77.9456 8.79546C77.9566 9.68056 78.1746 10.4767 78.5966 11.1837C79.0176 11.8907 79.5846 12.4511 80.2976 12.8649C81.0106 13.2786 81.8016 13.4934 82.6706 13.5038C83.5446 13.4934 84.3356 13.2839 85.0436 12.8649C85.7566 12.4511 86.3236 11.8907 86.7456 11.1837C87.1666 10.4767 87.3856 9.68056 87.3956 8.79546C87.3856 7.91556 87.1666 7.11946 86.7456 6.40726C86.3236 5.69496 85.7566 5.12936 85.0436 4.71036C84.3306 4.29136 83.5396 4.07666 82.6706 4.06616ZM82.6706 5.00886C83.3736 5.01936 84.0026 5.19216 84.5596 5.52736C85.1166 5.86256 85.5586 6.31816 85.8866 6.88386C86.2146 7.44946 86.3806 8.08316 86.3866 8.78496C86.3806 9.48156 86.2096 10.1101 85.8816 10.6809C85.5536 11.2465 85.1056 11.7022 84.5496 12.0426C83.9926 12.383 83.3626 12.5559 82.6706 12.5664C81.9786 12.5559 81.3486 12.383 80.7926 12.0426C80.2356 11.7022 79.7876 11.2518 79.4606 10.6809C79.1326 10.1153 78.9606 9.48156 78.9556 8.78496C78.9606 8.08836 79.1326 7.45466 79.4546 6.88386C79.7826 6.31816 80.2246 5.86256 80.7816 5.52736C81.3386 5.19216 81.9686 5.01936 82.6706 5.00886Z" fill="white" fill-opacity="0.4"/>
<path d="M92.6096 2.11265C92.6096 2.76205 92.0896 3.28055 91.4286 3.28055C90.7676 3.28055 90.2416 2.76205 90.2416 2.11265C90.2416 1.46315 90.7676 0.949951 91.4386 0.949951C92.0896 0.949951 92.6096 1.45795 92.6096 2.11265ZM90.5386 2.11265C90.5386 2.63115 90.9236 3.03965 91.4386 3.03965C91.9386 3.04485 92.3186 2.63115 92.3186 2.11785C92.3186 1.59935 91.9386 1.18565 91.4286 1.18565C90.9236 1.18035 90.5386 1.59935 90.5386 2.11265ZM91.2466 2.70965H90.9806V1.55225C91.0846 1.53655 91.2356 1.51555 91.4236 1.51555C91.6416 1.51555 91.7406 1.55225 91.8186 1.60985C91.8866 1.65695 91.9386 1.74605 91.9386 1.85595C91.9386 1.99735 91.8346 2.09165 91.6986 2.13355V2.14925C91.8136 2.18595 91.8656 2.27495 91.9016 2.43205C91.9386 2.61015 91.9646 2.67305 91.9856 2.71495H91.7046C91.6676 2.67305 91.6466 2.57345 91.6156 2.43205C91.5946 2.31165 91.5226 2.25405 91.3766 2.25405H91.2516V2.70965H91.2466ZM91.2516 2.06025H91.3766C91.5226 2.06025 91.6416 2.01315 91.6416 1.89265C91.6416 1.78785 91.5636 1.71455 91.3976 1.71455C91.3296 1.71455 91.2776 1.71985 91.2516 1.73025V2.06025Z" fill="white" fill-opacity="0.4"/>
</svg>
