<svg width="110" height="20" viewBox="0 0 110 20" fill="none" xmlns="http://www.w3.org/2000/svg">
<path d="M109.102 18.0225C108.277 18.2585 107.451 18.465 106.411 18.76C106.045 16.872 105.708 15.102 105.402 13.3615C103.873 13.1845 103.017 13.568 102.895 15.161C102.803 16.3705 102.406 17.521 102.1 18.878C101.274 18.642 100.632 18.4355 99.9293 18.229C100.296 15.81 100.663 13.45 100.969 11.09C101.121 9.9395 101.213 8.73 101.152 7.5795C101.121 6.9895 100.571 6.4585 100.388 5.8685C100.235 5.367 100.204 4.8065 100.082 4.0395C102.65 3.656 105.188 3.2725 107.818 2.8595C107.971 3.833 108.766 4.718 107.329 5.2785C107.206 5.3375 107.145 5.721 107.176 5.957C107.696 9.6445 108.216 13.332 108.766 16.99C108.797 17.167 108.98 17.285 109.072 17.462C109.102 17.6095 109.102 17.816 109.102 18.0225ZM104.944 6.6355C104.791 6.5175 104.638 6.3995 104.485 6.2815C104.088 6.606 103.415 6.901 103.384 7.255C103.231 8.2875 103.323 9.379 103.323 10.5885C103.996 10.5 104.485 10.4115 104.944 10.3525C104.944 9.0545 104.944 7.845 104.944 6.6355Z" fill="white" fill-opacity="0.4"/>
<path d="M92.9863 17.5205C92.3443 15.662 91.7023 13.774 91.0603 11.9155C90.9383 11.9155 90.8153 11.945 90.6933 11.945C90.8153 13.9805 90.9683 16.016 91.0903 18.199C90.2043 18.199 89.3173 18.199 88.2473 18.199C88.3383 12.8005 89.7453 7.28405 87.9103 1.82645C90.1433 1.79695 91.2433 2.62295 91.6413 4.54045C92.1003 6.69405 92.5583 8.81805 92.9863 10.9715C93.1093 11.001 93.2623 11.001 93.3843 11.0305C94.0873 8.16905 94.8213 5.30755 95.5553 2.35745C96.4423 2.32795 97.3283 2.26895 98.3683 2.23945C96.9923 7.43155 97.9403 12.358 99.0413 17.5205C97.8483 17.4025 96.8093 17.314 95.7083 17.196C95.7083 15.013 95.7083 12.9775 95.7083 10.942C95.5853 10.9125 95.4633 10.883 95.3413 10.883C94.6993 13.0955 94.0573 15.308 93.4143 17.5205C93.2923 17.5205 93.1393 17.5205 92.9863 17.5205Z" fill="white" fill-opacity="0.4"/>
<path d="M44.4315 18.6707C44.2481 17.5202 44.0952 16.6647 43.9423 15.7797C43.7894 14.9537 43.6365 14.1572 43.4836 13.3607C41.9547 13.1247 41.1291 13.5967 40.9456 15.1012C40.8233 16.3107 40.4564 17.4907 40.1812 18.8772C39.325 18.5822 38.6217 18.3757 37.949 18.1397C38.4688 13.4197 40.5787 8.81768 37.8267 4.03868C40.7622 3.59618 43.3001 3.21268 46.0216 2.79968C45.9298 3.74368 46.9389 4.62868 45.4712 5.15968C45.2571 5.21868 45.2265 5.95618 45.2877 6.36918C45.8381 9.99768 46.4191 13.6262 47.0001 17.2547C47.0306 17.4907 47.0612 17.7267 47.1224 18.1102C46.205 18.3167 45.3794 18.4937 44.4315 18.6707ZM43.0861 6.57568C42.9026 6.45768 42.7497 6.33968 42.5663 6.22168C42.1993 6.57568 41.5572 6.90018 41.5266 7.28368C41.3737 8.31618 41.4655 9.37818 41.4655 10.4107C42.7803 10.6762 43.2084 10.2632 43.1167 9.17168C43.0249 8.31618 43.0861 7.46068 43.0861 6.57568Z" fill="white" fill-opacity="0.4"/>
<path d="M69.2009 4.00918C71.8918 3.59618 74.3686 3.21268 77.2429 2.79968C76.9371 4.54018 76.4785 6.04468 76.4479 7.54918C76.4173 9.28968 76.6925 11.0892 76.9983 12.8297C77.2735 14.5112 77.7322 16.1927 78.1603 18.0807C77.3958 18.2872 76.5702 18.4937 75.5611 18.7297C75.2248 16.8417 74.8884 15.1012 74.5826 13.3902C72.9314 13.0657 72.1976 13.6852 72.0447 15.2487C71.9224 16.3992 71.586 17.5202 71.3414 18.6412C68.9257 18.4642 68.9257 18.4347 69.3538 16.3402C69.7207 14.4522 70.0571 12.5642 70.21 10.6467C70.3323 9.02418 70.9439 7.31318 69.629 5.80868C69.2621 5.48418 69.3538 4.83518 69.2009 4.00918ZM74.0628 10.3812C74.0628 8.96518 74.0628 7.72618 74.0628 6.48718C73.9405 6.39868 73.7876 6.31018 73.6653 6.22168C73.2984 6.57568 72.6256 6.87068 72.5951 7.28368C72.4422 8.31618 72.5339 9.37818 72.5339 10.5582C73.2066 10.4992 73.6347 10.4402 74.0628 10.3812Z" fill="white" fill-opacity="0.4"/>
<path d="M50.1181 17.1371C49.0785 16.9011 48.2223 16.6651 47.4273 16.4881C47.7942 12.3876 48.1306 8.40504 48.4975 4.30454C49.0785 4.30454 49.8124 4.30454 50.4239 4.30454C51.5859 6.81204 52.7173 9.26054 53.8486 11.7386C53.971 11.6796 54.0933 11.6501 54.185 11.5911C54.185 9.26054 54.2156 6.93004 54.185 4.59954C54.1544 2.77054 54.185 2.71154 56.5089 2.74104C56.5089 7.66754 56.5089 12.5941 56.5089 17.5796C55.4081 17.9926 54.6437 17.6681 54.0321 16.5471C53.023 14.7771 51.8305 13.0661 50.3933 11.4141C50.3016 13.2431 50.2099 15.0721 50.1181 17.1371Z" fill="white" fill-opacity="0.4"/>
<path d="M81.6447 16.0456C82.5009 16.6946 83.5403 16.6651 84.3663 15.7506C85.1913 14.8361 85.1003 13.0956 83.9993 12.3286C83.3263 11.8271 82.5009 11.5321 81.6753 11.2371C79.5042 10.4701 78.801 9.73261 78.7704 8.11011C78.7092 6.04511 79.7183 4.45211 81.5224 3.74411C83.0823 3.15411 84.6723 3.18361 86.0483 4.12761C86.5983 4.51111 87.1183 5.39611 87.1183 6.04511C87.1183 6.69411 86.5373 7.43161 85.9863 7.93311C85.7423 8.16911 84.7023 8.05111 84.5193 7.78561C84.1823 7.25461 84.1823 6.51711 83.9993 5.48461C83.4183 5.07161 82.5009 5.04211 81.9199 6.04511C81.3695 7.01861 81.8588 7.87411 82.8983 8.31661C83.5403 8.61161 84.2443 8.78861 84.9163 8.99511C87.0873 9.73261 87.9743 11.0306 87.7913 13.2726C87.5463 16.5471 83.3263 18.9071 80.2687 17.5501C78.8315 16.9011 78.0671 15.6916 78.2506 14.2461C78.3729 13.2136 78.8621 12.2991 79.9935 12.3581C80.7885 12.3876 81.8282 12.8596 82.1951 13.4496C82.4092 13.9806 81.8588 14.9541 81.6447 16.0456Z" fill="white" fill-opacity="0.4"/>
<path d="M32.2287 8.96562C33.3906 8.67062 34.1551 8.49362 34.9195 8.28712C34.9195 9.40812 34.9195 10.4406 34.9195 11.4436C34.0328 11.2961 33.2989 11.1781 32.1369 10.9716C32.5956 13.5676 32.9931 15.7801 33.3906 18.1106C32.4733 18.1106 31.4642 18.1106 30.4552 18.1106C30.2411 13.1546 30.0271 8.13962 29.813 3.12462C32.2593 2.74112 34.9501 2.29862 37.9773 1.79712C37.641 3.12462 37.3658 4.18662 37.2129 4.86512C35.5005 5.01262 33.8493 4.80612 32.7179 5.42562C32.1369 5.77962 32.3816 7.57912 32.2287 8.96562Z" fill="white" fill-opacity="0.4"/>
<path d="M57.9762 6.75325C57.8539 5.63225 57.7622 4.59975 57.6704 3.56725C61.2786 3.27225 64.6728 2.97725 68.3116 2.68225C68.3727 3.33125 68.4033 4.03925 68.4645 4.89475C67.3637 5.10125 66.3546 5.33725 65.3149 5.45525C64.367 5.57325 64.0001 5.98625 64.0918 6.90075C64.4282 10.5588 64.7034 14.2168 65.0091 17.9633C64.367 17.9633 63.4497 17.9633 62.2571 17.9633C62.2571 16.5178 62.3183 15.0723 62.2266 13.5972C62.1348 11.6798 61.8596 9.79175 61.7679 7.87425C61.6762 6.57625 61.0952 6.13375 59.8109 6.45825C59.3216 6.66475 58.7407 6.66475 57.9762 6.75325Z" fill="white" fill-opacity="0.4"/>
<path d="M0.740168 14.977C1.97957 17.1636 3.67947 17.2661 4.91887 15.2162C5.45007 14.362 5.59177 13.5421 4.49397 12.8929C3.39617 12.2438 2.36917 11.4922 1.27137 10.7747C-0.357632 9.7156 -0.463932 8.4857 1.20047 7.6315C2.97117 6.7432 3.64407 5.4791 4.13987 3.7026C5.09597 0.251898 9.45177 -1.1489 12.7807 1.0719C14.5868 2.2676 16.2512 2.7801 18.3052 2.336C19.7217 2.0285 20.4654 2.6093 20.3237 4.0442C20.2175 5.5133 20.005 6.9482 19.8988 8.4173C19.8634 10.2622 19.8279 12.1071 19.7925 13.9862C19.7217 16.6169 18.1989 18.2568 15.7908 19.0768C11.7891 20.4092 7.68117 20.1701 3.64407 19.1793C2.61707 18.9401 1.62547 18.1885 0.917168 17.4027C0.421468 16.8561 0.385967 15.8995 0.138067 15.1478C0.315167 15.0795 0.527668 15.0112 0.740168 14.977ZM5.30847 5.1375C6.08757 7.4949 8.21237 8.9298 9.77057 8.554C11.0809 8.2465 13.0286 4.3859 12.5682 2.7801C10.4434 4.2492 8.56647 6.3333 5.30847 5.1375ZM4.95437 3.1901C5.73337 3.8734 6.22917 4.3175 6.72497 4.7617C7.11457 4.2834 7.85817 3.7709 7.82277 3.3267C7.78737 2.7459 7.14997 2.1993 6.76037 1.6527C6.22917 2.0968 5.73337 2.5068 4.95437 3.1901ZM9.31017 2.7118C10.4434 2.4043 11.5766 2.0968 12.639 1.8235C11.435 0.525197 10.0185 0.935197 9.31017 2.7118Z" fill="white" fill-opacity="0.4"/>
</svg>
