<svg width="118" height="20" viewBox="0 0 118 20" fill="none" xmlns="http://www.w3.org/2000/svg">
<path d="M90.807 15.2226C90.546 15.2226 90.293 15.2226 90.023 15.2226C90.023 12.7965 90.023 10.3735 90.023 7.9515C90.01 7.9474 89.997 7.9432 89.984 7.9391C89.96 7.9806 89.935 8.0222 89.915 8.0648C89.052 9.8072 88.19 11.5486 87.333 13.2921C87.279 13.4022 87.218 13.4459 87.097 13.4375C86.937 13.4261 86.775 13.4272 86.614 13.4375C86.509 13.4448 86.461 13.4012 86.418 13.3129C85.5556 11.5704 84.6901 9.8301 83.8257 8.0887C83.802 8.0409 83.7752 7.9941 83.7195 7.9546C83.7195 10.3735 83.7195 12.7923 83.7195 15.2184C83.4492 15.2184 83.1944 15.2184 82.9304 15.2184C82.9304 12.358 82.9304 9.4997 82.9304 6.6278C83.2429 6.6278 83.5503 6.6247 83.8577 6.633C83.8907 6.6341 83.9309 6.6964 83.9516 6.739C84.3559 7.5577 84.7572 8.3775 85.1595 9.1973C85.7 10.2997 86.241 11.4011 86.781 12.5035C86.802 12.5461 86.824 12.5866 86.86 12.6531C86.896 12.5918 86.922 12.5513 86.944 12.5076C87.889 10.5917 88.834 8.6768 89.775 6.7587C89.824 6.6569 89.878 6.6216 89.989 6.6247C90.258 6.6341 90.528 6.6278 90.808 6.6278C90.807 9.4934 90.807 12.3507 90.807 15.2226Z" fill="white" fill-opacity="0.4"/>
<path d="M106.728 11.6795C105.931 11.6795 105.149 11.6795 104.357 11.6795C104.357 11.4322 104.357 11.1943 104.357 10.9491C105.436 10.9491 106.515 10.9491 107.606 10.9491C107.61 10.9917 107.614 11.0332 107.614 11.0748C107.614 12.2665 107.614 13.4583 107.614 14.6511C107.614 14.7155 107.624 14.7747 107.528 14.809C106.048 15.3358 104.53 15.5405 102.965 15.1841C101.614 14.8765 100.816 14.064 100.45 12.8858C100.221 12.1481 100.173 11.3938 100.202 10.6332C100.227 9.97761 100.33 9.33441 100.595 8.71831C101.097 7.55251 102.058 6.87301 103.409 6.63501C104.656 6.41481 105.881 6.52491 107.08 6.89061C107.214 6.93121 107.254 6.98311 107.211 7.10781C107.157 7.26991 107.126 7.43721 107.086 7.59821C106.723 7.52341 106.38 7.44131 106.03 7.38311C105.103 7.22731 104.174 7.18571 103.26 7.45071C102.234 7.74781 101.643 8.40871 101.357 9.31361C101.121 10.0617 101.107 10.8265 101.166 11.5953C101.207 12.1439 101.322 12.6801 101.591 13.1819C102.005 13.9591 102.717 14.3851 103.641 14.5399C104.646 14.7072 105.637 14.6345 106.607 14.3425C106.672 14.3227 106.73 14.3124 106.73 14.2261C106.727 13.3804 106.728 12.5398 106.728 11.6795Z" fill="white" fill-opacity="0.4"/>
<path d="M96.235 6.60177C97.414 9.47357 98.59 12.3382 99.775 15.2256C99.464 15.2256 99.17 15.2288 98.877 15.2204C98.848 15.2194 98.811 15.156 98.795 15.1155C98.493 14.3695 98.191 13.6235 97.896 12.8743C97.859 12.7788 97.812 12.7517 97.704 12.7517C96.381 12.7559 95.059 12.7559 93.737 12.7517C93.628 12.7517 93.58 12.7788 93.542 12.8733C93.247 13.6131 92.944 14.3497 92.644 15.0875C92.626 15.1321 92.605 15.1758 92.584 15.2215C92.285 15.2215 91.989 15.2215 91.678 15.2215C91.794 14.9399 91.907 14.6666 92.021 14.3934C93.084 11.8436 94.148 9.29487 95.207 6.74307C95.255 6.62567 95.315 6.59347 95.443 6.59867C95.701 6.60797 95.96 6.60177 96.235 6.60177ZM97.546 12.0223C96.947 10.5116 96.355 9.02057 95.764 7.52957C95.746 7.53067 95.729 7.53167 95.712 7.53267C95.102 9.02477 94.493 10.5168 93.878 12.0213C95.106 12.0223 96.315 12.0223 97.546 12.0223Z" fill="white" fill-opacity="0.4"/>
<path d="M117.893 14.2875C117.929 14.4797 117.97 14.676 117.997 14.8745C118.001 14.9046 117.937 14.9628 117.895 14.9732C117.424 15.0844 116.956 15.2122 116.477 15.288C115.682 15.4127 114.883 15.3867 114.096 15.2184C112.73 14.9254 111.894 14.1461 111.506 12.9669C111.256 12.2105 111.204 11.4343 111.232 10.6519C111.255 10.0005 111.353 9.36038 111.608 8.74638C112.111 7.53068 113.105 6.83458 114.528 6.61118C115.644 6.43558 116.741 6.52288 117.814 6.84078C117.874 6.85848 117.932 6.88238 118 6.90628C117.949 7.12448 117.901 7.33748 117.85 7.55458C117.553 7.49428 117.269 7.42888 116.98 7.37798C116.212 7.24498 115.441 7.20758 114.67 7.34678C113.451 7.56808 112.724 8.24758 112.4 9.29288C112.165 10.0503 112.15 10.8244 112.207 11.6005C112.241 12.0608 112.333 12.5128 112.516 12.9461C112.897 13.8438 113.627 14.3685 114.686 14.5399C115.715 14.7072 116.72 14.6085 117.708 14.3207C117.755 14.3072 117.801 14.2926 117.848 14.2802C117.856 14.2791 117.866 14.2833 117.893 14.2875Z" fill="white" fill-opacity="0.4"/>
<path d="M109.814 15.2194C109.552 15.2194 109.301 15.2194 109.043 15.2194C109.043 12.3559 109.043 9.49763 109.043 6.63403C109.304 6.63403 109.558 6.63403 109.814 6.63403C109.814 9.50173 109.814 12.3621 109.814 15.2194Z" fill="white" fill-opacity="0.4"/>
<path d="M42.863 6.62891C43.3591 6.62891 43.8439 6.62891 44.3298 6.62891C44.6712 6.62891 45.0137 6.63301 45.3551 6.62681C45.4531 6.62471 45.5057 6.65591 45.5563 6.73691C46.5042 8.24981 47.4553 9.76151 48.4053 11.2733C48.4301 11.3128 48.4548 11.3512 48.5106 11.3814C48.5106 9.80411 48.5106 8.22691 48.5106 6.63931C49.342 6.63931 50.1569 6.63931 50.981 6.63931C50.981 9.49551 50.981 12.3508 50.981 15.2216C50.9357 15.2236 50.8892 15.2278 50.8418 15.2278C50.1001 15.2278 49.3585 15.2257 48.6158 15.2309C48.5095 15.232 48.4569 15.1935 48.4043 15.1114C47.4171 13.5498 46.4279 11.9892 45.4387 10.4296C45.4129 10.3891 45.3871 10.3496 45.3304 10.3164C45.3304 11.9497 45.3304 13.582 45.3304 15.2216C44.4969 15.2216 43.6851 15.2216 42.8619 15.2216C42.863 12.3622 42.863 9.50381 42.863 6.62891Z" fill="white" fill-opacity="0.4"/>
<path d="M77.4313 15.4127C76.7216 15.4075 75.982 15.3379 75.2702 15.0844C74.3563 14.7841 73.3991 13.768 73.1401 12.7986C72.7967 11.5476 72.7946 10.2841 73.1567 9.0352C73.4857 7.8975 74.5688 6.9281 75.7602 6.6569C76.9712 6.3826 78.1884 6.3847 79.3912 6.7089C80.2938 6.9447 81.514 7.9183 81.7791 8.9906C82.1546 10.2467 82.1556 11.5185 81.8142 12.7788C81.48 13.9373 80.3804 14.9753 79.0931 15.2527C78.5598 15.3691 78.0182 15.4106 77.4313 15.4127ZM75.5797 10.9377C75.6282 11.2837 75.655 11.6338 75.7303 11.9746C75.8365 12.4536 76.0779 12.8567 76.5431 13.0947C76.9114 13.2827 77.3096 13.3056 77.7129 13.2796C78.4288 13.2339 78.9435 12.8505 79.157 12.1866C79.4077 11.4063 79.4005 10.6145 79.2003 9.827C79.0869 9.3833 78.8465 9.0124 78.4154 8.7921C78.0523 8.6061 77.6582 8.576 77.259 8.6051C76.5988 8.6518 76.1089 8.948 75.8469 9.5579C75.6571 9.9974 75.6137 10.4618 75.5797 10.9377Z" fill="white" fill-opacity="0.4"/>
<path d="M51.9445 15.2215C51.9445 12.3528 51.9445 9.49751 51.9445 6.62881C51.996 6.62881 52.0404 6.62881 52.0837 6.62881C53.2627 6.62881 54.4407 6.62571 55.6198 6.62981C56.3625 6.63191 57.0969 6.69531 57.8118 6.91251C58.9856 7.26881 59.685 8.04191 59.9264 9.20141C60.1626 10.3371 60.1554 11.4758 59.8593 12.6011C59.5086 13.9352 58.6009 14.7259 57.2351 15.0417C56.7142 15.1623 56.185 15.2205 55.6517 15.2236C54.4511 15.2308 53.2493 15.2267 52.0486 15.2267C52.0167 15.2277 51.9857 15.2236 51.9445 15.2215ZM54.5119 13.1258C55.0266 13.1009 55.5372 13.1019 56.0396 13.0447C56.7369 12.9647 57.1712 12.5616 57.3362 11.8997C57.4713 11.3574 57.4899 10.8057 57.4105 10.2571C57.3734 10.0015 57.3053 9.73861 57.1928 9.50581C56.9607 9.02481 56.5069 8.83261 55.9952 8.79201C55.5115 8.75361 55.0225 8.76811 54.5356 8.75981C54.5284 8.75981 54.5212 8.76811 54.5119 8.77541C54.5119 10.2113 54.5119 11.6504 54.5119 13.1258Z" fill="white" fill-opacity="0.4"/>
<path d="M72.1561 6.94058C72.0148 7.59308 71.8766 8.23418 71.7363 8.88248C71.465 8.83258 71.2051 8.77758 70.941 8.73908C70.1364 8.62168 69.3287 8.57698 68.5221 8.71938C67.5751 8.88668 67.0635 9.40828 66.9356 10.3278C66.8696 10.7995 66.8665 11.2712 66.9573 11.7408C67.114 12.5534 67.6195 13.022 68.4715 13.1362C69.0172 13.21 69.5608 13.1872 70.1013 13.0843C70.2189 13.0625 70.2653 13.0188 70.2612 12.8962C70.2509 12.6167 70.2581 12.3372 70.2581 12.0411C69.7413 12.0411 69.2348 12.0411 68.7201 12.0411C68.7201 11.3886 68.7201 10.7517 68.7201 10.1054C69.9786 10.1054 71.2319 10.1054 72.5037 10.1054C72.5037 10.1584 72.5037 10.2052 72.5037 10.2519C72.5037 11.6588 72.5017 13.0646 72.5068 14.4714C72.5068 14.5878 72.4656 14.6407 72.3614 14.6854C71.7002 14.968 71.008 15.1436 70.2973 15.26C69.2813 15.4252 68.2673 15.4242 67.2574 15.2195C65.641 14.7156 64.5868 13.5259 64.3558 12.4328C64.136 11.3076 64.1453 10.1823 64.4558 9.07368C64.9365 7.71878 65.5606 7.11828 67.0594 6.64548C67.7711 6.46988 68.4952 6.42108 69.2266 6.43978C70.1684 6.46368 71.0926 6.59347 71.989 6.88137C72.0396 6.89797 72.0901 6.91768 72.1561 6.94058Z" fill="white" fill-opacity="0.4"/>
<path d="M39.1815 6.63306C40.114 6.63306 41.0372 6.63306 41.9707 6.63306C41.9707 9.49346 41.9707 12.3518 41.9707 15.2185C41.0454 15.2185 40.1191 15.2185 39.1815 15.2185C39.1815 12.3632 39.1815 9.50486 39.1815 6.63306Z" fill="white" fill-opacity="0.4"/>
<path d="M63.5656 15.2236C62.5867 15.2236 61.6202 15.2236 60.6423 15.2236C60.6423 12.3621 60.6423 9.50378 60.6423 6.63818C61.615 6.63818 62.5846 6.63818 63.5656 6.63818C63.5656 9.49548 63.5656 12.3528 63.5656 15.2236Z" fill="white" fill-opacity="0.4"/>
<path d="M16.0629 4.3108C16.0629 4.3108 16.6828 1.413 19.4267 0.307503C22.1705 -0.798007 28.1059 0.975603 31.2386 7.2876C34.687 14.2345 33.8566 19.1272 29.0085 19.9127C25.3899 20.4988 23.1917 17.6809 23.1773 12.7009C23.1711 10.7891 22.6842 8.4399 22.1251 7.0809C19.7702 1.3444 16.0629 4.3108 16.0629 4.3108Z" fill="white" fill-opacity="0.4"/>
<path opacity="0.6" d="M15.38 7.59511C15.6317 5.77581 16.0639 4.31081 16.0639 4.31081C16.0639 4.31081 17.9289 2.80211 19.7939 3.92951C21.6135 5.02981 22.1406 7.11721 22.1406 7.11721C22.1406 7.11721 21.4392 9.34591 21.2102 11.2805C20.9935 13.1175 20.6841 15.0584 20.6841 15.0584C20.6841 15.0584 19.666 16.1816 18.1342 15.2371C16.6024 14.2926 15.5615 12.6635 15.2191 11.6494C15.1283 9.76051 15.38 7.59511 15.38 7.59511Z" fill="white" fill-opacity="0.4"/>
<path d="M14.5795 10.2809C15.806 12.8463 16.6292 14.4931 18.6633 15.4137C19.7351 15.8979 20.6861 14.9804 20.6861 14.9804C20.6861 14.9804 20.3199 20.2327 16.3641 19.8638C12.4082 19.495 11.2632 14.3809 10.7835 12.8837C10.3039 11.3865 9.57151 9.72823 8.67921 9.01443C7.78701 8.30063 7.07831 8.80663 7.07831 8.80663C7.07831 8.80663 8.10571 5.71343 10.5318 5.81213C13.3675 5.92753 14.5795 10.2809 14.5795 10.2809Z" fill="white" fill-opacity="0.4"/>
<path opacity="0.6" d="M6.14059 15.5364C6.14059 15.5364 6.27779 13.1145 6.52949 11.6629C6.78119 10.2114 7.07829 8.8067 7.07829 8.8067C7.07829 8.8067 7.97979 8.1095 9.06499 9.3106C10.112 10.4691 10.5793 12.2822 10.5793 12.2822C10.5793 12.2822 10.2234 13.5602 10.1543 14.0963C10.0852 14.6314 9.94799 15.5364 9.94799 15.5364C9.94799 15.5364 9.48789 16.7936 8.31299 16.6388C6.92659 16.4559 6.14059 15.5364 6.14059 15.5364Z" fill="white" fill-opacity="0.4"/>
<path d="M1.8877 11.928C2.7655 11.0105 4.1519 11.6911 4.615 12.8454C5.0782 13.9998 6.1334 15.9573 7.5147 16.4124C8.7422 16.8165 9.2909 16.696 9.949 15.5365C9.4859 17.5605 9.0062 20.2037 6.3305 19.9876C3.6547 19.7715 2.3168 17.0285 1.8887 15.7391C1.4586 14.4507 0.961401 12.8963 1.8877 11.928Z" fill="white" fill-opacity="0.4"/>
<path d="M1.8526 10.6084C2.8758 10.6084 3.7052 9.77292 3.7052 8.74232C3.7052 7.71172 2.8758 6.87622 1.8526 6.87622C0.8294 6.87622 0 7.71172 0 8.74232C0 9.77292 0.8294 10.6084 1.8526 10.6084Z" fill="white" fill-opacity="0.4"/>
</svg>
