<svg width="117" height="33" viewBox="0 0 117 33" fill="none" xmlns="http://www.w3.org/2000/svg">
<path d="M20.5733 15.7642C20.5733 15.7642 20.1951 16.1599 20.1858 16.0342C20.191 15.8875 20.2074 15.7414 20.2349 15.5972L20.1035 15.5413C20.0151 15.6305 19.7526 15.8853 19.7452 15.7817C19.7479 15.6559 19.7606 15.5305 19.7831 15.4067L19.6123 15.3355C19.5012 15.4437 19.3082 15.6176 19.3017 15.5283C19.303 15.4234 19.3126 15.3187 19.3304 15.2153C19.2625 15.187 19.1945 15.1561 19.1263 15.1228C19.0152 15.2273 18.8661 15.354 18.8601 15.2731C18.8605 15.1848 18.8677 15.0967 18.8819 15.0096C18.8041 14.9726 18.7277 14.9346 18.6546 14.8977C18.5481 14.9961 18.4232 15.0914 18.419 15.0197C18.4185 14.9395 18.4246 14.8594 18.437 14.7802C18.3269 14.7194 18.221 14.6513 18.12 14.5763C18.0381 14.5117 17.9851 14.4175 17.9723 14.3141C17.9601 14.2218 17.9202 14.1353 17.8579 14.0661C17.7955 13.9967 17.7139 13.9478 17.6234 13.9258C17.6317 14.0352 17.6715 14.14 17.7377 14.2277C17.7998 14.3425 17.8367 14.4692 17.8459 14.5994C17.8551 14.7296 17.8365 14.8603 17.7912 14.9827C17.7663 15.033 17.7531 15.0884 17.7531 15.1446C17.7531 15.2007 17.7663 15.2561 17.7912 15.3064L17.7941 15.3124C17.9112 15.2495 18.0306 15.1996 18.02 15.2634C17.9991 15.3509 17.9713 15.4365 17.9367 15.5195C17.9857 15.575 18.0389 15.6338 18.101 15.6939C18.2329 15.618 18.4046 15.532 18.3921 15.6083C18.37 15.7012 18.3405 15.7921 18.3037 15.8802C18.3607 15.9292 18.4208 15.9828 18.4819 16.0356C18.6129 15.9602 18.7773 15.8798 18.7648 15.9556C18.7443 16.0417 18.7171 16.1262 18.6833 16.208C18.7472 16.2626 18.8111 16.3176 18.8726 16.3717C19.0004 16.3 19.1504 16.2307 19.1369 16.3024C19.1179 16.3839 19.0926 16.4639 19.061 16.5414C19.1268 16.6025 19.1888 16.6621 19.2429 16.7204C19.3707 16.6487 19.5207 16.5775 19.5096 16.6501C19.4863 16.7467 19.4554 16.8414 19.417 16.933C19.4438 16.9726 19.4653 17.0155 19.4809 17.0606C19.5299 17.2179 19.5795 17.3843 19.4096 17.4232C19.2839 17.4633 19.168 17.529 19.069 17.6161C18.9701 17.7033 18.8903 17.81 18.8347 17.9295C18.687 18.1533 18.5463 18.1426 18.3806 17.9244C17.8433 17.208 17.1833 16.5923 16.431 16.1058C16.2546 15.9986 16.0375 15.8747 15.7629 15.7267C14.6905 15.1474 13.785 14.9434 13.8932 15.0553C14.4539 15.4356 15.0467 15.7662 15.6647 16.0434C15.7022 16.0642 15.7351 16.086 15.7712 16.104C14.748 16.5938 13.6223 16.8316 12.4883 16.7976C12.4866 16.7778 12.4826 16.7584 12.476 16.7398C11.9972 15.6301 10.2407 15.0077 11.2951 15.7567C11.7066 16.03 12.0012 16.4466 12.1218 16.9252V16.9307C12.1232 16.9357 12.1249 16.9405 12.1272 16.9451C12.1487 17.0181 12.1699 17.0926 12.1885 17.1582C12.2426 17.5781 12.1395 18.0032 11.8996 18.3521C11.8698 18.3761 11.8503 18.4107 11.8457 18.4487C11.8409 18.4866 11.8512 18.5249 11.8741 18.5555L11.8775 18.5602C12.0021 18.7895 12.0625 19.0483 12.0519 19.3092C12.0519 19.4479 12.0826 19.4853 12.23 19.4877C13.6447 19.5122 13.6117 19.9413 15.0075 19.0452C15.0994 18.9609 15.2131 18.9038 15.3356 18.8802C15.4582 18.8566 15.5851 18.8674 15.7019 18.9116C15.9287 19.0189 16.1495 19.1385 16.3634 19.2699C16.4797 19.3466 16.6108 19.398 16.7486 19.4209C16.886 19.4437 17.0269 19.4375 17.1618 19.4026C17.3032 19.39 17.4398 19.3431 17.559 19.266C17.6784 19.1889 17.7772 19.0839 17.8468 18.9601C17.8591 18.9379 17.8745 18.9178 17.8932 18.9004C17.9184 18.8586 17.9525 18.8228 17.993 18.7955C18.0336 18.7682 18.0796 18.75 18.1278 18.7422C18.1761 18.7344 18.2255 18.7372 18.2726 18.7504C18.3197 18.7636 18.3633 18.7869 18.4005 18.8186C18.4485 18.8662 18.507 18.902 18.5712 18.9232C18.6355 18.9444 18.7038 18.9504 18.7708 18.9407C18.8807 18.9152 18.9955 18.9198 19.103 18.954C19.2105 18.9881 19.3068 19.0506 19.3818 19.1349C19.4554 19.1802 19.5178 19.2415 19.5645 19.3142C19.6112 19.3868 19.641 19.4691 19.6516 19.5548C19.6622 19.6405 19.6534 19.7275 19.6259 19.8094C19.5983 19.8912 19.5527 19.9658 19.4924 20.0277C19.4854 19.8923 19.439 19.7619 19.3591 19.6523C19.2115 19.5048 19.0999 19.6601 18.9712 19.6897C18.9061 19.7109 18.8354 19.7076 18.7725 19.6804C18.7096 19.6533 18.6588 19.6041 18.6296 19.5422C18.5565 19.4035 18.4704 19.3517 18.3454 19.4766C18.2305 19.4938 18.1211 19.5375 18.026 19.6042C17.9793 19.7473 17.903 19.879 17.8021 19.9907C17.7176 19.9675 17.6303 19.9563 17.5426 19.9575H17.116L17.8482 20.2002H17.8588C17.8969 20.2239 17.9317 20.2527 17.9621 20.2857C18.0644 20.4197 18.1999 20.5247 18.3551 20.5905C18.5104 20.6564 18.6801 20.6807 18.8476 20.6612C18.8877 20.6554 18.9284 20.6575 18.9676 20.6674C19.0069 20.6774 19.0437 20.6949 19.0762 20.7191C19.1086 20.7433 19.1359 20.7736 19.1566 20.8083C19.1772 20.843 19.1909 20.8815 19.1967 20.9215C19.1966 20.9305 19.1974 20.9395 19.1989 20.9483C19.2186 21.0647 19.2745 21.172 19.3587 21.2549C19.7753 21.7015 19.7183 22.1754 19.1545 22.5764C19.2465 22.4662 19.3017 22.3302 19.3124 22.187C19.3124 22.0701 19.3503 21.8698 19.1647 21.8763C19.117 21.8846 19.0681 21.8823 19.0214 21.8695C18.9748 21.8568 18.9315 21.8338 18.8948 21.8023C18.8581 21.7708 18.8288 21.7316 18.809 21.6875C18.7892 21.6434 18.7795 21.5954 18.7805 21.5471C18.782 21.5261 18.7775 21.5051 18.7675 21.4866C18.7575 21.4681 18.7424 21.4528 18.724 21.4426C18.4619 21.2905 18.1821 21.1711 17.8909 21.087C17.8614 21.0855 17.8319 21.0855 17.8024 21.087C17.7425 21.0439 17.6798 21.0047 17.6148 20.9696L17.008 20.6459L17.4974 21.1629C17.4433 21.2346 17.4109 21.3205 17.4049 21.4102C17.3989 21.4999 17.4189 21.5894 17.463 21.6678C17.4834 21.7311 17.5243 21.788 17.5455 21.8527C17.5753 21.9089 17.5873 21.9728 17.5799 22.036C17.5721 22.0992 17.5452 22.1584 17.5028 22.206C17.4049 22.3082 17.3307 22.4307 17.2855 22.5649C17.2511 22.6506 17.1936 22.7254 17.1197 22.7811C17.0455 22.8366 16.9579 22.8709 16.8657 22.8802C16.7735 22.8891 16.6807 22.8729 16.5971 22.8331C16.5135 22.793 16.4427 22.7309 16.392 22.6535C16.4593 22.6642 16.5281 22.6558 16.5911 22.6299C16.6538 22.6039 16.7082 22.5609 16.7483 22.506C16.8711 22.2748 16.8136 22.0034 16.9247 21.7528C16.9419 21.6219 16.9184 21.4889 16.8571 21.3719C16.8514 21.3437 16.8436 21.316 16.8336 21.2891C16.8222 21.2531 16.8133 21.2163 16.8067 21.179C16.7984 21.1772 16.7901 21.1761 16.7818 21.1758C16.7609 21.1364 16.7374 21.0984 16.7113 21.062L16.4619 20.713L16.6008 21.1596C16.4092 21.1449 16.2222 21.0918 16.0518 21.0035C15.8812 20.9151 15.73 20.7934 15.6074 20.6455C15.5166 20.4596 15.3626 20.3121 15.1727 20.2293L14.6807 19.9639L15.0974 20.4064C14.8394 20.4096 14.5882 20.487 14.3732 20.6293C14.041 20.9113 13.6845 21.167 13.3403 21.4333C12.3829 22.1708 11.5473 21.7612 10.8867 21.6262C10.0757 21.4602 10.5915 21.5721 10.2106 20.8091C10.141 20.6704 10.0081 20.3861 9.97059 20.3403C9.85869 20.1398 9.79539 19.9159 9.78559 19.6865C9.96749 17.917 8.99349 14.2838 9.24899 16.9585C9.33749 17.8865 9.78709 19.6509 9.17679 20.2979L9.01069 20.4731C8.91679 20.5821 8.85519 20.7149 8.83259 20.8569C8.45489 20.4645 8.11009 20.0417 7.80199 19.5927C7.27569 19.0522 7.11929 18.7868 7.35639 19.2945C7.98669 20.6483 10.1757 22.385 10.6313 22.5626C11.4715 22.9125 12.1816 23.515 12.6633 24.2867C13.0238 24.7275 13.3191 25.218 13.5401 25.7426C12.3031 25.1612 11.0989 24.5119 9.93369 23.7974C8.86529 23.0941 8.16449 22.6596 8.79369 23.3891C9.80829 24.5688 12.712 25.8157 14.2211 26.3526C14.2672 26.3749 14.3113 26.3988 14.3626 26.4179C14.5075 26.4693 14.6555 26.512 14.8056 26.5455C14.9147 26.5917 15.0315 26.6159 15.1501 26.6165C15.3929 26.6592 15.6375 26.6887 15.8823 26.7225C24.631 28.1097 30.5513 16.9549 26.5098 9.4435C22.2387 1.70234 11.4528 0.3189 4.48532 5.20311C4.11132 5.46577 3.71099 5.90595 3.3327 6.1949C2.83386 6.5741 2.73563 6.1639 3.34731 5.41675L3.46758 5.26925C3.45183 5.2036 3.42148 5.1424 3.37852 5.09032C3.29347 5.02111 3.20012 4.96242 3.10103 4.91554C3.34215 4.79957 3.61448 4.76345 3.87765 4.81241C4.2253 4.44565 4.59643 4.10184 4.98874 3.78317C5.0254 3.67944 5.02225 3.56567 4.97987 3.46413C4.91687 3.37368 4.84327 3.29111 4.7608 3.21813C5.03485 3.17514 5.31548 3.21983 5.56262 3.34576C5.97928 3.04583 6.41309 2.77056 6.86189 2.52132C6.90279 2.43186 6.91279 2.33139 6.89049 2.2356C6.84439 2.13574 6.78629 2.04168 6.71809 1.95539C6.98609 1.95865 7.24639 2.0467 7.46149 2.20693C8.00419 1.93876 8.56289 1.7039 9.13419 1.50366C9.18169 1.42363 9.20289 1.33087 9.19489 1.23823C9.16359 1.13271 9.11949 1.03132 9.06399 0.93631C9.33199 0.97768 9.57969 1.10338 9.77129 1.2951C10.3838 1.1086 11.0067 0.95761 11.6367 0.84291C11.7106 0.76834 11.7558 0.6701 11.7644 0.56547C11.7512 0.4562 11.7249 0.34895 11.6857 0.24597C11.946 0.33498 12.171 0.50416 12.3288 0.72917C13.0058 0.63352 13.6879 0.57734 14.3715 0.56086C14.4416 0.49959 14.4909 0.41795 14.5121 0.32736C14.5141 0.21727 14.5026 0.10737 14.4783 0C14.7214 0.12247 14.9187 0.3191 15.0421 0.56132C15.9092 0.57437 16.7732 0.66551 17.6237 0.83368C17.6787 0.78696 17.7228 0.72871 17.7526 0.66306C17.7826 0.5433 17.7981 0.42035 17.7987 0.29684C18.0227 0.46706 18.1852 0.70547 18.2616 0.97606C19.1424 1.19117 20.0013 1.48729 20.8274 1.86061C20.8798 1.8208 20.9247 1.77212 20.9603 1.71681C21.0139 1.57927 21.0509 1.43585 21.0704 1.28956C21.1982 1.26274 21.4292 1.85183 21.507 2.19212C22.3651 2.63542 23.18 3.15753 23.9413 3.75173C24.021 3.7338 24.0954 3.69737 24.1584 3.64538C24.2402 3.54381 24.3095 3.43284 24.3649 3.31479C24.481 3.32587 24.5181 3.89738 24.4903 4.1993C25.3076 4.80745 26.0755 5.47922 26.7867 6.2083C26.8356 6.1969 26.8824 6.178 26.9256 6.1524C27.0226 6.0622 27.1085 5.96092 27.1816 5.85046C27.2899 5.87728 27.2538 6.3974 27.1889 6.7082C27.6916 7.3611 28.1463 8.0495 28.5494 8.7681C28.6735 8.8016 28.8045 8.7999 28.9276 8.763C29.0777 8.6816 29.2176 8.5825 29.3442 8.468C29.4858 8.5447 29.2053 9.3321 29.0146 9.6567C29.1936 10.0245 29.3595 10.3985 29.5122 10.7789C29.6409 11.0998 29.7575 11.4249 29.8622 11.7541C29.9243 11.8438 30.0073 11.9171 30.1041 11.9676C30.2008 12.0182 30.3084 12.0446 30.4176 12.0444C30.5848 12.0103 30.7472 11.9561 30.9014 11.8831C31.0263 12.0052 30.4491 12.7736 30.1955 12.9798C30.3708 13.7524 30.4934 14.5359 30.5625 15.325C30.6683 15.4557 30.8183 15.5432 30.9842 15.571C31.1551 15.5641 31.3244 15.5368 31.4888 15.4896C31.5873 15.6283 30.9282 16.2567 30.6306 16.4384C30.6519 17.0594 30.5773 18.0942 30.5227 18.7896C30.5617 18.8593 30.6154 18.9196 30.6801 18.9664C30.7449 19.0131 30.8192 19.0451 30.8976 19.0601C31.102 19.0527 31.3035 19.0095 31.4929 18.9325C31.5915 19.0915 30.631 19.8665 30.394 19.9344C30.2509 20.6692 30.0525 21.3921 29.8006 22.097C29.8209 22.1883 29.861 22.2737 29.918 22.3479C29.975 22.4218 30.0476 22.4827 30.1306 22.5255C30.3201 22.5896 30.5165 22.6308 30.7157 22.6482C30.7648 22.8448 29.739 23.2709 29.3562 23.3301C29.0707 23.9078 28.7438 24.4641 28.3781 24.9947C28.3741 25.0856 28.3884 25.1763 28.4203 25.2615C28.452 25.3469 28.5007 25.4249 28.5633 25.4907C28.7344 25.6238 28.9209 25.7361 29.1188 25.8247C29.1035 26.0161 28.1666 26.0932 27.662 26.056C27.2952 26.5433 26.8929 27.0032 26.4585 27.4319C26.4551 27.5757 26.4981 27.7169 26.5812 27.8346C26.7305 27.9908 26.898 28.1288 27.0802 28.2452C27.0339 28.4395 26.0197 28.3673 25.5466 28.2504C25.0599 28.6468 24.5465 29.0088 24.0098 29.3344C24.0205 29.3887 24.0369 29.4415 24.0589 29.4924C24.1772 29.6731 24.3171 29.8388 24.4755 29.986C24.4116 30.1428 23.6733 29.9759 23.1794 29.801C22.7384 30.0305 22.2869 30.2383 21.825 30.4249C21.8179 30.5112 21.8266 30.5978 21.8509 30.6809C21.9423 30.8767 22.057 31.0603 22.1925 31.2286C22.0939 31.388 21.2537 31.051 20.8149 30.7929L20.6686 30.8406C20.2922 30.9598 19.9129 31.0632 19.5308 31.1504C19.5154 31.2202 19.5105 31.2921 19.516 31.3634C19.5666 31.5736 19.6425 31.7768 19.7419 31.9688C19.6225 32.0964 18.9601 31.6738 18.5611 31.3394C18.0153 31.4281 17.4682 31.487 16.9275 31.5216C16.8528 31.6166 16.8047 31.7301 16.7887 31.8499C16.7912 32.0655 16.8199 32.28 16.874 32.4888C16.7219 32.591 16.1277 31.9734 15.8253 31.5548C15.2964 31.5548 14.7769 31.5323 14.2707 31.4896C14.1991 31.5724 14.1487 31.6712 14.1229 31.7774C14.1049 31.9934 14.1129 32.2107 14.1469 32.4247C13.9826 32.5147 13.4253 31.8092 13.1699 31.3663C12.7532 31.3062 12.3506 31.2332 11.964 31.1489C11.8999 31.2156 11.8497 31.2941 11.8162 31.3802C11.7698 31.5909 11.7487 31.8066 11.7532 32.0222C11.5826 32.0866 11.1516 31.3677 10.9488 30.892C10.6837 30.816 10.4305 30.7358 10.1888 30.6509L10.1725 30.6454C10.0923 30.7173 10.0302 30.8074 9.99149 30.9081C9.94509 31.1189 9.92389 31.3348 9.92849 31.5508C9.73179 31.6256 9.18199 30.6448 9.04599 30.2144C8.87299 30.1425 8.70889 30.0715 8.55369 30.0013L8.32579 29.8997C8.23869 29.9595 8.16649 30.0386 8.11559 30.1307C8.04109 30.3339 7.99159 30.5452 7.96779 30.76C7.77789 30.8025 7.40539 29.9075 7.28999 29.4219C7.08379 29.3235 6.91969 29.2406 6.81349 29.1806C6.07949 28.6869 6.47179 30.3255 6.40079 30.1826C6.20949 30.0342 6.04999 29.8489 5.93174 29.6379C5.81319 29.4268 5.73873 29.1941 5.7121 28.9536C5.88277 28.2997 6.31599 27.7555 6.23559 27.7246C6.19319 27.7088 4.94264 28.8691 5.20523 29.4872C4.95094 29.3668 4.73416 29.1791 4.57838 28.9447C4.39654 28.6496 4.92746 28.003 5.10472 27.7119C5.2857 27.4547 5.38278 27.1481 5.3825 26.8334C5.36131 26.7965 5.29315 27.106 5.08124 27.3843C4.76968 27.7931 3.56809 28.3612 3.18322 27.9083C3.52686 27.5445 3.82553 27.1409 4.07295 26.7058C4.17146 26.5505 4.25136 26.3836 4.31035 26.2093C4.04861 26.4044 3.80778 26.6261 3.59215 26.8715C3.37308 26.9784 3.13053 27.0283 2.88683 27.0165C2.64342 27.0046 2.40689 26.9316 2.19927 26.804C2.04407 26.7304 1.98594 26.6524 2.17608 26.5159C2.43724 26.3507 2.67378 26.1501 2.8791 25.9194C3.24679 25.5808 3.56437 25.1916 3.82267 24.7635C3.58871 25.0628 3.30721 25.3221 2.98935 25.5305C2.93752 25.5398 2.8854 25.5458 2.833 25.5481C2.29721 25.5305 1.78434 25.327 1.38257 24.9725C1.26315 24.8648 1.60336 24.7851 1.80725 24.7202C1.98307 24.6852 2.1609 24.663 2.33988 24.6529C2.73334 24.6067 2.81725 24.5484 2.76026 24.5391C2.70327 24.5299 2.53346 24.5721 2.3668 24.5703C2.06469 24.5152 1.77775 24.3965 1.52518 24.2222C1.96618 24.2037 2.39457 24.0714 2.76914 23.8382C2.9421 23.6728 2.73048 23.8105 2.63025 23.8382C1.85678 24.0579 0.56614 23.4805 0 23.0027C0.01318 22.9698 0.03551 22.9415 0.06443 22.921C0.09364 22.9008 0.12801 22.8892 0.16352 22.8881C0.72909 22.8312 1.28749 22.7169 1.82987 22.5468C2.26313 22.4273 2.66232 22.2085 2.99623 21.9079C3.11678 21.7876 2.91118 21.8797 2.65202 22.0179C2.29721 22.2134 1.89287 22.3 1.48909 22.2671C1.1068 22.2336 0.7434 22.0864 0.44587 21.844C0.0320702 21.4071 0.42898 21.7456 1.05898 21.5911C1.6423 21.4487 2.44182 21.2152 2.4759 21.0825C2.4759 21.0825 0.85881 21.7433 0.18843 20.241C0.10968 20.0639 0.26145 20.2267 0.50544 20.2128C1.01917 20.1551 1.52317 20.0307 2.00483 19.8429C1.1151 20.0079 0.32273 19.1688 0.17869 18.6199C0.57216 18.6874 0.98166 18.6966 1.40891 18.7702C1.83932 18.8788 2.28805 18.8914 2.72361 18.8072C2.88798 18.7581 2.6251 18.748 2.33014 18.7424C1.09277 18.7184 0.10452 17.6018 0.44157 16.4694C0.89746 16.8045 1.42667 17.0264 1.98536 17.1167C2.40431 17.2669 2.85705 17.2965 3.29204 17.2023C3.37995 17.1634 3.24937 17.1949 2.95699 17.1639C2.55752 17.1091 2.18095 16.9454 1.86824 16.6909C1.55582 16.4363 1.31957 16.1007 1.18555 15.7208C1.43182 15.7804 3.2425 16.4218 3.70354 16.3219C3.80234 16.3006 3.59472 16.2021 3.30235 16.1023L3.19439 16.0662C2.87882 15.9317 2.5999 15.7242 2.38054 15.4608C2.1609 15.1975 2.00741 14.8858 1.9321 14.5514C1.85592 14.1935 1.87454 13.8218 1.98622 13.4732C2.27946 13.7513 2.60505 13.9936 2.95556 14.195L2.75138 13.3104C3.15401 13.5939 3.55034 13.9041 3.96098 14.1631L4.03544 14.2158C4.03486 14.2133 4.03486 14.2108 4.03544 14.2084C4.4332 14.4576 5.06263 14.8474 5.21211 14.9019C5.31949 14.9403 2.16491 13.1324 4.0804 10.4903C4.29317 11.2076 4.58039 11.9008 4.9372 12.5585C5.2396 12.9468 5.58467 13.3 5.96581 13.6114C6.09349 13.6969 5.97698 13.5758 5.8149 13.3894C5.65196 13.1988 5.49933 12.9997 5.35758 12.793C4.88823 12.1456 4.82609 11.9681 5.02339 11.2495C5.17803 10.6868 5.1219 10.7807 5.41113 11.2865C5.80373 12.0996 6.37299 12.8147 7.07779 13.3797C7.19779 13.4573 7.33549 13.5033 7.47809 13.5133C7.48439 13.5133 6.21519 12.4758 6.13559 11.5025C6.09959 10.8668 6.26709 10.2362 6.61389 9.702C6.84729 9.3165 7.18399 9.0039 7.58579 8.7994C7.55489 10.4589 7.59379 11.6199 9.18599 12.7222C9.28739 12.8009 9.19199 12.682 9.05429 12.4952C8.68709 11.9982 8.15539 11.3032 8.26729 10.6767C8.34889 10.3258 8.52249 10.0028 8.76989 9.7409C8.79909 9.8524 8.81569 9.9669 8.81919 10.0821C8.97319 10.9916 9.61089 12.0241 10.6041 12.2816C10.7358 12.2909 10.5777 12.2659 10.3873 12.1707C9.32259 11.6412 9.30449 9.7774 10.0101 9.2409C10.3543 10.1537 10.6072 11.3794 11.6974 11.4821C12.4268 11.551 11.8208 10.9823 11.6974 10.6887C11.6808 10.6493 11.5986 10.5467 11.5914 10.5227C12.0476 10.7747 12.4795 11.0688 12.8809 11.4012C12.913 11.4239 12.9511 11.4367 12.9903 11.4381C13.0298 11.4395 13.0685 11.4294 13.1023 11.409C13.421 11.1982 12.4133 10.2152 12.893 10.5245C12.974 10.5735 13.8826 11.2643 14.1633 11.3915C14.2317 11.4256 14.309 11.4385 14.3849 11.4284C14.4975 11.4076 14.0734 10.8089 13.8566 10.5994C13.7944 10.5515 13.7349 10.5004 13.6782 10.4463C13.7592 10.4313 13.8428 10.4343 13.9227 10.4551C14.0029 10.4758 14.0774 10.5139 14.1409 10.5666C14.4783 10.7437 15.0607 11.2777 15.4241 11.4668C15.5029 11.5094 15.5009 11.6055 15.5226 11.4321C15.4027 11.2615 14.8995 10.4237 15.3686 10.7303C15.6962 10.9813 16.0095 11.2504 16.3073 11.5362C16.36 11.5695 16.4118 11.6055 16.4636 11.6425C16.5387 11.6971 16.6638 11.7993 16.7196 11.6772C16.6383 11.452 16.5352 11.2352 16.4118 11.0299C16.7723 11.2808 17.1034 11.5715 17.3989 11.8964C17.4628 11.9745 17.5956 12.0984 17.6546 12.0351C17.6108 11.8098 17.5481 11.5887 17.4673 11.3739C17.5658 11.3803 18.2783 12.196 18.5241 12.387C18.5975 12.4439 18.6738 12.497 18.7527 12.546C19.1144 12.7196 19.4377 12.9634 19.704 13.2632C19.7421 13.2964 19.7894 13.3173 19.8396 13.3233C20.0234 13.3825 20.1903 13.4848 20.3266 13.6215C20.5921 13.9123 20.8305 14.2266 21.0389 14.5606C21.1016 14.6478 21.1449 14.7474 21.166 14.8527C21.1871 14.958 21.1855 15.0666 21.1613 15.1712C21.137 15.2758 21.0908 15.374 21.0255 15.4594C20.9603 15.5447 20.8776 15.6152 20.783 15.6661C20.7229 15.7145 20.6513 15.7464 20.5752 15.7586L20.5812 15.7637L20.5733 15.7642ZM20.7316 15.1252C20.7779 15.2079 20.7742 15.152 20.8242 15.0669C20.9783 14.8015 20.7543 14.7483 20.7177 14.9004C20.7081 14.9382 20.7014 14.9767 20.6978 15.0156C20.6995 15.0541 20.7105 15.0917 20.7298 15.1252H20.7316ZM18.9263 13.7422C19.1115 13.861 19.2966 13.867 19.3387 13.7561C19.3405 13.669 19.3168 13.5832 19.2706 13.5094C19.2244 13.4355 19.1577 13.3766 19.0786 13.3399C18.8935 13.2216 18.7083 13.2151 18.6662 13.326C18.6642 13.4131 18.6877 13.4989 18.7338 13.5728C18.7799 13.6468 18.8472 13.7056 18.9263 13.7422ZM16.612 13.7357C16.5799 14.162 16.8173 12.8618 17.3181 13.0213C17.3562 13.0338 17.5498 13.0805 17.587 13.0972C17.8333 13.2118 16.7283 12.2011 16.612 13.7357ZM17.1604 15.7702C17.518 16.0542 17.8522 16.3665 18.1598 16.7042L18.6129 17.2003V17.1235C18.3707 16.7523 18.0697 16.4229 17.7219 16.1479C17.4905 15.9542 17.3204 15.8196 17.1807 15.7188C16.5475 15.2588 16.2703 15.1057 17.1581 15.772L17.1604 15.7702ZM12.1478 12.1848C12.9688 12.0167 13.8119 11.9825 14.6441 12.0836L16.0833 12.2463C16.0833 12.2463 12.9056 11.1745 11.6264 12.3064C11.2561 12.6361 11.7544 12.2768 12.1478 12.1848ZM8.73349 14.5429C8.96289 14.31 9.24669 14.1377 9.55909 14.0413C9.91679 13.9655 10.2891 14.0036 10.6238 14.1504C10.8767 14.2706 11.0242 14.2923 10.6877 14.0824C10.4354 13.8859 10.1218 13.7842 9.80219 13.7951C9.48239 13.8059 9.17649 13.9285 8.93799 14.1416C8.73949 14.289 8.58609 14.4888 8.49499 14.7186C8.58719 14.6792 8.66969 14.6203 8.73729 14.5462L8.73349 14.5429ZM10.765 29.7268C12.8534 30.4182 15.0685 30.642 17.2528 30.3824C18.1448 30.2802 19.0277 30.111 19.8942 29.8766C23.4085 29.0073 26.4371 26.7878 28.3216 23.7002C29.5419 21.5999 30.1403 19.1968 30.0473 16.7702C29.9568 13.583 28.9879 10.4827 27.2473 7.8099C25.6975 5.44068 23.1929 3.62086 20.6884 2.43431C20.107 2.1532 19.4994 1.92972 18.8743 1.7671C18.1948 1.58144 17.5047 1.43752 16.8074 1.33616C16.0016 1.2201 15.1868 1.17645 14.373 1.20575C14.3764 1.23627 15.1694 1.29129 15.9099 1.36159C16.9357 1.45672 17.9503 1.64743 18.9405 1.93122C19.0289 1.95712 19.1178 1.98486 19.2053 2.01677C21.2736 2.74616 23.1743 3.8826 24.7951 5.35875C26.6844 7.1476 28.0834 9.3901 28.8589 11.8724C33.2929 24.9577 20.2098 34.3693 6.71639 28.026C8.02249 28.69 9.37469 29.2599 10.7624 29.7307V29.727L10.765 29.7268ZM5.5861 26.1665C3.51054 22.4998 2.66204 20.4434 4.86045 16.8006C5.18318 16.1752 5.65655 15.6398 6.23789 15.2424L6.19779 15.1665C6.14849 15.192 6.10499 15.2155 6.06199 15.2433C5.08582 15.8305 4.25966 17.0572 3.7591 18.4337C3.45212 19.1553 3.29118 19.9306 3.28602 20.7147C3.28115 21.4987 3.43179 22.276 3.7296 23.0015C4.21327 24.1309 4.83754 25.1947 5.58753 26.1682L5.5861 26.1665Z" fill="white" fill-opacity="0.4"/>
<path d="M44.2239 22.9167C43.2957 22.9167 42.4061 22.7944 41.5553 22.5496C40.7045 22.2937 40.0194 21.9656 39.5 21.5651L40.4116 19.5292C40.9089 19.8852 41.4945 20.18 42.1686 20.4136C42.8537 20.6361 43.5443 20.7474 44.2404 20.7474C44.7708 20.7474 45.1963 20.6973 45.5167 20.5972C45.8482 20.4859 46.0913 20.3357 46.246 20.1466C46.4007 19.9575 46.478 19.7406 46.478 19.4958C46.478 19.1843 46.3565 18.9396 46.1134 18.7616C45.8703 18.5724 45.5498 18.4222 45.1521 18.311C44.7543 18.1886 44.3123 18.0774 43.8261 17.9772C43.3509 17.866 42.8702 17.7325 42.384 17.5767C41.9089 17.421 41.4724 17.2207 41.0746 16.976C40.6768 16.7312 40.3509 16.4086 40.0967 16.0081C39.8536 15.6076 39.7321 15.0959 39.7321 14.4729C39.7321 13.8054 39.9089 13.199 40.2625 12.6539C40.6271 12.0977 41.1686 11.6582 41.8868 11.3356C42.6161 11.0019 43.5277 10.835 44.6217 10.835C45.351 10.835 46.0692 10.924 46.7764 11.102C47.4836 11.2689 48.1079 11.5247 48.6494 11.8696L47.8206 13.9222C47.2792 13.6107 46.7377 13.3826 46.1963 13.238C45.6548 13.0822 45.1244 13.0044 44.6051 13.0044C44.0857 13.0044 43.6603 13.0655 43.3288 13.1879C42.9973 13.3103 42.7597 13.4716 42.6161 13.6719C42.4724 13.861 42.4006 14.0835 42.4006 14.3394C42.4006 14.6397 42.5222 14.8845 42.7653 15.0736C43.0084 15.2516 43.3288 15.3962 43.7266 15.5075C44.1244 15.6187 44.5609 15.73 45.036 15.8412C45.5222 15.9525 46.0029 16.0804 46.478 16.225C46.9642 16.3697 47.4062 16.5644 47.804 16.8091C48.2018 17.0539 48.5223 17.3765 48.7654 17.777C49.0195 18.1775 49.1466 18.6837 49.1466 19.2956C49.1466 19.9519 48.9643 20.5527 48.5996 21.0978C48.235 21.6429 47.688 22.0824 46.9587 22.4161C46.2405 22.7499 45.3289 22.9167 44.2239 22.9167Z" fill="white" fill-opacity="0.4"/>
<path d="M50.799 22.7165V10.3344H53.3847V22.7165H50.799Z" fill="white" fill-opacity="0.4"/>
<path d="M60.0276 22.8499C59.0773 22.8499 58.232 22.6496 57.4917 22.2491C56.7624 21.8486 56.1823 21.3035 55.7513 20.6138C55.3314 19.9129 55.1215 19.1175 55.1215 18.2275C55.1215 17.3263 55.3314 16.5309 55.7513 15.8411C56.1823 15.1403 56.7624 14.5951 57.4917 14.2058C58.232 13.8053 59.0773 13.605 60.0276 13.605C60.9669 13.605 61.8067 13.8053 62.547 14.2058C63.2874 14.5951 63.8675 15.1347 64.2874 15.8244C64.7073 16.5142 64.9172 17.3152 64.9172 18.2275C64.9172 19.1175 64.7073 19.9129 64.2874 20.6138C63.8675 21.3035 63.2874 21.8486 62.547 22.2491C61.8067 22.6496 60.9669 22.8499 60.0276 22.8499ZM60.0276 20.7139C60.4586 20.7139 60.8453 20.6138 61.1879 20.4135C61.5304 20.2133 61.8011 19.9296 62 19.5625C62.1989 19.1842 62.2984 18.7392 62.2984 18.2275C62.2984 17.7046 62.1989 17.2596 62 16.8924C61.8011 16.5253 61.5304 16.2416 61.1879 16.0414C60.8453 15.8411 60.4586 15.741 60.0276 15.741C59.5967 15.741 59.2099 15.8411 58.8674 16.0414C58.5248 16.2416 58.2486 16.5253 58.0386 16.8924C57.8397 17.2596 57.7403 17.7046 57.7403 18.2275C57.7403 18.7392 57.8397 19.1842 58.0386 19.5625C58.2486 19.9296 58.5248 20.2133 58.8674 20.4135C59.2099 20.6138 59.5967 20.7139 60.0276 20.7139Z" fill="white" fill-opacity="0.4"/>
<path d="M70.292 22.8499C69.2423 22.8499 68.4246 22.5829 67.8389 22.0489C67.2533 21.5038 66.9605 20.6972 66.9605 19.6292V11.7527H69.5462V19.5958C69.5462 19.9741 69.6456 20.2689 69.8445 20.4803C70.0434 20.6805 70.3141 20.7806 70.6567 20.7806C71.0655 20.7806 71.4136 20.6694 71.7009 20.4469L72.397 22.2825C72.1318 22.4716 71.8114 22.6163 71.4357 22.7164C71.071 22.8054 70.6898 22.8499 70.292 22.8499ZM65.5848 15.9413V13.9388H71.7672V15.9413H65.5848Z" fill="white" fill-opacity="0.4"/>
<path d="M77.8165 22.8499C76.8662 22.8499 76.0209 22.6496 75.2805 22.2491C74.5513 21.8486 73.9711 21.3035 73.5402 20.6138C73.1203 19.9129 72.9103 19.1175 72.9103 18.2275C72.9103 17.3263 73.1203 16.5309 73.5402 15.8411C73.9711 15.1403 74.5513 14.5951 75.2805 14.2058C76.0209 13.8053 76.8662 13.605 77.8165 13.605C78.7558 13.605 79.5956 13.8053 80.3359 14.2058C81.0762 14.5951 81.6564 15.1347 82.0763 15.8244C82.4962 16.5142 82.7061 17.3152 82.7061 18.2275C82.7061 19.1175 82.4962 19.9129 82.0763 20.6138C81.6564 21.3035 81.0762 21.8486 80.3359 22.2491C79.5956 22.6496 78.7558 22.8499 77.8165 22.8499ZM77.8165 20.7139C78.2475 20.7139 78.6342 20.6138 78.9768 20.4135C79.3193 20.2133 79.59 19.9296 79.7889 19.5625C79.9878 19.1842 80.0873 18.7392 80.0873 18.2275C80.0873 17.7046 79.9878 17.2596 79.7889 16.8924C79.59 16.5253 79.3193 16.2416 78.9768 16.0414C78.6342 15.8411 78.2475 15.741 77.8165 15.741C77.3856 15.741 76.9988 15.8411 76.6563 16.0414C76.3137 16.2416 76.0375 16.5253 75.8275 16.8924C75.6286 17.2596 75.5292 17.7046 75.5292 18.2275C75.5292 18.7392 75.6286 19.1842 75.8275 19.5625C76.0375 19.9296 76.3137 20.2133 76.6563 20.4135C76.9988 20.6138 77.3856 20.7139 77.8165 20.7139Z" fill="white" fill-opacity="0.4"/>
<path d="M83.7078 22.7164V21.1478L88.9787 14.8733L89.4262 15.741H83.8239V13.7385H91.5146V15.3071L86.2438 21.5816L85.7797 20.7139H91.6638V22.7164H83.7078Z" fill="white" fill-opacity="0.4"/>
<path d="M93.3208 22.7164V13.7385H95.9065V22.7164H93.3208ZM94.6136 12.4869C94.1385 12.4869 93.7517 12.3479 93.4534 12.0698C93.155 11.7916 93.0059 11.4468 93.0059 11.0351C93.0059 10.6235 93.155 10.2786 93.4534 10.0005C93.7517 9.72235 94.1385 9.58325 94.6136 9.58325C95.0888 9.58325 95.4755 9.71675 95.7739 9.98375C96.0725 10.2397 96.2215 10.5734 96.2215 10.9851C96.2215 11.4189 96.0725 11.7805 95.7739 12.0698C95.4866 12.3479 95.0998 12.4869 94.6136 12.4869Z" fill="white" fill-opacity="0.4"/>
<path d="M98.3065 22.7165V10.3344H100.891V22.7165H98.3065Z" fill="white" fill-opacity="0.4"/>
<path d="M103.292 22.7165V10.3344H105.878V22.7165H103.292Z" fill="white" fill-opacity="0.4"/>
<path d="M113.746 22.7164V20.9642L113.58 20.5804V17.4431C113.58 16.8869 113.409 16.453 113.067 16.1415C112.735 15.83 112.221 15.6743 111.525 15.6743C111.05 15.6743 110.58 15.7521 110.116 15.9079C109.663 16.0525 109.277 16.2528 108.956 16.5086L108.028 14.6897C108.514 14.3448 109.1 14.0778 109.785 13.8887C110.47 13.6996 111.166 13.605 111.873 13.605C113.232 13.605 114.288 13.9276 115.039 14.5729C115.79 15.2181 116.166 16.2249 116.166 17.5933V22.7164H113.746ZM111.028 22.8499C110.332 22.8499 109.735 22.7331 109.238 22.4995C108.741 22.2547 108.359 21.9265 108.094 21.5149C107.829 21.1033 107.696 20.6416 107.696 20.1298C107.696 19.5958 107.823 19.1286 108.078 18.7281C108.343 18.3276 108.757 18.0161 109.321 17.7936C109.884 17.5599 110.619 17.4431 111.525 17.4431H113.895V18.9617H111.807C111.199 18.9617 110.779 19.0618 110.547 19.2621C110.326 19.4623 110.216 19.7126 110.216 20.013C110.216 20.3468 110.343 20.6138 110.597 20.814C110.862 21.0031 111.221 21.0977 111.674 21.0977C112.105 21.0977 112.492 20.9976 112.835 20.7973C113.177 20.586 113.426 20.28 113.58 19.8795L113.978 21.081C113.79 21.6595 113.448 22.099 112.951 22.3993C112.453 22.6997 111.813 22.8499 111.028 22.8499Z" fill="white" fill-opacity="0.4"/>
</svg>
