<svg width="51" height="22" viewBox="0 0 51 22" fill="none" xmlns="http://www.w3.org/2000/svg">
<mask id="mask0_18_181" style="mask-type:luminance" maskUnits="userSpaceOnUse" x="0" y="0" width="51" height="22">
<path d="M50.5493 0H0V21.7H50.5493V0Z" fill="white"/>
</mask>
<g mask="url(#mask0_18_181)">
<path d="M13.5166 6.013C13.5166 -1.99978 25.5584 -1.99978 25.5584 6.013C25.5584 14.0258 13.5166 14.0432 13.5166 6.013ZM22.4893 6.013C22.5138 5.6114 22.4558 5.209 22.319 4.83065C22.1821 4.45227 21.9693 4.1059 21.6936 3.81286C21.4179 3.51981 21.0851 3.28629 20.7157 3.12667C20.3464 2.96705 19.9483 2.8847 19.5459 2.8847C19.1436 2.8847 18.7455 2.96705 18.3761 3.12667C18.0068 3.28629 17.674 3.51981 17.3983 3.81286C17.1226 4.1059 16.9097 4.45227 16.7729 4.83065C16.6361 5.209 16.5781 5.6114 16.6026 6.013C16.5781 6.4146 16.6361 6.817 16.7729 7.1954C16.9097 7.5738 17.1226 7.9201 17.3983 8.2132C17.674 8.5062 18.0068 8.7397 18.3761 8.8994C18.7455 9.059 19.1436 9.1413 19.5459 9.1413C19.9483 9.1413 20.3464 9.059 20.7157 8.8994C21.0851 8.7397 21.4179 8.5062 21.6936 8.2132C21.9693 7.9201 22.1821 7.5738 22.319 7.1954C22.4558 6.817 22.5138 6.4146 22.4893 6.013Z" fill="white" fill-opacity="0.4"/>
<path d="M12.0418 6.01319C12.0418 -2.00114 0 -2.00114 0 6.01319C0 11.4927 5.6068 13.2321 9.1695 11.2327L9.607 12.039H12.0169V11.4425L11.0227 9.55349C11.7174 8.50579 12.0732 7.26979 12.0418 6.01319ZM3.086 6.01319C3.0609 5.61119 3.1185 5.20829 3.2551 4.8294C3.3916 4.4505 3.6044 4.10359 3.8802 3.81006C4.156 3.51653 4.489 3.28261 4.8587 3.12271C5.2283 2.9628 5.6268 2.8803 6.0296 2.8803C6.4324 2.8803 6.8309 2.9628 7.2005 3.12271C7.5702 3.28261 7.9032 3.51653 8.179 3.81006C8.4548 4.10359 8.6675 4.4505 8.8041 4.8294C8.9407 5.20829 8.9982 5.61119 8.9732 6.01319C8.9982 6.41509 8.9407 6.81799 8.8041 7.19689C8.6675 7.57579 8.4548 7.92269 8.179 8.21619C7.9032 8.50979 7.5702 8.74369 7.2005 8.90359C6.8309 9.06349 6.4324 9.14599 6.0296 9.14599C5.6268 9.14599 5.2283 9.06349 4.8587 8.90359C4.489 8.74369 4.156 8.50979 3.8802 8.21619C3.6044 7.92269 3.3916 7.57579 3.2551 7.19689C3.1185 6.81799 3.0609 6.41509 3.086 6.01319Z" fill="white" fill-opacity="0.4"/>
<path d="M37.1085 11.4403V12.0393H33.847L31.7413 8.4274H30.1247V12.0393H27.0994V0H32.2886C36.9375 0.0169 37.7831 5.6123 34.79 7.6409L37.1055 11.4403H37.1085ZM32.2866 2.70472C31.5763 2.68782 30.8336 2.70472 30.1232 2.70472V5.6625H32.2866C33.927 5.6625 34.0111 2.72063 32.2866 2.70472Z" fill="white" fill-opacity="0.4"/>
<path d="M46.8978 10.3998H42.2315L41.469 12.0403H38.5803V11.4492L43.8595 0.00195312H45.2549L50.5495 11.4492V12.0403H47.6614L46.8978 10.3998ZM44.548 4.70353L43.2128 7.81439H45.9175L44.548 4.70353Z" fill="white" fill-opacity="0.4"/>
<path d="M12.8726 18.7767H12.0444V20.6925L12.0091 20.7054C11.8529 20.7592 11.6924 20.7998 11.5294 20.8267C11.3464 20.8575 11.1612 20.873 10.9756 20.873C9.88199 20.873 9.32729 20.2854 9.32729 19.1261C9.28949 18.6139 9.43289 18.1048 9.73239 17.6875C9.91259 17.5119 10.1291 17.3778 10.3666 17.2947C10.6041 17.2116 10.857 17.1814 11.1074 17.2063C11.3711 17.2063 11.6345 17.2241 11.8958 17.2595C12.1215 17.291 12.3439 17.3427 12.5604 17.4141V16.5755C12.3376 16.5046 12.1091 16.4533 11.8774 16.4224C11.5949 16.3852 11.3102 16.3674 11.0254 16.3692C10.6541 16.3419 10.2813 16.393 9.93099 16.519C9.5808 16.6451 9.26089 16.8433 8.99219 17.1009C8.51329 17.6624 8.26919 18.3868 8.31069 19.1236C8.29059 19.4686 8.33979 19.814 8.45529 20.1396C8.57079 20.4652 8.75029 20.7644 8.98329 21.0196C9.25009 21.2601 9.56259 21.4442 9.90219 21.5612C10.2418 21.6781 10.6015 21.7254 10.9597 21.7001C11.3631 21.709 11.7658 21.6628 12.1568 21.5629C12.4063 21.4975 12.6464 21.4003 12.8711 21.2736V18.7767H12.8726Z" fill="white" fill-opacity="0.4"/>
<path d="M19.1997 20.3475L19.7261 21.6931H20.6303V21.3452L18.7697 16.4497H17.6308L15.7602 21.3452V21.6931H16.6689L17.1904 20.3475H19.2022H19.1997ZM18.1856 17.4718H18.2547L18.9114 19.3697H17.4698L18.1856 17.4718Z" fill="white" fill-opacity="0.4"/>
<path d="M28.8861 21.6931V16.4492H27.8651L26.2858 19.4229L24.7065 16.4492H23.6775V21.6931H24.6781V18.0146L25.9999 20.7104H26.5731L27.8859 18.0136V21.6951L28.8861 21.6931Z" fill="white" fill-opacity="0.4"/>
<path d="M35.6475 17.2038V16.4492H31.969V21.6862H35.6475V20.9405H32.9711V19.4065H35.3443V18.6608H32.9711V17.2043L35.6475 17.2038Z" fill="white" fill-opacity="0.4"/>
<path d="M42.2377 20.2285C42.2408 20.0024 42.1965 19.7782 42.1075 19.5703C42.0033 19.3567 41.8408 19.1769 41.6387 19.0518C41.335 18.8661 41.0033 18.7304 40.6564 18.6502C40.4096 18.5886 40.166 18.5144 39.9267 18.428C39.7812 18.381 39.649 18.3001 39.541 18.1919C39.4585 18.0898 39.4162 17.9611 39.4221 17.83C39.4119 17.7202 39.4388 17.6101 39.4984 17.5174C39.5581 17.4247 39.6471 17.3547 39.7512 17.3185C40.019 17.2329 40.2995 17.1944 40.5804 17.2046C41.0395 17.2042 41.4954 17.2825 41.928 17.4363V16.5753C41.7256 16.512 41.5185 16.4649 41.3086 16.4346C41.0188 16.3899 40.726 16.3683 40.4327 16.37C39.8999 16.3349 39.3696 16.4687 38.9171 16.7522C38.6295 16.9924 38.4483 17.3363 38.4129 17.7093C38.3774 18.0822 38.4905 18.4541 38.7277 18.7441C39.0548 19.0226 39.4462 19.2148 39.8666 19.3034C40.1384 19.3738 40.4065 19.4579 40.6699 19.5554C40.8295 19.6073 40.9734 19.6986 41.0884 19.8209C41.1775 19.9383 41.2225 20.0832 41.2157 20.2305C41.2297 20.3402 41.2076 20.4514 41.1527 20.5474C41.0978 20.6434 41.0131 20.7188 40.9115 20.7624C40.6327 20.8489 40.341 20.8862 40.0495 20.8727C39.7706 20.8718 39.4926 20.841 39.2203 20.7808C38.9772 20.7293 38.7385 20.6586 38.5065 20.5695V21.432C38.7363 21.5238 38.9758 21.5893 39.2203 21.6273C39.5301 21.6775 39.8435 21.7018 40.1574 21.6999C40.7145 21.7427 41.2702 21.5999 41.7376 21.2938C41.8994 21.1686 42.0294 21.0069 42.1169 20.8219C42.2044 20.637 42.247 20.434 42.2412 20.2295" fill="white" fill-opacity="0.4"/>
</g>
</svg>
