<svg width="80" height="17" viewBox="0 0 80 17" fill="none" xmlns="http://www.w3.org/2000/svg">
<path d="M0 16.4951H79.0499V17H0V16.4951ZM24.3996 12.1863H24.4419L27.7112 3.8842H30.6911V4.1596C30.4317 4.1596 30.2085 4.1826 30.0456 4.2285C29.8767 4.2744 29.7501 4.3547 29.6535 4.458C29.557 4.5613 29.4907 4.7219 29.4545 4.917C29.4183 5.112 29.4062 5.353 29.4062 5.6514V13.3567C29.4062 13.6666 29.4304 13.919 29.4666 14.1141C29.5027 14.3034 29.5812 14.4641 29.6777 14.5731C29.7742 14.6878 29.9009 14.7509 30.0758 14.7854C30.2447 14.8198 30.4558 14.8427 30.7031 14.8427V15.1181H26.1912V14.8427C26.4928 14.8427 26.734 14.8313 26.9331 14.7968C27.1322 14.7624 27.295 14.6936 27.4036 14.5903C27.5182 14.487 27.6027 14.3378 27.6509 14.1313C27.6992 13.942 27.7233 13.6723 27.7233 13.3453V5.7776H27.6871L24.0196 15.1296H23.8085L20.1531 5.9899H20.1169V13.3625C20.1169 13.6952 20.141 13.9592 20.1772 14.1542C20.2134 14.3436 20.2978 14.4985 20.4125 14.6132C20.521 14.7108 20.6839 14.7854 20.8709 14.814C21.0639 14.8485 21.2992 14.8599 21.6068 14.8599V15.1353H17.9996V14.8599C18.2892 14.8599 18.5184 14.837 18.7054 14.8026C18.8863 14.7681 19.0371 14.6878 19.1518 14.5845C19.2603 14.4813 19.3327 14.3321 19.3749 14.1255C19.4111 13.9362 19.4353 13.6666 19.4353 13.351V5.6399C19.4353 5.3415 19.4232 5.1006 19.387 4.9055C19.3508 4.7104 19.2724 4.5613 19.1759 4.4465C19.0794 4.3318 18.9165 4.2629 18.7295 4.217C18.5485 4.1711 18.3012 4.1482 18.0057 4.1482V3.8728H21.1303L24.3996 12.1863ZM36.8558 14.2173C36.8558 14.4296 36.9403 14.6018 37.1152 14.705C37.2901 14.8198 37.6098 14.8657 38.0924 14.8542V15.1296H34.6421V14.8542C34.8652 14.8542 35.0643 14.8313 35.2392 14.7854C35.4081 14.7395 35.5469 14.6591 35.6675 14.5444C35.7942 14.4296 35.9088 14.269 36.0053 14.0682C36.1018 13.8616 36.2044 13.6092 36.3009 13.2994L39.5582 3.6318H39.8598L43.3704 13.2994C43.5031 13.678 43.6298 13.9649 43.7263 14.1714C43.8349 14.3723 43.9495 14.5329 44.0701 14.6304C44.1908 14.728 44.3295 14.7854 44.4803 14.8083C44.6311 14.8313 44.8121 14.8427 45.0353 14.8427V15.1181H40.6922V14.8427C41.0843 14.8427 41.3678 14.7968 41.5246 14.6936C41.6875 14.5903 41.7719 14.4296 41.7719 14.2059C41.7719 14.1141 41.7599 14.0223 41.7357 13.9305L41.591 13.46L40.8852 11.5322H37.6701L36.9463 13.7125C36.892 13.9649 36.8558 14.1255 36.8558 14.2173ZM39.1902 6.9136L37.8813 10.9298H40.662L39.2264 6.9136H39.1902ZM52.4125 14.1485C52.4607 14.3378 52.5452 14.4927 52.6538 14.6075C52.7804 14.705 52.9433 14.7796 53.1665 14.8083C53.3897 14.8427 53.6611 14.8542 53.9929 14.8542V15.1296H48.9259V14.8542C49.2637 14.8542 49.5472 14.8427 49.7584 14.8083C49.9755 14.7854 50.1384 14.7165 50.2651 14.6132C50.3857 14.51 50.4581 14.3493 50.5063 14.1542C50.5606 13.9534 50.5848 13.6895 50.5848 13.351V4.5211H49.2577C48.8777 4.5211 48.5459 4.5555 48.2866 4.6244C48.0414 4.6726 47.8153 4.7853 47.634 4.9496C47.4528 5.1139 47.3236 5.3232 47.2611 5.5538C47.1706 5.7948 47.1405 6.0931 47.1224 6.4603H46.8268V3.8957H56.1161V6.4431H55.8206C55.7964 5.7432 55.6275 5.2383 55.3018 4.9514C54.9821 4.6645 54.4513 4.5154 53.6852 4.5154H52.3401V13.351C52.3401 13.6895 52.3642 13.9534 52.4125 14.1485ZM64.8144 4.1711C64.5541 4.1664 64.2939 4.1818 64.0362 4.217C63.8548 4.2381 63.6855 4.3146 63.5537 4.435C63.4451 4.5498 63.3606 4.699 63.3124 4.894C63.2581 5.0891 63.2521 5.3415 63.2521 5.6628V13.3682C63.2521 13.7125 63.2702 13.9764 63.3365 14.1714C63.3968 14.3608 63.4813 14.5157 63.5959 14.6304C63.7165 14.728 63.8673 14.8026 64.0785 14.8198C64.2715 14.8427 64.5188 14.8657 64.8144 14.8657V15.1411H59.9284V14.8657C60.2481 14.8657 60.5195 14.8427 60.7126 14.8083C60.9237 14.7739 61.0745 14.6936 61.1951 14.5788C61.3097 14.4641 61.3821 14.3149 61.4364 14.1198C61.4786 13.9305 61.4967 13.678 61.4967 13.3739V5.6801C61.4967 5.3588 61.4666 5.1063 61.4364 4.9112C61.3821 4.7162 61.3097 4.567 61.1831 4.4522C61.0624 4.3375 60.8996 4.2686 60.7005 4.2342C60.4429 4.1988 60.1826 4.1834 59.9224 4.1883V3.9129H64.8144V4.1768V4.1711ZM77.9279 7.3611C77.8899 6.5063 77.5409 5.6906 76.9389 5.0547C76.6569 4.771 76.3149 4.5476 75.9349 4.3992C75.5559 4.2508 75.1469 4.1809 74.7369 4.1941C74.2059 4.1715 73.6789 4.2947 73.2189 4.549C72.7589 4.8033 72.3859 5.178 72.1429 5.6284C71.5879 6.5808 71.2989 8.0037 71.2989 9.8741C71.2989 10.7405 71.3889 11.4863 71.5519 12.1117C71.7209 12.7428 71.9559 13.2535 72.2759 13.6608C72.6019 14.0624 72.9819 14.3608 73.4399 14.5444C73.8989 14.728 74.4049 14.8198 74.9599 14.8198C75.7019 14.8198 76.3299 14.6477 76.8539 14.2919C77.4479 13.8415 77.9319 13.2738 78.2719 12.6281L78.5739 12.7715C77.6929 14.5214 76.3059 15.4107 74.4419 15.4107C73.0949 15.4076 71.8029 14.9006 70.8469 13.9993C70.3299 13.5011 69.9249 12.9075 69.6579 12.2551C69.3479 11.4869 69.1979 10.6683 69.2179 9.8454C69.2179 8.9504 69.3509 8.1414 69.6099 7.3783C69.8569 6.6659 70.2389 6.0026 70.7379 5.4219C71.2019 4.8842 71.7759 4.4429 72.4269 4.1252C73.1229 3.7984 73.8929 3.639 74.6689 3.661C75.4449 3.683 76.2039 3.8857 76.8789 4.2514C77.0349 4.3203 77.1739 4.3547 77.2829 4.3547C77.4029 4.3547 77.5059 4.2973 77.5659 4.1941C77.6269 4.0908 77.6809 3.9072 77.7169 3.6547H78.0369L78.2599 7.3726H77.9279V7.3611ZM3.8665 14.0108C3.8665 14.2977 3.9872 14.51 4.2405 14.6591C4.4818 14.8083 4.9282 14.8657 5.5977 14.8542V15.2214H0.753998V14.8542C1.0616 14.8542 1.3451 14.8198 1.5804 14.7624C1.8217 14.705 2.0268 14.6018 2.2017 14.4411C2.3706 14.2919 2.5335 14.0796 2.6662 13.81C2.8049 13.5518 2.9557 13.2076 3.0884 12.7945L7.6607 0H8.0829L12.9689 12.8174C13.174 13.3108 13.3308 13.701 13.4816 13.9764C13.6264 14.246 13.7832 14.4526 13.9642 14.5788C14.1331 14.705 14.3321 14.7854 14.5433 14.8198C14.7544 14.8542 15.0138 14.8657 15.3214 14.8657V15.2329H9.2411V14.8657C9.644 14.893 10.0479 14.826 10.4173 14.6706C10.6405 14.5444 10.7491 14.3264 10.7491 14.0223C10.7491 13.9075 10.737 13.7813 10.7009 13.6666C10.6647 13.5403 10.5983 13.3338 10.4897 13.0469L9.5005 10.488H5.0187L4.0053 13.3682C3.9298 13.5758 3.8832 13.7918 3.8665 14.0108ZM7.1238 4.3318L5.3082 9.6389H9.1989L7.1781 4.3318H7.1299H7.1238Z" fill="white" fill-opacity="0.4"/>
</svg>
