<svg width="70" height="21" viewBox="0 0 70 21" fill="none" xmlns="http://www.w3.org/2000/svg">
<mask id="mask0_18_273" style="mask-type:luminance" maskUnits="userSpaceOnUse" x="0" y="0" width="70" height="21">
<path d="M70 0.5H0V20.4439H70V0.5Z" fill="white"/>
</mask>
<g mask="url(#mask0_18_273)">
<path d="M9.9864 0.5C4.4701 0.5 0 4.8925 0 10.3131C0 15.7336 4.4701 20.1262 9.9864 20.1262C15.5027 20.1262 19.9728 15.7336 19.9728 10.3131C19.9728 4.8925 15.5027 0.5 9.9864 0.5ZM17.4049 14.7617L14.5707 17.5467C14.1712 17.9393 13.5435 17.9393 13.144 17.5467L9.9484 14.4065L6.7527 17.5467C6.3533 17.9393 5.7255 17.9393 5.3261 17.5467L2.4918 14.7617C2.0924 14.3692 2.0924 13.7523 2.4918 13.3598L5.6875 10.2196L2.4918 7.0794C2.0924 6.6869 2.0924 6.0701 2.4918 5.6776L5.3261 2.8925C5.7255 2.5 6.3533 2.5 6.7527 2.8925L9.9484 6.0327L13.144 2.8925C13.5435 2.5 14.1712 2.5 14.5707 2.8925L17.4049 5.6776C17.8043 6.0701 17.8043 6.6869 17.4049 7.0794L14.2092 10.2196L17.4049 13.3598C17.8043 13.7523 17.8043 14.3692 17.4049 14.7617Z" fill="white" fill-opacity="0.4"/>
<path d="M65.245 0.5C62.6197 0.5 60.4893 2.5935 60.4893 5.1729C60.4893 7.7523 62.6197 9.8458 65.245 9.8458C67.87 9.8458 70 7.7523 70 5.1729C70 2.5935 67.87 0.5 65.245 0.5ZM67.432 6.1075C67.546 6.2196 67.546 6.4065 67.432 6.5187L66.595 7.3411C66.481 7.4533 66.291 7.4533 66.177 7.3411L65.245 6.4252L64.313 7.3411C64.198 7.4533 64.008 7.4533 63.894 7.3411L63.057 6.5187C62.9431 6.4065 62.9431 6.2196 63.057 6.1075L63.989 5.1916L63.057 4.2757C62.9431 4.1636 62.9431 3.9766 63.057 3.8645L63.894 3.0421C64.008 2.9299 64.198 2.9299 64.313 3.0421L65.245 3.9579L66.177 3.0421C66.291 2.9299 66.481 2.9299 66.595 3.0421L67.432 3.8645C67.546 3.9766 67.546 4.1636 67.432 4.2757L66.5 5.1916L67.432 6.1075Z" fill="white" fill-opacity="0.4"/>
<path d="M35.4564 12.0889H38.1194C38.2335 12.0889 38.3477 12.1636 38.3857 12.2758L41.3531 20.0702C41.4292 20.2571 41.277 20.444 41.0868 20.444H38.614C38.4998 20.444 38.3857 20.3692 38.3477 20.2571L38.1004 19.5842C38.0623 19.472 37.9482 19.3973 37.8341 19.3973H35.7417C35.6276 19.3973 35.5134 19.472 35.4754 19.5842L35.2281 20.2571C35.1901 20.3692 35.0759 20.444 34.9618 20.444H32.508C32.3178 20.444 32.1656 20.2571 32.2417 20.0702L35.1901 12.2571C35.2281 12.1636 35.3422 12.0889 35.4564 12.0889ZM37.3585 17.4907C37.5488 17.4907 37.6819 17.3038 37.6248 17.1356L36.8069 14.6496H36.7498L35.9509 17.1356C35.8939 17.3225 36.027 17.4907 36.2172 17.4907H37.3585Z" fill="white" fill-opacity="0.4"/>
<path d="M42.6086 12.0889H44.5678C44.6629 12.0889 44.739 12.1263 44.7961 12.201L47.1357 15.3038C47.2499 15.4534 47.4781 15.4534 47.5923 15.3038L49.9319 12.201C49.989 12.1263 50.0651 12.0889 50.1602 12.0889H52.1004C52.2526 12.0889 52.3857 12.2197 52.3857 12.3692V20.1636C52.3857 20.3132 52.2526 20.444 52.1004 20.444H49.7988C49.6466 20.444 49.5135 20.3132 49.5135 20.1636V18.5188L49.5325 16.7991H49.4944L48.239 18.4814C48.1819 18.5562 48.1058 18.5935 48.0107 18.5935H46.6792C46.5841 18.5935 46.508 18.5562 46.451 18.4814L45.1955 16.7805L45.1575 16.7991L45.1765 18.5188V20.1636C45.1765 20.3132 45.0434 20.444 44.8912 20.444H42.6086C42.4564 20.444 42.3232 20.3132 42.3232 20.1636V12.3692C42.3232 12.201 42.4374 12.0889 42.6086 12.0889Z" fill="white" fill-opacity="0.4"/>
<path d="M67.204 15.3974H64.484C64.484 15.3974 63.894 15.4348 63.894 14.9301C63.894 14.4255 64.484 14.4255 64.484 14.4255H69.715C69.867 14.4255 70 14.2946 70 14.1451V12.3507C70 12.2012 69.867 12.0703 69.715 12.0703H64.312C62.9239 12.0703 61.4973 12.0703 61.4973 14.8367C61.4973 17.3413 62.8668 17.117 64.274 17.117H66.995C66.995 17.117 67.603 17.117 67.603 17.5843C67.603 18.0516 67.014 18.0703 67.014 18.0703H60.1848C60.1848 18.0703 60.1848 18.0703 60.1657 18.0703H55.7337V17.3974C55.7337 17.2479 55.8668 17.117 56.019 17.117H58.7581C58.9103 17.117 59.0435 16.9862 59.0435 16.8367V15.6404C59.0435 15.4909 58.9103 15.36 58.7581 15.36H55.7337V14.7058C55.7337 14.5563 55.8668 14.4255 56.019 14.4255H60.1657C60.3179 14.4255 60.4511 14.2946 60.4511 14.1451V12.3507C60.4511 12.2012 60.3179 12.0703 60.1657 12.0703H53.6413C53.4891 12.0703 53.356 12.2012 53.356 12.3507V20.1451C53.356 20.2946 53.4891 20.4255 53.6413 20.4255H59.6712H60.1848H67.185C68.63 20.4255 69.981 20.4255 69.981 17.6591C70 15.1731 68.554 15.3974 67.204 15.3974Z" fill="white" fill-opacity="0.4"/>
<path d="M47.8589 9.64005L46.2611 7.02315C46.185 6.91105 46.0709 6.83625 45.9377 6.83625H45.0817C44.8725 6.83625 44.7013 7.00445 44.7013 7.21005V9.43435C44.7013 9.63995 44.5301 9.80825 44.3209 9.80825H42.1334C41.9241 9.80825 41.7529 9.63995 41.7529 9.43435V0.892354C41.7529 0.686754 41.9241 0.518555 42.1334 0.518555H47.5736C49.7611 0.518555 50.8643 2.10725 50.8643 3.67735C50.8643 4.76145 50.3508 5.84565 49.3236 6.42505C49.3046 6.44375 49.2855 6.48115 49.3046 6.49986L50.9214 9.26615C51.0736 9.50915 50.8834 9.82695 50.579 9.82695H48.1823C48.0491 9.82695 47.935 9.77085 47.8589 9.64005ZM44.7013 4.64935C44.7013 4.66806 44.7203 4.68675 44.7393 4.68675H46.8888C47.6116 4.68675 47.973 4.18205 47.973 3.67735C47.973 3.17275 47.6116 2.66805 46.8888 2.66805H45.0817C44.8725 2.66805 44.7013 2.83625 44.7013 3.04185V4.64935Z" fill="white" fill-opacity="0.4"/>
<path d="M59.0436 5.0421C59.0246 5.0234 59.0246 5.0234 59.0246 5.0047C59.0246 4.986 59.0246 4.986 59.0436 4.9673C59.5002 4.5 59.7665 3.7523 59.7665 3.0047C59.7665 1.2664 58.6252 0.5 57.4839 0.5H52.2529C51.9866 0.5 51.7773 0.7056 51.7773 0.9673V9.3785C51.7773 9.6402 51.9866 9.8458 52.2529 9.8458H57.4839C59.2148 9.8458 59.9947 8.4626 59.9947 7.1916C59.9947 6.3131 59.6333 5.528 59.0436 5.0421ZM56.4567 4.4252H54.4023V2.9112C54.4023 2.7617 54.5355 2.6308 54.6877 2.6308H56.4567C57.1224 2.6308 57.4268 3.0794 57.4268 3.528C57.4268 3.9766 57.1224 4.4252 56.4567 4.4252ZM54.6877 6.0701H56.4567C57.1224 6.0701 57.4268 6.5187 57.4268 6.9673C57.4268 7.3972 57.1224 7.8645 56.4567 7.8645H54.4023V6.3505C54.4023 6.2009 54.5355 6.0701 54.6877 6.0701Z" fill="white" fill-opacity="0.4"/>
<path d="M31.4241 15.4344H28.3426C28.0953 15.4344 27.9051 15.6213 27.9051 15.8643V16.911C27.9051 17.154 28.0953 17.3409 28.3426 17.3409H29.3697C29.4078 17.3409 29.4458 17.3783 29.4458 17.4157V17.9578C29.4458 17.9764 29.4268 18.0138 29.4078 18.0325C29.1225 18.1821 28.7991 18.2568 28.3806 18.2568H28.3235C27.4295 18.2568 26.973 18.2381 26.5545 18.2194C25.6795 18.1634 25.0328 17.3596 25.0328 16.3129V16.2942C25.0328 15.397 25.6034 14.6493 26.4784 14.4064C26.6877 14.3503 30.0545 14.3316 31.329 14.3503C31.5382 14.3503 31.6904 14.1821 31.6904 13.9951C31.6904 13.4531 31.6904 12.4811 31.6904 12.4811C31.6904 12.2755 31.5192 12.126 31.329 12.126C30.0355 12.126 26.5355 12.126 26.4594 12.1447C24.1388 12.3129 22.4648 14.0699 22.4648 16.2942V16.3129C22.4648 18.7615 23.7203 20.2755 25.9078 20.4437C26.0029 20.4437 26.7257 20.4624 27.829 20.4624C28.2665 20.4624 28.6089 20.4624 28.6659 20.4624C28.704 20.4624 28.742 20.4624 28.7991 20.4624C29.9594 20.4624 31.7475 19.3222 31.8806 18.9858C31.8996 18.9484 31.8806 15.9017 31.8806 15.9017C31.8616 15.6213 31.6714 15.4344 31.4241 15.4344Z" fill="white" fill-opacity="0.4"/>
<path d="M30.2444 0.5H22.9971C22.7879 0.5 22.6167 0.6682 22.6167 0.8738V3.0047C22.6167 3.2103 22.7879 3.3785 22.9971 3.3785H24.7662C24.9754 3.3785 25.1466 3.5467 25.1466 3.7523V9.472C25.1466 9.6776 25.3178 9.8458 25.527 9.8458H27.6955C27.9047 9.8458 28.0759 9.6776 28.0759 9.472V3.771C28.0759 3.5654 28.2471 3.3972 28.4564 3.3972H30.2254C30.4346 3.3972 30.6058 3.229 30.6058 3.0234V0.8738C30.6249 0.6682 30.4537 0.5 30.2444 0.5Z" fill="white" fill-opacity="0.4"/>
<path d="M38.1767 0.518555C37.9675 0.518555 37.7963 0.686754 37.7963 0.892354V6.61195C37.7963 7.00445 37.6441 7.15405 37.2256 7.15405H35.1523C34.7338 7.15405 34.5816 7.00445 34.5816 6.61195V0.892354C34.5816 0.686754 34.4104 0.518555 34.2012 0.518555H31.9566C31.7474 0.518555 31.5762 0.686754 31.5762 0.892354V6.98575C31.5762 7.97645 31.8235 8.70545 32.299 9.15405C32.7745 9.62136 33.5544 9.84565 34.5816 9.84565H37.7582C38.7854 9.84565 39.5653 9.60265 40.0408 9.15405C40.5164 8.68675 40.7637 7.95775 40.7637 6.98575V0.892354C40.7637 0.686754 40.5925 0.518555 40.3832 0.518555H38.1767Z" fill="white" fill-opacity="0.4"/>
</g>
</svg>
