<svg width="79" height="17" viewBox="0 0 79 17" fill="none" xmlns="http://www.w3.org/2000/svg">
<mask id="mask0_18_207" style="mask-type:luminance" maskUnits="userSpaceOnUse" x="0" y="0" width="79" height="17">
<path d="M78.4314 0.5H0V16.5H78.4314V0.5Z" fill="white"/>
</mask>
<g mask="url(#mask0_18_207)">
<path d="M33.7725 13.1376H31.3684V7.6292L28.1068 10.8885L24.8451 7.6292V13.1376H22.4411V1.83214L28.1068 7.4937L33.7725 1.83214V13.1376ZM10.05 7.6447H5.88403V9.8916H7.61493V11.3614C7.09273 11.6634 6.48393 11.8343 5.83523 11.8254C4.03333 11.7987 2.52023 10.3356 2.44023 8.5351C2.35133 6.559 3.92883 4.9294 5.88633 4.9294C6.84393 4.9294 7.71263 5.3201 8.33703 5.9507L10.0544 4.2233C8.94803 3.1132 7.39933 2.44271 5.69523 2.49821C2.69133 2.5959 0.198413 5.0071 0.0117732 8.0044C-0.201527 11.4213 2.51133 14.261 5.88633 14.261C7.46153 14.261 8.89023 13.6416 9.94553 12.6358L10.0455 12.5403L10.05 7.6447ZM18.4174 13.8192H13.7871L13.1228 15.1536H10.4433L16.0934 3.7926L18.1953 7.9689L21.7724 15.1536H19.0795L18.4152 13.8192H18.4174ZM17.3087 11.59L16.1022 9.1678L14.8958 11.59H17.3087ZM52.0448 10.0736L51.1161 8.2064L50.1874 10.0736H52.0471H52.0448ZM61.7942 5.2424H60.0301V8.3308H61.7942C62.6519 8.3308 63.3473 7.6514 63.3473 6.7944C63.3473 5.9374 62.6519 5.2424 61.7942 5.2424ZM78.4313 0.5V16.4857H42.4843V14.4874H35.7721V2.5981H42.4843V0.5H78.4313ZM38.2828 7.3827H42.4866V4.9183H38.2828V7.3827ZM38.2828 12.1674H42.4866V9.7029H38.2828V12.1674ZM56.4352 13.8214L51.1073 3.1643L45.8059 13.8214H48.3189L49.1431 12.1651H53.0847L53.909 13.8214H56.433H56.4352ZM66.6867 13.8192L64.3227 9.3876C64.9959 8.7304 65.4136 7.8135 65.4136 6.7988C65.4136 4.8228 63.8273 3.2042 61.8587 3.1687H57.7683V13.8147H60.0301V10.4267H62.2897L64.1227 13.8236H66.6867V13.8192ZM75.7651 3.1709H67.4066V5.2491H70.4616V13.8192H72.7101V5.2491H75.7651V3.1709Z" fill="white" fill-opacity="0.4"/>
</g>
</svg>
